<?xml version="1.0" encoding="UTF-8"?>
<svg version="1.1" xmlns="http://www.w3.org/2000/svg" width="1024" height="1024">
<path d="M0 0 C337.92 0 675.84 0 1024 0 C1024 337.92 1024 675.84 1024 1024 C686.08 1024 348.16 1024 0 1024 C0 686.08 0 348.16 0 0 Z " fill="#FEFEFE" transform="translate(0,0)"/>
<path d="M0 0 C0.845625 -0.02578125 1.69125 -0.0515625 2.5625 -0.078125 C5.47264128 0.31362479 6.8220601 1.33421954 9 3.25 C8.41268851 8.21375497 7.35469981 12.68258422 5.77734375 17.421875 C5.44577019 18.42889214 5.44577019 18.42889214 5.10749817 19.45625305 C4.63423582 20.89307602 4.15860222 22.32911977 3.68078613 23.76443481 C2.41165077 27.58158503 1.16452421 31.40589556 -0.08203125 35.23046875 C-0.33270355 35.99898666 -0.58337585 36.76750458 -0.84164429 37.55931091 C-4.4682216 48.71790202 -7.76280483 59.97297001 -11 71.25 C-11.31453125 72.34199707 -11.6290625 73.43399414 -11.953125 74.55908203 C-20.00905369 100.20678496 -20.00905369 100.20678496 -23.0625 126.6875 C-23.04896484 128.26337891 -23.04896484 128.26337891 -23.03515625 129.87109375 C-23.02355469 130.65613281 -23.01195312 131.44117188 -23 132.25 C-21.32171592 133.21624167 -21.32171592 133.21624167 -19 133.25 C-14.23468236 130.00149434 -11.21690531 126.18336977 -8.125 121.375 C-7.70081787 120.72950195 -7.27663574 120.08400391 -6.83959961 119.41894531 C-3.43430435 114.14433862 -0.42025785 108.69383714 2.39990234 103.08642578 C5.41923718 97.14023439 5.41923718 97.14023439 8 95.25 C10.6875 95.5625 10.6875 95.5625 13 96.25 C15.79555151 109.58393356 4.98475884 125.25606417 -2 136.25 C-4.71908056 140.16508352 -7.77316556 143.74467704 -11 147.25 C-11.59425781 147.92417969 -12.18851563 148.59835937 -12.80078125 149.29296875 C-16.95383614 153.77063023 -21.54581023 156.56178427 -27 159.25 C-27.66 159.58 -28.32 159.91 -29 160.25 C-33.53712952 160.84441664 -38.0698329 161.31384435 -42.17578125 159.05078125 C-45.25717728 156.43126471 -47.61845644 153.51044653 -50 150.25 C-50.42410156 150.96285156 -50.84820313 151.67570313 -51.28515625 152.41015625 C-57.38156927 162.36539773 -63.71522107 170.11611569 -75 174.25 C-80.30976965 175.17209287 -85.37664018 175.55502164 -90.30859375 173.1015625 C-94.13389995 170.09539671 -95.96615468 167.0746115 -97 162.25 C-97.66 162.25 -98.32 162.25 -99 162.25 C-99.32484375 163.27480469 -99.32484375 163.27480469 -99.65625 164.3203125 C-101.40076156 168.12375339 -103.77773922 170.97331097 -106.5 174.125 C-107.03246338 174.74342773 -107.56492676 175.36185547 -108.11352539 175.99902344 C-114.06293373 182.71789685 -121.43095106 189.52325177 -130.71875 190.55078125 C-140.31315079 190.5912071 -140.31315079 190.5912071 -144 187.25 C-149.27788306 179.89866288 -148.96775753 170.78983058 -147.68359375 162.11181641 C-145.6308743 150.95887349 -142.34251036 140.07206222 -139 129.25 C-145.13784149 130.98391363 -147.01028009 135.42385978 -150.015625 140.62890625 C-157.11458782 153.44042216 -161.07290847 166.6516575 -164.65625 180.75390625 C-165.09819702 182.4414502 -165.09819702 182.4414502 -165.54907227 184.16308594 C-166.13218157 186.39425219 -166.69585935 188.63060593 -167.23803711 190.87207031 C-169.27207193 198.59668216 -169.27207193 198.59668216 -172.97265625 201.91796875 C-178.35247233 204.28508783 -183.14165633 204.83152676 -189 204.25 C-191.5 203.125 -191.5 203.125 -193 201.25 C-193.75 198.0625 -193.75 198.0625 -194 195.25 C-194.40089844 195.79527344 -194.80179688 196.34054687 -195.21484375 196.90234375 C-202.75999964 206.91122401 -210.62066815 216.72927286 -223.74609375 218.65234375 C-228.53482943 218.83023141 -232.3203453 218.59514064 -236 215.25 C-239 210.18103448 -239 210.18103448 -239 207.25 C-239.66 207.25 -240.32 207.25 -241 207.25 C-241.38285156 208.31927734 -241.38285156 208.31927734 -241.7734375 209.41015625 C-245.94685571 219.0728156 -253.19784772 226.85617271 -262.8125 231.125 C-268.98523286 233.15822759 -275.38246231 233.36487716 -281.375 230.8125 C-284.86591966 227.40469748 -286.89199568 223.61524789 -289 219.25 C-289.7734375 220.4565625 -289.7734375 220.4565625 -290.5625 221.6875 C-293.48013279 226.05367583 -296.71438225 230.15689992 -300 234.25 C-300.5465625 234.94609375 -301.093125 235.6421875 -301.65625 236.359375 C-307.89092163 243.94685274 -316.84135736 251.47504545 -326.88671875 252.5625 C-331.68038214 252.75118048 -335.10998111 252.66322306 -339.5 250.625 C-344.88543174 245.50883985 -346.62814923 241.03923913 -347.25 233.875 C-347.32734375 233.13894531 -347.4046875 232.40289063 -347.484375 231.64453125 C-347.67104528 229.84782982 -347.83761464 228.04905887 -348 226.25 C-348.74894531 227.00667969 -349.49789063 227.76335937 -350.26953125 228.54296875 C-352.36563764 230.62108281 -354.46212503 232.6271739 -356.6875 234.5625 C-357.26886719 235.07425781 -357.85023438 235.58601562 -358.44921875 236.11328125 C-360 237.25 -360 237.25 -362 237.25 C-362.02578125 237.86746094 -362.0515625 238.48492188 -362.078125 239.12109375 C-362.89119013 251.26163444 -368.4220572 259.9880318 -377 268.375 C-386.56629742 276.62349115 -398.4516348 279.65334874 -410.828125 279.52734375 C-415.3977896 279.12777948 -417.46265862 278.17215157 -421 275.25 C-424.47253841 270.43325317 -424.34198476 265.94974592 -424 260.25 C-424.47308594 261.06082031 -424.94617188 261.87164063 -425.43359375 262.70703125 C-432.35109044 274.29012999 -439.77195717 284.45274803 -451 292.25 C-451.64453125 292.70503906 -452.2890625 293.16007812 -452.953125 293.62890625 C-458.8071825 297.15855857 -465.35865203 297.24929737 -472 296.25 C-476.97832972 293.06386898 -478.25322841 288.67418545 -480 283.25 C-483.24604073 286.29316319 -486.01438675 289.48747259 -488.75 293 C-499.20390279 306.1504235 -512.22436658 316.65522141 -529 320.25 C-536.79011004 320.91772372 -543.14034284 320.04396096 -549.3125 314.9375 C-552.17431099 312.2915703 -554.05776333 310.13672625 -555 306.25 C-556.59377145 308.34911361 -558.14848977 310.46292872 -559.65625 312.625 C-575.54576922 335.24736634 -575.54576922 335.24736634 -589 339.25 C-595.01081141 340.11063891 -600.01309791 340.10642331 -605.625 337.6875 C-610.7038839 332.47496126 -611.56070315 326.73617335 -611.5 319.75 C-611.49355469 318.96246338 -611.48710938 318.17492676 -611.48046875 317.36352539 C-611.04725525 303.22565978 -604.13930434 290.69618274 -598 278.25 C-600.64 277.92 -603.28 277.59 -606 277.25 C-606.22429687 278.02730469 -606.44859375 278.80460937 -606.6796875 279.60546875 C-610.66180011 290.59751331 -617.09332679 306.29988405 -627 313.25 C-628.32 313.25 -629.64 313.25 -631 313.25 C-633 310.25 -633 310.25 -632.8125 306.9375 C-632.00602868 303.27736095 -630.72738548 300.55112211 -629 297.25 C-629.59538574 297.49234375 -630.19077148 297.7346875 -630.80419922 297.984375 C-633.49302765 299.07649824 -636.18397174 300.16330919 -638.875 301.25 C-639.81214844 301.6315625 -640.74929688 302.013125 -641.71484375 302.40625 C-642.61074219 302.7671875 -643.50664063 303.128125 -644.4296875 303.5 C-645.25710449 303.83515625 -646.08452148 304.1703125 -646.93701172 304.515625 C-649 305.25 -649 305.25 -651 305.25 C-650.60167969 306.26707031 -650.60167969 306.26707031 -650.1953125 307.3046875 C-649.84210938 308.23539063 -649.48890625 309.16609375 -649.125 310.125 C-648.60292969 311.48238281 -648.60292969 311.48238281 -648.0703125 312.8671875 C-645.41661747 321.25441341 -644.66853456 329.22841936 -644.75 338 C-644.76015137 339.58868896 -644.76015137 339.58868896 -644.77050781 341.20947266 C-644.87407996 349.07493395 -645.44423348 356.52450794 -647 364.25 C-647.12358887 364.91596191 -647.24717773 365.58192383 -647.37451172 366.26806641 C-651.58229472 388.80648224 -659.68509866 415.13700417 -679 429.25 C-683.5642783 432.36200793 -687.86774438 433.00752059 -693.3046875 432.859375 C-697.34863833 431.94509046 -699.1363254 429.8491811 -701.66015625 426.68359375 C-710.95638663 409.79860388 -703.47507877 381.24482123 -699.51269531 363.55273438 C-698.86590097 360.64770377 -698.24283896 357.73778118 -697.6171875 354.828125 C-695.09523819 343.19516148 -692.57112699 331.61458647 -689 320.25 C-689.75023437 320.58386719 -690.50046875 320.91773438 -691.2734375 321.26171875 C-694.89845349 322.57565721 -697.28464033 322.14443844 -701 321.25 C-703.16167286 319.62494851 -703.89694634 318.65099792 -704.57421875 316.015625 C-704.74242199 312.28035311 -704.78759224 309.42908545 -702.6640625 306.25 C-698.62429916 302.43182705 -694.29836542 300.46736772 -689.1875 298.375 C-684.89324737 296.5823865 -684.89324737 296.5823865 -681.640625 293.4375 C-680.8258358 291.04745167 -680.40216536 288.74413079 -680 286.25 C-679.4571727 283.8912195 -678.89208983 281.53751757 -678.3125 279.1875 C-678.14959473 278.51968506 -677.98668945 277.85187012 -677.81884766 277.16381836 C-671.48882326 251.86959279 -663.08383665 224.68271662 -641.0703125 208.86328125 C-635.38016752 205.49877644 -629.44851167 205.51432473 -623 206.25 C-617.68401262 207.95871023 -615.70149945 210.44358224 -613 215.25 C-611.52896509 224.98478985 -612.88312932 233.8474641 -618.203125 242.12109375 C-620.69706243 245.41214409 -622.9936976 247.27285307 -627 248.25 C-630.1875 248.5 -630.1875 248.5 -633 248.25 C-633.66 247.59 -634.32 246.93 -635 246.25 C-634.57800261 239.77937329 -632.63249686 233.502771 -631 227.25 C-632.9406383 227.35665953 -632.9406383 227.35665953 -635 228.25 C-637.22482062 231.98238564 -638.52623736 236.17123794 -640 240.25 C-640.39058594 241.32378906 -640.78117187 242.39757812 -641.18359375 243.50390625 C-645.88437611 257.0514069 -650.3301305 271.15194209 -653 285.25 C-645.23839364 283.41257876 -645.23839364 283.41257876 -637.625 281.0625 C-634.55886107 280.113457 -632.19055941 279.8954934 -629 280.25 C-627.1875 281.25 -627.1875 281.25 -626 283.25 C-625.46059517 285.93115931 -625.22431886 288.5133099 -625 291.25 C-623.7947778 289.02890472 -622.61112596 286.8002135 -621.4375 284.5625 C-621.09525391 283.93666016 -620.75300781 283.31082031 -620.40039062 282.66601562 C-618.88238365 279.73733551 -617.96277829 277.73388226 -618.21875 274.40625 C-618.92597762 272.25053624 -618.92597762 272.25053624 -620.0625 270.4375 C-622.49872848 264.75296688 -620.95521312 258.90272914 -618.9140625 253.3515625 C-616.33622268 247.42473419 -612.32329396 242.68708224 -607.125 238.875 C-603.79763185 237.89636231 -601.33132627 238.41716843 -598 239.25 C-595.5 240.6875 -595.5 240.6875 -594 243.25 C-593.90361967 247.77246165 -594.57232139 251.96696417 -596 256.25 C-595.33613281 255.98445312 -594.67226563 255.71890625 -593.98828125 255.4453125 C-591.32552083 254.38020833 -588.66276042 253.31510417 -586 252.25 C-584.70642578 251.70279297 -584.70642578 251.70279297 -583.38671875 251.14453125 C-580.02546739 249.88474964 -577.55944828 249.80506897 -574 250.25 C-571.36983839 252.4227422 -569.52663106 254.19673788 -568 257.25 C-568.31087278 264.46366153 -570.25421857 269.92566475 -573.25 276.4375 C-574.06905148 278.2918026 -574.88545807 280.1472757 -575.69921875 282.00390625 C-576.09415527 282.89996582 -576.4890918 283.79602539 -576.89599609 284.71923828 C-580.91367231 293.92915241 -583.93694322 302.04772941 -583 312.25 C-577.12161527 311.29006175 -573.93729391 308.69286946 -570.30859375 304.1171875 C-568.45793996 301.54200482 -566.72314646 298.9120162 -565 296.25 C-564.42121094 295.42242188 -563.84242188 294.59484375 -563.24609375 293.7421875 C-558.92069871 287.1041092 -556.77147351 280.58117483 -554.625 273 C-548.82321959 252.77920853 -537.43328228 234.63242099 -518.71484375 223.9453125 C-511.80017835 220.68473857 -504.53397672 220.25915709 -497 221.25 C-491.82308798 223.30099617 -489.85635344 225.10899356 -487.69140625 230.08203125 C-485.21985036 237.83182514 -487.78992812 245.7023521 -491.21875 252.7578125 C-499.17505453 266.8581522 -512.09239113 277.94293471 -527 284.25 C-527.66 284.25 -528.32 284.25 -529 284.25 C-527.87302957 289.21911366 -527.87302957 289.21911366 -525 293.25 C-516.28375901 294.53600277 -510.20728119 290.92523761 -503 286.25 C-496.40866594 281.20025482 -491.73917124 274.97117712 -487 268.25 C-486.28199219 267.23292969 -485.56398438 266.21585938 -484.82421875 265.16796875 C-478.9015898 255.84126569 -476.35936847 245.9210562 -473.640625 235.30078125 C-468.10518945 214.04921075 -468.10518945 214.04921075 -460.3125 208.25 C-454.70183667 206.55621484 -449.34690547 206.19628734 -443.9375 208.625 C-442 210.25 -442 210.25 -441 212.25 C-440.65232007 216.98117393 -441.56362138 220.44805706 -443.1875 224.875 C-448.13514143 238.97747307 -451.49055358 253.38082635 -453 268.25 C-441.64938726 265.57926759 -436.75592308 257.2616706 -430.80078125 247.79296875 C-428.86353784 244.65405817 -427.00935364 241.47163159 -425.17626953 238.27099609 C-423.97420145 236.20567447 -422.72158802 234.17694866 -421.46484375 232.14453125 C-416.47944736 223.7923357 -414.3364014 217.39712849 -414.30517578 207.65161133 C-414.18445618 197.99721992 -409.66441038 190.04691553 -403.12109375 183.06640625 C-394.51595928 175.69736845 -385.1302958 171.73377898 -373.8515625 171.9296875 C-369.73371366 172.39224038 -367.99527848 173.41236776 -365 176.25 C-362.63523719 179.47467656 -362.47216294 182.32892472 -363 186.25 C-365.44561336 191.68702884 -368.5524513 195.58417829 -374 198.25 C-376.1875 198.25 -376.1875 198.25 -378 197.25 C-381 193.92857143 -381 193.92857143 -381 191.25 C-382.98 192.24 -382.98 192.24 -385 193.25 C-385.0825 194.44625 -385.165 195.6425 -385.25 196.875 C-385.29640625 197.54789063 -385.3428125 198.22078125 -385.390625 198.9140625 C-384.44945425 204.54226361 -379.79393156 208.70271518 -376 212.6875 C-372.292572 216.69020987 -369.39151801 220.35825861 -367 225.25 C-356.91241076 220.98217378 -348.64082071 210.13769211 -344.12109375 200.45703125 C-341.64054734 193.36111276 -340.16933246 185.96622103 -338.55322266 178.63525391 C-337.81843003 175.46714977 -336.93320053 172.36492961 -336 169.25 C-336.556875 169.4665625 -337.11375 169.683125 -337.6875 169.90625 C-343.01679925 171.85072405 -347.32447424 172.93497725 -353 172.25 C-355.0625 170.6875 -355.0625 170.6875 -356 168.25 C-355.92203946 164.04013091 -355.21377113 160.19281283 -352.68359375 156.7265625 C-348.18229294 152.77878592 -341.5056956 150.03545756 -335.7019043 148.73510742 C-330.99946364 147.63050786 -330.99946364 147.63050786 -327.69213867 144.32885742 C-326.6805651 141.89147617 -325.90252144 139.47745551 -325.1875 136.9375 C-322.45260178 128.06774326 -319.50696095 121.96181812 -312 116.25 C-308.28345598 114.39172799 -304.05631319 114.81766568 -300 115.25 C-296.8125 116.6875 -296.8125 116.6875 -295 119.25 C-294.62029967 124.71346593 -296.35501135 130.09570224 -298 135.25 C-297.41992188 135.05664062 -296.83984375 134.86328125 -296.2421875 134.6640625 C-294.61952824 134.12317608 -292.99576928 133.58558084 -291.37109375 133.05078125 C-289.5438386 132.43366872 -287.73569826 131.75976055 -285.9375 131.0625 C-281.62344241 129.86925003 -277.155805 129.1720975 -273 131.25 C-271.38095896 134.48808208 -271.22746207 137.7766208 -272 141.25 C-274.752584 146.59042481 -277.94812442 148.67544499 -283.375 150.8125 C-284.0774585 151.11945801 -284.77991699 151.42641602 -285.50366211 151.74267578 C-289.03163902 153.24554557 -292.11156346 154.26924275 -295.91796875 154.92578125 C-300.20960199 155.74914926 -302.58168448 156.48236775 -306 159.25 C-309.4932602 165.86600126 -310.76896433 173.43481905 -312.25439453 180.70263672 C-312.99721185 184.23673483 -313.85117276 187.72423918 -314.74609375 191.22265625 C-315.31183368 193.48128633 -315.87569516 195.74038791 -316.4375 198 C-316.69724609 199.03278076 -316.95699219 200.06556152 -317.22460938 201.12963867 C-318.94632003 208.51746113 -319.56718831 215.6648705 -319 223.25 C-317.91364731 224.53722025 -317.91364731 224.53722025 -315.3125 224.625 C-309.96509755 224.01963368 -306.67722152 220.23198772 -303.40234375 216.19921875 C-302.57365769 215.11735931 -301.75204044 214.03004945 -300.9375 212.9375 C-300.52951172 212.40705078 -300.12152344 211.87660156 -299.70117188 211.33007812 C-294.13542223 203.98821248 -290.21391838 196.81407488 -287.125 188.125 C-279.59733564 167.81978959 -269.74068437 147.7952411 -249.1640625 138.16015625 C-243.03202285 135.58115762 -237.67528876 135.42466924 -231.5 137.75 C-230.345 138.245 -229.19 138.74 -228 139.25 C-227.319375 138.321875 -226.63875 137.39375 -225.9375 136.4375 C-223.06531604 133.02324189 -220.33120633 131.51949151 -216 130.25 C-211.18893927 130.41589865 -207.8836373 131.39438434 -204 134.25 C-202.02506735 138.19986531 -202.44782681 142.54399567 -203.77368164 146.64038086 C-204.10746826 147.48995361 -204.44125488 148.33952637 -204.78515625 149.21484375 C-207.14976934 155.50909602 -208.99067765 161.88891458 -210.75 168.375 C-211.06582031 169.49003906 -211.38164063 170.60507812 -211.70703125 171.75390625 C-213.44179037 178.12970926 -214.36312774 183.64386849 -214 190.25 C-211.10873776 190.50467077 -209.50345453 190.58262166 -207.04296875 188.95703125 C-201.25148731 183.04362389 -197.0145823 176.46950095 -193 169.25 C-192.66347412 168.65501709 -192.32694824 168.06003418 -191.98022461 167.44702148 C-189.02986536 161.95361046 -187.52413307 156.35000958 -186.0625 150.3125 C-185.54876959 148.27426112 -185.0331258 146.2365036 -184.515625 144.19921875 C-184.13567383 142.69560791 -184.13567383 142.69560791 -183.74804688 141.16162109 C-182.66932894 136.96292982 -181.51583172 132.78952163 -180.3125 128.625 C-180.12244385 127.94574463 -179.9323877 127.26648926 -179.73657227 126.56665039 C-178.13242231 121.07957759 -176.51321379 117.3697782 -171.875 113.9375 C-167.66862412 111.75410574 -163.64178816 111.39813626 -159 112.25 C-156 113.875 -156 113.875 -154 116.25 C-153.1875 119.5 -153.1875 119.5 -153 122.25 C-152.55269531 121.65832031 -152.10539063 121.06664062 -151.64453125 120.45703125 C-145.48550806 112.4069647 -139.1788226 105.8394113 -130 101.25 C-124.38299038 100.665831 -119.70834257 100.85561349 -115 104.25 C-111.31643605 108.90292289 -110.26778606 112.78295006 -110.47265625 118.69140625 C-111.84977849 127.98443113 -115.02813501 136.99065406 -117.84448242 145.93066406 C-119.18503732 150.25753178 -120.36297395 154.33163536 -120.6875 158.875 C-120.75324219 159.71289062 -120.81898438 160.55078125 -120.88671875 161.4140625 C-120.94279297 162.32285156 -120.94279297 162.32285156 -121 163.25 C-110.70856023 159.88952987 -105.7141141 151.10538867 -100.77734375 141.9609375 C-98.48189746 137.41764361 -97.24135068 132.67860766 -95.98046875 127.76171875 C-90.61303154 108.53731219 -79.0491402 91.78946849 -62 81.25 C-57.8828628 79.16443378 -54.4658134 79.00889178 -49.875 79.0625 C-48.04582031 79.07216797 -48.04582031 79.07216797 -46.1796875 79.08203125 C-43 79.25 -43 79.25 -40 80.25 C-39.8141333 79.4657666 -39.6282666 78.6815332 -39.43676758 77.87353516 C-32.5841736 49.03140003 -32.5841736 49.03140003 -28.59277344 35.31054688 C-27.96349319 33.12309825 -27.35964736 30.92952304 -26.7578125 28.734375 C-20.86839059 7.50495689 -20.86839059 7.50495689 -13.4375 3.1875 C-8.95128683 1.00270641 -4.98490191 0.09118723 0 0 Z " fill="#030403" transform="translate(886,322.75)"/>
<path d="M0 0 C2.38954205 2.38954205 2.51523623 3.60311289 3.1574707 6.87915039 C3.36140945 7.89944839 3.56534821 8.9197464 3.77546692 9.97096252 C4.09737251 11.64242592 4.09737251 11.64242592 4.42578125 13.34765625 C4.7699836 15.08564735 4.7699836 15.08564735 5.12113953 16.85874939 C5.8588088 20.59195348 6.58585154 24.32713674 7.3125 28.0625 C7.79030442 30.49167646 8.2688126 32.9207146 8.74804688 35.34960938 C9.70284827 40.19280248 10.65346998 45.03678928 11.60131836 49.88134766 C12.93041257 56.66322618 14.28666444 63.43946416 15.6484375 70.21484375 C17.46202533 79.25106541 19.2188537 88.29576743 20.91143799 97.3553772 C23.59130626 111.68559657 26.33606703 126.00313104 29.125 140.3125 C29.29533752 141.18650452 29.46567505 142.06050903 29.64117432 142.96099854 C31.77187923 153.87784296 33.969537 164.77684355 36.27783203 175.65771484 C38.03953916 184.02842976 39.58567392 192.43484038 41.12353516 200.84912109 C44.09544119 217.06523897 47.34866378 233.22784331 50.83227539 249.34179688 C52 254.78915003 52 254.78915003 52 257 C59.81773325 250.96442479 67.4868754 244.80882328 74.95532227 238.3449707 C79.31676768 234.57223168 83.75481907 230.90640617 88.23046875 227.26953125 C93.54441666 222.91494206 98.76526766 218.44921565 104 214 C111.01234558 208.0399173 118.04960805 202.12241205 125.1875 196.3125 C128.8809391 193.2756723 132.52298486 190.18039045 136.16625977 187.08374023 C139.55954109 184.2045468 142.98267786 181.36795763 146.4375 178.5625 C150.0416198 175.63317186 153.58400994 172.64620123 157.09375 169.60546875 C166.36346434 161.57578199 175.93781669 154.02012789 186 147 C184.38769305 150.63846809 182.1474507 153.50879404 179.6875 156.625 C175.57270811 161.88674844 171.63157823 167.25187985 167.75 172.6875 C162.71451103 179.71987226 157.49928294 186.58465685 152.16113281 193.3894043 C148.37812543 198.2147867 144.6614364 203.08181682 141 208 C136.09101603 214.58980426 131.06681507 221.08343716 126.00878906 227.55932617 C121.99195688 232.70777843 118.04752965 237.90134242 114.14453125 243.13671875 C108.69341931 250.41479717 103.12682364 257.60708825 97.5 264.75 C96.8709375 265.54921875 96.241875 266.3484375 95.59375 267.171875 C94 269 94 269 92 270 C91.2575 269.236875 90.515 268.47375 89.75 267.6875 C85.876338 263.90187577 83.44397879 261.75610816 78 261 C79.4841373 257.51345524 81.46214052 255.35808928 84.1875 252.75 C87.06501117 249.9412192 89.82989001 247.12333744 92.4375 244.0625 C95.87436611 240.05149384 99.59200743 236.37094014 103.375 232.6875 C105.41557969 230.59833508 107.31963079 228.49358051 109.21875 226.28125 C114.16469358 220.57521552 119.59419388 215.35990081 124.97265625 210.06640625 C129.30495685 205.77582925 133.46075677 201.42144909 137.43212891 196.79492188 C139.66047892 194.24387403 142.02578723 191.87867561 144.4375 189.5 C145.30246094 188.6440625 146.16742187 187.788125 147.05859375 186.90625 C147.69925781 186.2771875 148.33992187 185.648125 149 185 C147.6078125 186.2065625 147.6078125 186.2065625 146.1875 187.4375 C143.1429824 190.0496961 140.05144811 192.59606877 136.9375 195.125 C132.56737675 198.68584116 128.27012274 202.32004265 124 206 C118.98824717 210.31816204 113.91781604 214.54906698 108.78125 218.71875 C105.63616205 221.29842888 102.53520324 223.92631983 99.4375 226.5625 C94.88720681 230.43247486 90.27166922 234.19960089 85.58984375 237.91015625 C81.97074259 240.83054708 78.43377511 243.84402864 74.89331055 246.85888672 C71.40246901 249.82725793 67.8746651 252.74206129 64.3125 255.625 C48.64678331 268.42103279 48.64678331 268.42103279 39.125 285.8125 C36.7605762 292.35688731 36.7605762 292.35688731 33.9765625 294.7109375 C31.66607314 295.72431003 29.44824036 296.39583746 27 297 C18.46400128 299.80506876 12.49825223 303.96429425 6.49609375 310.68359375 C4.71171171 312.25366359 3.29144172 312.49793101 1 313 C0.01773069 256.60276575 -0.28335358 200.20584295 -0.51740873 143.80124795 C-0.56785249 131.67904639 -0.62235604 119.55686392 -0.67708123 107.43468106 C-0.78900721 82.6231386 -0.89621144 57.81157775 -1 33 C-1.94705126 37.99576052 -2.89357824 42.99162 -3.83966064 47.98756409 C-4.16024291 49.68007461 -4.48095791 51.37255999 -4.80181885 53.0650177 C-6.8148411 63.68376911 -8.80281981 74.30647229 -10.75 84.9375 C-12.12742413 92.41287379 -13.55689112 99.86256935 -15.19921875 107.28515625 C-16.2945261 112.36631376 -17.30060233 117.46416796 -18.3125 122.5625 C-19.86655266 130.38610874 -21.45138575 138.20200866 -23.08325195 146.00976562 C-25.69492807 158.50943811 -28.19395035 171.02661973 -30.625 183.5625 C-33.85275522 200.197885 -37.13512586 216.8221517 -40.45233154 233.43991089 C-40.97802715 236.07345879 -41.50262722 238.70721729 -42.02667236 241.34109497 C-44.86398097 255.59693777 -47.75010866 269.83184164 -51 284 C-54.846967 282.22393309 -56.93928411 280.07851779 -59.75 276.875 C-65.20131557 270.73902916 -70.98104188 264.97439742 -76.86816406 259.25732422 C-77.53428711 258.6026416 -78.20041016 257.94795898 -78.88671875 257.2734375 C-79.48701904 256.68997559 -80.08731934 256.10651367 -80.70581055 255.50537109 C-82 254 -82 254 -82 252 C-82.66 252 -83.32 252 -84 252 C-85.19921875 250.77734375 -85.19921875 250.77734375 -86.6875 248.9375 C-90.2659604 244.72928984 -94.08481175 240.82812748 -98 236.9375 C-98.64283936 236.29796387 -99.28567871 235.65842773 -99.94799805 234.99951172 C-101.96339857 232.99771373 -103.98126333 230.99843328 -106 229 C-121.32591066 213.82822925 -121.32591066 213.82822925 -126.46875 207.75390625 C-129.46139977 204.32610077 -132.75315983 201.18464017 -136 198 C-141.24428384 192.85618137 -146.23771079 187.59568982 -151 182 C-146.95576191 187.46518661 -142.79367787 192.82984593 -138.5859375 198.16943359 C-134.76857947 203.01580757 -130.9732595 207.8789087 -127.1875 212.75 C-126.60121826 213.5042627 -126.01493652 214.25852539 -125.41088867 215.03564453 C-123.0029811 218.13410079 -120.59574512 221.23307852 -118.18847656 224.33203125 C-110.48778415 234.24422591 -102.76558915 244.13856783 -95 254 C-93.22856386 256.24952634 -91.45764426 258.49945692 -89.6875 260.75 C-89.24849365 261.3080835 -88.8094873 261.86616699 -88.35717773 262.44116211 C-83.71555076 268.34936467 -79.10875498 274.28465939 -74.5065918 280.22363281 C-73.93465088 280.9606543 -73.36270996 281.69767578 -72.7734375 282.45703125 C-72.26216309 283.11678955 -71.75088867 283.77654785 -71.22412109 284.45629883 C-70.08573433 285.9524992 -70.08573433 285.9524992 -69 287 C-67.18254272 286.67249756 -67.18254272 286.67249756 -65.32836914 286.33837891 C-53.21425987 284.30684041 -53.21425987 284.30684041 -47.71160889 287.20544434 C-42.28563607 291.23975889 -37.89174192 296.32587768 -33.4375 301.375 C-32.05244928 302.86916218 -30.66249857 304.35879779 -29.26757812 305.84375 C-26.2276868 309.08716763 -23.23854582 312.36990918 -20.28953552 315.69613647 C-19.01130921 317.12828879 -19.01130921 317.12828879 -17 318 C-17 318.66 -17 319.32 -17 320 C-34.14893617 330.72340426 -34.14893617 330.72340426 -43 329 C-43.29132813 328.40832031 -43.58265625 327.81664062 -43.8828125 327.20703125 C-47.46561962 320.30055086 -51.27198899 315.42153307 -58.82421875 312.5078125 C-68.73308443 310.19515085 -76.73195006 312.15498933 -85.15234375 317.3203125 C-89.19490522 319.97253303 -89.19490522 319.97253303 -91.85571289 323.90681458 C-93.0023038 326.35910429 -94.07572093 328.08443983 -96 330 C-100.01008707 331.2173353 -103.94570094 331.04512394 -108.109375 330.96484375 C-109.36960983 330.97298599 -110.62984467 330.98112823 -111.92826843 330.98951721 C-114.71605895 331.0073686 -117.50228771 330.99992487 -120.29000854 330.97363281 C-124.84220305 330.93118292 -129.39326949 330.94421863 -133.94555664 330.96484375 C-139.87729181 330.98789598 -145.8087754 330.99655808 -151.74055195 330.99029732 C-165.18608514 330.97800121 -178.62943902 331.08806396 -192.07421875 331.22265625 C-193.19208519 331.23378386 -194.30995163 331.24491146 -195.46169281 331.25637627 C-200.01659553 331.30194942 -204.57149265 331.34801889 -209.12638092 331.39501476 C-217.12831741 331.47754662 -225.13029417 331.55384877 -233.13232422 331.62670898 C-256.88117458 331.84422137 -280.62873768 332.08137327 -304.375 332.5 C-305.46376434 332.51796631 -306.55252869 332.53593262 -307.67428589 332.55444336 C-310.64494732 332.60450372 -313.61543034 332.66031775 -316.5859375 332.71875 C-317.80481911 332.73905273 -317.80481911 332.73905273 -319.04832458 332.75976562 C-325.06206105 332.89137852 -331.01620847 333.39777555 -337 334 C-299.98439082 340.13063222 -262.94445853 346.09393148 -225.88450336 351.95019531 C-221.56229044 352.63324401 -217.24011253 353.31651388 -212.91796875 354 C-212.0848007 354.13174622 -211.25163265 354.26349243 -210.39321709 354.39923096 C-194.67434614 356.88567297 -178.96303341 359.41648757 -163.25927734 361.99682617 C-161.77051317 362.24140631 -160.28174392 362.48595555 -158.79296875 362.73046875 C-158.11717773 362.84150436 -157.44138672 362.95253998 -156.74511719 363.06694031 C-150.50346466 364.08869254 -144.25359604 365.05442737 -138 366 C-138 366.66 -138 367.32 -138 368 C-147.94718655 371.31572885 -156.98388131 369.535144 -167.14453125 367.83984375 C-168.53992291 367.61181496 -169.93540762 367.38435496 -171.33097839 367.15742493 C-175.05505923 366.55030996 -178.77783999 365.93554848 -182.50042725 365.3193512 C-186.3803719 364.67855756 -190.26152293 364.04515911 -194.14257812 363.41113281 C-200.29958586 362.40447761 -206.45597915 361.39415891 -212.61181641 360.38037109 C-222.23234669 358.79606541 -231.85514445 357.22582076 -241.47875977 355.66036987 C-243.99832428 355.25027275 -246.51773001 354.83921142 -249.03710938 354.42797852 C-262.55978369 352.22271466 -276.09115288 350.07345543 -289.62368774 347.92965698 C-302.35031883 345.91255477 -315.06690637 343.84667201 -327.77392578 341.70922852 C-336.73297599 340.20346878 -345.70002524 338.75356367 -354.67456055 337.34301758 C-361.13457692 336.32184469 -367.57016807 335.19655679 -374 334 C-373.67 333.34 -373.34 332.68 -373 332 C-370.75146484 331.50097656 -370.75146484 331.50097656 -367.7109375 331.140625 C-365.98580933 330.92575439 -365.98580933 330.92575439 -364.22583008 330.70654297 C-362.95505615 330.55588379 -361.68428223 330.40522461 -360.375 330.25 C-357.63582619 329.91055237 -354.89785771 329.56204747 -352.16015625 329.2109375 C-351.0688163 329.07155258 -351.0688163 329.07155258 -349.95542908 328.92935181 C-340.07227369 327.64737911 -330.23209914 326.06478565 -320.39251709 324.48693848 C-310.87599564 322.9613388 -301.38756948 321.67489662 -291.79612732 320.72122192 C-284.77096574 320.01030753 -277.83485024 318.94010635 -270.875 317.75 C-268.20873338 317.30724466 -265.5422483 316.86643288 -262.875 316.4296875 C-262.17688202 316.31525299 -261.47876404 316.20081848 -260.75949097 316.08291626 C-251.48071118 314.5741684 -242.17763918 313.22720001 -232.875 311.875 C-231.98141785 311.7450061 -231.08783569 311.61501221 -230.16717529 311.4810791 C-220.20144076 310.03271209 -210.23405664 308.59570023 -200.26318359 307.18310547 C-189.75050379 305.68927753 -179.24633014 304.1361981 -168.74047852 302.59524536 C-159.16291368 301.19056574 -149.58532283 299.78843804 -140 298.4375 C-129.61893058 296.97226398 -119.25611467 295.38419624 -108.89257812 293.80053711 C-106.22195623 293.3925449 -103.55090545 292.98757818 -100.87939453 292.58544922 C-98.30655228 292.1971751 -95.73458883 291.80302942 -93.16357422 291.40283203 C-87.0377652 290.47551944 -81.19661297 289.75213548 -75 290 C-75.63164062 289.19820313 -76.26328125 288.39640625 -76.9140625 287.5703125 C-82.90374693 279.96031829 -88.86277032 272.32713839 -94.80297852 264.6784668 C-98.37259643 260.08463825 -101.95948575 255.50515808 -105.5625 250.9375 C-111.79622019 243.02564676 -117.89502262 235.01131744 -124 227 C-130.61137517 218.32718489 -137.23979687 209.6689088 -143.9375 201.0625 C-144.51806152 200.31621338 -145.09862305 199.56992676 -145.69677734 198.80102539 C-148.63585928 195.02609881 -151.58218166 191.25709596 -154.5390625 187.49609375 C-162.6300101 177.1838824 -170.39978058 166.67832149 -178 156 C-178.95679235 154.65998564 -179.91380824 153.32013085 -180.87109375 151.98046875 C-181.92490234 150.50513672 -181.92490234 150.50513672 -183 149 C-178.88146844 149 -177.77262966 150.62814496 -174.6875 153.3125 C-173.60706958 154.24014899 -172.52497278 155.16585992 -171.44140625 156.08984375 C-170.87695801 156.57179199 -170.31250977 157.05374023 -169.73095703 157.55029297 C-166.92236073 159.90254189 -164.02246859 162.13392246 -161.125 164.375 C-155.60024224 168.66956714 -150.26315355 173.14559959 -144.97363281 177.72558594 C-140.88920182 181.25713287 -136.72452514 184.66293676 -132.48828125 188.01171875 C-128.61027562 191.1104705 -124.81550805 194.30774646 -121.0078125 197.4921875 C-116.36627221 201.36214706 -111.68227905 205.17953173 -107 209 C-105.27072468 210.41653404 -103.54155996 211.8332031 -101.8125 213.25 C-97.21691997 217.0106177 -92.60967711 220.75669404 -88 224.5 C-86.61716214 225.62366671 -85.2343492 226.74736409 -83.8515625 227.87109375 C-81.57710942 229.7194341 -79.30116875 231.56585155 -77.0234375 233.41015625 C-71.18704673 238.15329978 -65.45412062 243.00519347 -59.76904297 247.92797852 C-59.20717285 248.41322998 -58.64530273 248.89848145 -58.06640625 249.3984375 C-57.57084229 249.82817871 -57.07527832 250.25791992 -56.56469727 250.70068359 C-54.75746117 252.20140297 -52.88842129 253.60337899 -51 255 C-50.87471924 254.30777344 -50.74943848 253.61554688 -50.62036133 252.90234375 C-50.02092808 249.60097534 -49.41669008 246.30050105 -48.8125 243 C-48.61591797 241.91332031 -48.41933594 240.82664062 -48.21679688 239.70703125 C-46.81090766 232.05034231 -45.26920447 224.43037923 -43.66796875 216.8125 C-40.81496781 203.23358515 -38.15291951 189.61918653 -35.5 176 C-32.47335121 160.46221445 -29.39028573 144.94109555 -26.13867188 129.44873047 C-24.54127926 121.83017895 -23.01716 114.19735521 -21.5 106.5625 C-21.04886604 104.29711573 -20.59747938 102.0317819 -20.14608765 99.76644897 C-19.84828394 98.27170459 -19.55061299 96.77693375 -19.25308228 95.28213501 C-18.38127907 90.90414131 -17.50254404 86.52762189 -16.6171875 82.15234375 C-14.48000987 71.57611787 -12.43402828 60.99038268 -10.5 50.375 C-8.42771674 39.02061465 -6.06855065 27.74881005 -3.55224609 16.48535156 C-2.74414684 12.84854765 -1.96510889 9.20594447 -1.1875 5.5625 C-0.95417969 4.47066406 -0.72085937 3.37882813 -0.48046875 2.25390625 C-0.32191406 1.51011719 -0.16335938 0.76632813 0 0 Z " fill="#060606" transform="translate(511,163)"/>
<path d="M0 0 C-0.44670292 9.18024626 -2.04900937 18.00089606 -3.92294312 26.97113037 C-4.83509246 31.34323675 -5.72180875 35.72050406 -6.609375 40.09765625 C-6.80021164 41.03714111 -6.99104828 41.97662598 -7.18766785 42.94458008 C-9.63767668 55.06565645 -11.90914758 67.22071649 -14.1875 79.375 C-14.39124237 80.46183075 -14.59498474 81.5486615 -14.80490112 82.66842651 C-15.00455475 83.73360504 -15.20420837 84.79878357 -15.40991211 85.89624023 C-15.80840545 88.02197744 -16.20692416 90.1477099 -16.60546875 92.2734375 C-16.80207596 93.3226236 -16.99868317 94.37180969 -17.20124817 95.45278931 C-18.81615913 104.05598284 -20.466944 112.65203898 -22.12458801 121.24708557 C-24.19538245 131.99295351 -26.2265438 142.74615827 -28.25140381 153.50076294 C-28.89508216 156.91915049 -29.53948914 160.33740002 -30.18408203 163.75561523 C-31.81512278 172.40524875 -33.44562572 181.05498338 -35.07421875 189.70507812 C-41.63918982 224.57169188 -41.63918982 224.57169188 -45 241 C-46.64484014 238.02648643 -47.44902555 235.37840513 -48.04296875 232.0390625 C-48.22577393 231.03101563 -48.4085791 230.02296875 -48.59692383 228.984375 C-48.79181396 227.87578125 -48.9867041 226.7671875 -49.1875 225.625 C-49.63261487 223.15881849 -50.07793912 220.69267476 -50.5234375 218.2265625 C-50.76410203 216.88315676 -51.00465947 215.53973183 -51.24511719 214.19628906 C-52.43165075 207.58249903 -53.65579712 200.97559949 -54.87564087 194.3678894 C-55.31849837 191.96748728 -55.76032901 189.56689808 -56.2019043 187.16625977 C-57.78402018 178.56845726 -59.3754486 169.97246388 -60.98046875 161.37890625 C-64.3304576 143.43942898 -67.65047946 125.49618098 -70.85583496 107.53024292 C-73.80792054 90.98678107 -76.84315691 74.45892286 -79.89233398 57.93310547 C-80.9330963 52.2896246 -81.96967925 46.64539683 -83 41 C-83.15670166 40.14144409 -83.31340332 39.28288818 -83.47485352 38.39831543 C-83.90841063 36.01351955 -84.33790492 33.62803634 -84.765625 31.2421875 C-84.95581207 30.19673264 -84.95581207 30.19673264 -85.14984131 29.13015747 C-85.64063722 26.36909234 -86 23.81197499 -86 21 C-85.07960938 20.97421875 -84.15921875 20.9484375 -83.2109375 20.921875 C-69.41558301 20.30375321 -58.71501179 16.77955081 -46 11 C-45.67 76.67 -45.34 142.34 -45 210 C-43.02 197.625 -43.02 197.625 -41 185 C-38.34227114 171.46622539 -38.34227114 171.46622539 -37.30761719 166.45166016 C-35.9271634 159.69152338 -34.63200194 152.91642184 -33.3515625 146.13671875 C-33.13028183 144.96608383 -32.90900116 143.79544891 -32.68101501 142.58934021 C-32.22747772 140.18729202 -31.7743523 137.78516603 -31.32162476 135.38296509 C-30.12270299 129.02290755 -28.91898221 122.66375915 -27.71484375 116.3046875 C-27.36106407 114.43623924 -27.36106407 114.43623924 -27.00013733 112.53004456 C-25.08993622 102.45216205 -23.15243317 92.37984514 -21.1875 82.3125 C-21.04911713 81.60326385 -20.91073425 80.89402771 -20.76815796 80.16329956 C-20.10208096 76.7508029 -19.43510886 73.33848209 -18.76757812 69.92626953 C-17.73770457 64.66052541 -16.71198382 59.39397859 -15.68994141 54.12670898 C-15.19622191 51.58298027 -14.70115007 49.03951359 -14.20458984 46.49633789 C-12.88259021 39.69349267 -11.6133828 32.88511431 -10.3984375 26.0625 C-9.9989478 23.84424316 -9.59860939 21.62614109 -9.19802856 19.40808105 C-8.82047503 17.294642 -8.45589566 15.1792262 -8.09155273 13.06347656 C-7.86153564 11.78956055 -7.63151855 10.51564453 -7.39453125 9.203125 C-7.19706299 8.07551758 -6.99959473 6.94791016 -6.79614258 5.78613281 C-5.58661817 1.55335373 -4.48408337 0 0 0 Z " fill="#050505" transform="translate(557,595)"/>
<path d="M0 0 C2.51385633 0.92965253 3.48055952 1.9648149 5.1953125 4.015625 C5.79730469 4.73492188 6.39929688 5.45421875 7.01953125 6.1953125 C10.26958205 10.26870951 13.44359071 14.39816807 16.6015625 18.54296875 C19.33025669 22.11860763 22.14021749 25.625572 24.9609375 29.12890625 C26.95270305 31.61861318 28.92190581 34.12427851 30.88574219 36.63598633 C37.03927815 44.50528578 43.32664633 52.26039356 49.63671875 60.00439453 C54.90426393 66.47579626 60.06019382 73.02473527 65.13378906 79.64892578 C68.85039994 84.49649308 72.61937542 89.30174085 76.40356445 94.09667969 C78.66181629 96.96055931 80.89920522 99.83498844 83.0703125 102.765625 C82.7403125 103.425625 82.4103125 104.085625 82.0703125 104.765625 C81.60882812 104.40436523 81.14734375 104.04310547 80.671875 103.67089844 C72.52392702 97.29826916 64.36571889 90.94565019 56.0703125 84.765625 C48.07611423 78.80530042 40.20928168 72.68771317 32.35253906 66.54785156 C28.59635192 63.61458604 24.83305416 60.69047442 21.0703125 57.765625 C16.55674595 54.25627185 12.04406418 50.74580627 7.53515625 47.23046875 C0.10975372 41.44351655 -7.32853894 35.67442737 -14.8046875 29.953125 C-15.50271484 29.4183252 -16.20074219 28.88352539 -16.91992188 28.33251953 C-20.14605107 25.8670535 -23.38357059 23.42153735 -26.66015625 21.0234375 C-27.22686035 20.60682861 -27.79356445 20.19021973 -28.37744141 19.76098633 C-29.88156923 18.65915698 -31.39172699 17.56557227 -32.90234375 16.47265625 C-33.57136719 15.90933594 -34.24039063 15.34601562 -34.9296875 14.765625 C-34.9296875 14.105625 -34.9296875 13.445625 -34.9296875 12.765625 C-32.68304488 11.44707405 -30.43271444 10.13568528 -28.1796875 8.828125 C-27.54546875 8.45494141 -26.91125 8.08175781 -26.2578125 7.69726562 C-19.95034717 4.05076223 -19.95034717 4.05076223 -16.9296875 3.765625 C-15.12234497 4.97842407 -15.12234497 4.97842407 -13.26611328 6.87744141 C-12.56503448 7.58212555 -11.86395569 8.28680969 -11.14163208 9.0128479 C-10.39364349 9.78977997 -9.64565491 10.56671204 -8.875 11.3671875 C-8.09583221 12.1558017 -7.31666443 12.94441589 -6.5138855 13.75692749 C-4.01548861 16.29001436 -1.53470086 18.83954833 0.9453125 21.390625 C3.42146233 23.91684669 5.90111472 26.43955176 8.38308716 28.96005249 C9.9276612 30.53087427 11.46828142 32.10559647 13.00436401 33.6847229 C16.86530302 37.63415882 20.7683359 41.30278558 25.0703125 44.765625 C29.0121676 48.50001405 32.55617203 52.55225552 36.1484375 56.6171875 C39.54263721 60.41151645 42.97404547 63.75366395 47.0703125 66.765625 C46.32007813 65.90582031 45.56984375 65.04601562 44.796875 64.16015625 C39.31258552 57.83955548 33.9760225 51.46956885 28.92553711 44.79516602 C25.63129126 40.45502471 22.21281321 36.22853988 18.7578125 32.015625 C12.43210496 24.28975713 6.33515571 16.39876709 0.32714844 8.42382812 C-0.69756752 7.07187188 -1.74413003 5.73649679 -2.796875 4.40625 C-3.9296875 2.765625 -3.9296875 2.765625 -3.9296875 0.765625 C-1.9296875 -0.234375 -1.9296875 -0.234375 0 0 Z " fill="#070707" transform="translate(611.9296875,574.234375)"/>
<path d="M0 0 C4.95637498 2.96609575 8.13039635 7.27320178 11.00390625 12.19921875 C13.32329375 21.49212891 12.42286707 29.72954385 8.00390625 38.19921875 C4.76162826 43.5258183 -0.11274572 46.05705757 -5.98828125 47.78515625 C-13.04076183 49.23955886 -18.44846825 48.21833646 -24.76171875 44.7578125 C-29.60044894 41.38254442 -32.17608152 36.73047332 -33.99609375 31.19921875 C-34.85108346 22.50019557 -34.82448465 13.7826327 -29.99609375 6.19921875 C-21.92205304 -3.19384841 -10.95296853 -5.42886266 0 0 Z " fill="#F8F8F8" transform="translate(950.99609375,475.80078125)"/>
<path d="M0 0 C5.94 0 11.88 0 18 0 C17.67 1.32 17.34 2.64 17 4 C15.68 4 14.36 4 13 4 C15.64 13.24 18.28 22.48 21 32 C23.97 21.77 26.94 11.54 30 1 C31.65 0.67 33.3 0.34 35 0 C37.65152394 6.72263302 39.69809411 13.55576901 41.6875 20.5 C42.00783203 21.60859375 42.32816406 22.7171875 42.65820312 23.859375 C43.44162432 26.57211706 44.2221479 29.28565685 45 32 C46.72816155 26.98510129 48.20018204 21.91947832 49.625 16.8125 C49.85445312 16.00619141 50.08390625 15.19988281 50.3203125 14.36914062 C50.536875 13.59376953 50.7534375 12.81839844 50.9765625 12.01953125 C51.17330566 11.31932861 51.37004883 10.61912598 51.57275391 9.89770508 C52.10982031 7.83641046 52.10982031 7.83641046 52 5 C50.68 4.67 49.36 4.34 48 4 C48 2.68 48 1.36 48 0 C52.95 0 57.9 0 63 0 C62.67 1.32 62.34 2.64 62 4 C61.36586182 4.27207275 60.73172363 4.54414551 60.07836914 4.82446289 C57.68250957 5.89744275 57.68250957 5.89744275 56.76733398 8.98999023 C56.43032471 10.25012939 56.09331543 11.51026855 55.74609375 12.80859375 C55.55910416 13.48994888 55.37211456 14.17130402 55.17945862 14.87330627 C54.58371871 17.05761327 54.0103467 19.24709039 53.4375 21.4375 C53.0489947 22.87735021 52.6590352 24.31680887 52.26757812 25.75585938 C51.33353268 29.20130787 50.4163542 32.65096502 49.50408936 36.10223389 C48.36036911 40.40804495 47.17834351 44.70356057 46 49 C44.35 49 42.7 49 41 49 C38.7408436 44.05688857 37.1678301 39.28586263 35.9375 34 C35.61445649 32.64555249 35.29024607 31.29138275 34.96484375 29.9375 C34.80870605 29.28136719 34.65256836 28.62523437 34.49169922 27.94921875 C34.00879022 26.03484663 33.44442092 24.141617 32.87890625 22.25 C32 19 32 19 32 15 C31.34 15 30.68 15 30 15 C29.86078125 16.33611328 29.86078125 16.33611328 29.71875 17.69921875 C28.88412034 23.53427928 27.11439478 29.15563474 25.5 34.8125 C25.01853516 36.52856445 25.01853516 36.52856445 24.52734375 38.27929688 C22.14318665 46.7136267 22.14318665 46.7136267 21 49 C19.35 49 17.7 49 16 49 C15.6146106 47.57905029 15.6146106 47.57905029 15.22143555 46.12939453 C14.25548704 42.5692976 13.28778107 39.00968026 12.31958008 35.45019531 C11.90309495 33.9180963 11.4870681 32.38587263 11.0715332 30.85351562 C9.89858494 26.52871001 8.71265017 22.20781862 7.51507568 17.88977051 C7.05112913 16.18758858 6.61304916 14.47840721 6.17822266 12.76855469 C5.94022949 11.87297852 5.70223633 10.97740234 5.45703125 10.0546875 C5.26729736 9.30429199 5.07756348 8.55389648 4.88208008 7.78076172 C3.71861431 5.43193268 2.39044759 4.93490072 0 4 C0 2.68 0 1.36 0 0 Z " fill="#0F0F0F" transform="translate(61,474)"/>
<path d="M0 0 C4.01475509 3.2459722 7.58859515 6.56002086 11 10.4375 C15.61457748 15.67845484 20.5217838 20.58334916 25.5078125 25.47045898 C28.55696991 28.47802963 31.49100703 31.52141665 34.27514648 34.77734375 C37.76699957 38.78990265 41.45150717 42.54882945 45.24609375 46.2734375 C46.5906205 47.60534186 47.93501799 48.93737672 49.27929688 50.26953125 C51.37339655 52.33863931 53.46908677 54.40609068 55.56713867 56.47119141 C57.61026514 58.48430318 59.64728047 60.50343772 61.68359375 62.5234375 C62.31784775 63.14423187 62.95210175 63.76502625 63.60557556 64.40463257 C65.10863494 65.8989061 66.55996673 67.44489709 68 69 C68 69.66 68 70.32 68 71 C68.66 71 69.32 71 70 71 C71.40356445 72.42700195 71.40356445 72.42700195 73.05078125 74.42578125 C77.17811672 79.28002376 81.64725223 83.72211204 86.1875 88.1875 C90.71220286 92.63869022 95.08303838 96.99445351 99 102 C99.66 102.33 100.32 102.66 101 103 C101.495 101.515 101.495 101.515 102 100 C102 101.65 102 103.3 102 105 C98.00893248 105.73398943 94.01106703 106.38523847 90 107 C88.741875 107.20625 87.48375 107.4125 86.1875 107.625 C81.02637373 106.61301446 79.04525391 103.07879463 76 99 C74.83523364 97.49958913 73.67045311 95.99918921 72.50537109 94.49902344 C71.21865465 92.83444977 69.94235193 91.16231176 68.66796875 89.48828125 C65.99836302 85.98743281 63.28640306 82.52119417 60.5625 79.0625 C60.10302979 78.47871582 59.64355957 77.89493164 59.17016602 77.29345703 C57.78057926 75.5286017 56.39032962 73.76427015 55 72 C44.93313881 59.21885305 34.90958777 46.40361757 25 33.5 C20.92729034 28.20008312 16.84437449 22.90820231 12.75 17.625 C12.17121094 16.87541016 11.59242188 16.12582031 10.99609375 15.35351562 C7.81348256 11.25270281 4.55691864 7.27495385 1.07519531 3.42333984 C0 2 0 2 0 0 Z " fill="#F6F6F5" transform="translate(359,344)"/>
<path d="M0 0 C1.23395508 0.03609375 2.46791016 0.0721875 3.73925781 0.109375 C5.26124576 0.18395094 6.78304338 0.26246016 8.3046875 0.34375 C9.22600464 0.39015625 10.14732178 0.4365625 11.09655762 0.484375 C18.79456125 0.88116333 26.48687522 1.35799112 34.1796875 1.84375 C36.52471541 1.98867292 38.86976736 2.13320735 41.21484375 2.27734375 C46.9117433 2.62833342 52.60832721 2.98411986 58.3046875 3.34375 C58.3046875 4.00375 58.3046875 4.66375 58.3046875 5.34375 C54.07579528 6.0537274 49.84654057 6.7615233 45.6171875 7.46875 C44.95022858 7.58045532 44.28326965 7.69216064 43.59609985 7.80725098 C35.66781551 9.13430738 27.73710858 10.44157643 19.796875 11.6953125 C-0.47487157 14.9060865 -20.66293478 18.47344052 -40.83325195 22.27246094 C-51.42865838 24.25882268 -61.98507253 26.09369232 -72.6953125 27.34375 C-70.1089727 24.67838053 -67.36117136 22.60984788 -64.3203125 20.46875 C-61.20043865 18.25081077 -58.37107101 16.19373619 -55.8828125 13.28125 C-53.6953125 11.34375 -53.6953125 11.34375 -50.6328125 11.46875 C-49.6634375 11.7575 -48.6940625 12.04625 -47.6953125 12.34375 C-35.44866092 15.92750699 -24.78175122 11.60972925 -13.96484375 6.1953125 C-10.70636416 4.50212703 -10.70636416 4.50212703 -8.34692383 2.24951172 C-5.19373584 -0.01674235 -3.83688842 -0.12513593 0 0 Z " fill="#090909" transform="translate(840.6953125,497.65625)"/>
<path d="M0 0 C13.99127325 1.85386062 27.94194049 3.87679846 41.875 6.125 C43.74499919 6.4246264 45.61503628 6.72401637 47.48510742 7.02319336 C57.11617609 8.56553103 66.74529419 10.11999747 76.3747406 11.67242432 C81.15137083 12.44239336 85.92807319 13.21191409 90.70480347 13.98126221 C93.11038223 14.3688262 95.51592016 14.75664369 97.92141724 15.14471436 C113.83250614 17.71089258 129.75271141 20.20109687 145.68844604 22.60900879 C157.0384849 24.32892347 168.32970162 26.24547937 179.59887695 28.44042969 C185.39548822 29.56421898 191.12134273 30.43404231 197 31 C197 31.66 197 32.32 197 33 C187.05281345 36.31572885 178.01611869 34.535144 167.85546875 32.83984375 C166.46007709 32.61181496 165.06459238 32.38435496 163.66902161 32.15742493 C159.94494077 31.55030996 156.22216001 30.93554848 152.49957275 30.3193512 C148.6196281 29.67855756 144.73847707 29.04515911 140.85742188 28.41113281 C134.70041414 27.40447761 128.54402085 26.39415891 122.38818359 25.38037109 C112.76765331 23.79606541 103.14485555 22.22582076 93.52124023 20.66036987 C91.00167572 20.25027275 88.48226999 19.83921142 85.96289062 19.42797852 C72.44860529 17.22408273 58.92565926 15.07596527 45.40148926 12.9336853 C29.25302239 10.3745042 13.12077999 7.72827927 -3 5 C-1.68 4.01 -0.36 3.02 1 2 C0.67 1.34 0.34 0.68 0 0 Z " fill="#111111" transform="translate(176,498)"/>
<path d="M0 0 C4.95637498 2.96609575 8.13039635 7.27320178 11.00390625 12.19921875 C13.32329375 21.49212891 12.42286707 29.72954385 8.00390625 38.19921875 C4.76162826 43.5258183 -0.11274572 46.05705757 -5.98828125 47.78515625 C-13.04076183 49.23955886 -18.44846825 48.21833646 -24.76171875 44.7578125 C-29.60044894 41.38254442 -32.17608152 36.73047332 -33.99609375 31.19921875 C-34.85108346 22.50019557 -34.82448465 13.7826327 -29.99609375 6.19921875 C-21.92205304 -3.19384841 -10.95296853 -5.42886266 0 0 Z M-20.99609375 6.19921875 C-25.85080476 13.58682246 -26.04535626 21.46055993 -24.48828125 29.9765625 C-23.04165812 35.50532332 -21.03446501 39.16084749 -16.99609375 43.19921875 C-13.88655996 44.75398565 -11.43342614 44.48566312 -7.99609375 44.19921875 C-3.0829057 41.74262473 -1.00507604 39.27454243 1.00390625 34.19921875 C3.53158781 26.34727177 3.33009523 15.81334434 -0.24609375 8.38671875 C-2.03803683 5.17338873 -3.84672998 3.13043238 -6.99609375 1.19921875 C-13.15232785 0.40486596 -16.97640938 1.13298933 -20.99609375 6.19921875 Z " fill="#0B0C0B" transform="translate(950.99609375,475.80078125)"/>
<path d="M0 0 C4.90272184 -0.87635544 9.12090355 -1.11283197 14 0 C18.44248454 3.93852729 21.202879 8.66742601 24.1875 13.75 C25.00905701 15.06799204 25.83520002 16.38313707 26.66601562 17.6953125 C28.1858393 20.10565442 29.67523516 22.52992112 31.13745117 24.97558594 C33.08178866 28.23598171 33.08178866 28.23598171 36 32 C36 23.09 36 14.18 36 5 C34.68 4.34 33.36 3.68 32 3 C32 2.01 32 1.02 32 0 C36.95 0 41.9 0 47 0 C47 0.99 47 1.98 47 3 C45.68 3.33 44.36 3.66 43 4 C42.67 18.52 42.34 33.04 42 48 C40.02 48 38.04 48 36 48 C34.14467032 45.90322331 32.89059656 44.13254539 31.5 41.75 C30.65036607 40.38470298 29.79729897 39.02153842 28.94140625 37.66015625 C28.48008301 36.91781738 28.01875977 36.17547852 27.54345703 35.41064453 C24.65633279 30.90139671 21.53184627 26.55589598 18.4375 22.1875 C17.22651155 20.47361147 16.016779 18.75883452 14.80859375 17.04296875 C14.29095459 16.31102295 13.77331543 15.57907715 13.23999023 14.82495117 C12 13 12 13 11 11 C11 21.56 11 32.12 11 43 C12.65 43.66 14.3 44.32 16 45 C16 45.99 16 46.98 16 48 C10.72 48 5.44 48 0 48 C0 47.01 0 46.02 0 45 C2.475 44.505 2.475 44.505 5 44 C5 31.13 5 18.26 5 5 C2.525 4.01 2.525 4.01 0 3 C0 2.01 0 1.02 0 0 Z " fill="#0C0C0C" transform="translate(489,102)"/>
<path d="M0 0 C0 4.29 0 8.58 0 13 C-1.65 13 -3.3 13 -5 13 C-5.66 10.03 -6.32 7.06 -7 4 C-8.77049689 3.94589313 -10.54146849 3.90715881 -12.3125 3.875 C-13.29863281 3.85179687 -14.28476562 3.82859375 -15.30078125 3.8046875 C-18.22406527 3.79317361 -18.22406527 3.79317361 -21 6 C-21.75128096 10.09801084 -21.75128096 10.09801084 -21 14 C-18.70048723 16.33145045 -15.92468059 17.58114087 -13 19 C-0.07702826 25.64813127 -0.07702826 25.64813127 2 30 C2.63958641 34.59893083 2.59480572 38.55994404 0.8125 42.875 C-3.51588241 47.94965524 -7.80032314 50.62771138 -14.51171875 51.22265625 C-20.99834995 51.43073508 -25.9736483 50.37102362 -32 48 C-32 43.38 -32 38.76 -32 34 C-30.35 34 -28.7 34 -27 34 C-26.34 37.3 -25.68 40.6 -25 44 C-20.08341117 45.22914721 -15.4128606 45.86615509 -10.5625 44.125 C-8.84106726 43.06925899 -8.84106726 43.06925899 -8 41 C-7.51604468 36.67162761 -7.51604468 36.67162761 -9.5859375 33.015625 C-12.96905818 30.19088346 -16.77724539 28.5688228 -20.77929688 26.8203125 C-25.58460028 24.58094781 -28.08933997 22.32533838 -31 18 C-32.03240763 13.67603392 -31.98645398 9.15542368 -30.11328125 5.0625 C-22.66149686 -4.84020351 -10.41552205 -2.68787666 0 0 Z " fill="#0D0D0D" transform="translate(527,856)"/>
<path d="M0 0 C2.1875 0.8125 2.1875 0.8125 3.1875 1.8125 C4.51012031 16.89037153 -1.67607142 33.00141746 -10.8125 44.8125 C-14.03396713 47.95539476 -16.33241179 49.30048992 -20.8125 49.8125 C-24.00678409 45.55345454 -24.41399371 41.95956759 -23.8125 36.8125 C-21.92171182 24.37407974 -15.86561271 9.51501666 -5.875 1.4375 C-2.8125 -0.1875 -2.8125 -0.1875 0 0 Z " fill="#F7F7F7" transform="translate(836.8125,420.1875)"/>
<path d="M0 0 C2.86564017 5.73128035 0.30808585 12.02995066 -1.55078125 17.70703125 C-1.90527344 18.75246094 -2.25976562 19.79789062 -2.625 20.875 C-2.95628906 21.91269531 -3.28757812 22.95039063 -3.62890625 24.01953125 C-6.7108746 33.24217617 -10.80440989 41.42002376 -19 47 C-21.875 47.8125 -21.875 47.8125 -24 48 C-27.2876805 43.06847925 -26.50305956 37.76289748 -26 32 C-23.40225569 19.78904619 -17.45267256 7.2087397 -7 0 C-4.30234372 -1.34882814 -2.84835666 -0.80338265 0 0 Z " fill="#F8F8F8" transform="translate(650,479)"/>
<path d="M0 0 C2.68761974 1.64856157 3.55275731 3.22095119 4.80859375 6.109375 C5.56559153 12.59792741 4.25864638 17.5468286 0.80859375 23.109375 C-3.4914581 27.96313216 -8.31237775 30.14620875 -14.69140625 30.546875 C-18.47393601 30.48383284 -19.06859094 30.20916244 -22.19140625 27.671875 C-22.85140625 26.82625 -23.51140625 25.980625 -24.19140625 25.109375 C-24.52140625 24.779375 -24.85140625 24.449375 -25.19140625 24.109375 C-25.98618007 17.91215128 -26.01198653 12.50790736 -22.62890625 7.109375 C-16.989513 -0.13376179 -9.0470346 -3.67686968 0 0 Z " fill="#050505" transform="translate(450.19140625,488.890625)"/>
<path d="M0 0 C7.09124647 10.63686971 3.95701006 31.36609098 1.6875 43.4375 C1.17066748 45.97249825 0.59465949 48.48095632 0 51 C-0.2165625 52.04542969 -0.433125 53.09085938 -0.65625 54.16796875 C-2.80145463 63.83415864 -6.0026169 75.78352075 -13 83 C-13.99 83 -14.98 83 -16 83 C-14.91031103 55.59432242 -8.96263506 25.94031379 0 0 Z " fill="#F2F2F2" transform="translate(223,641)"/>
<path d="M0 0 C4.04906285 1.34968762 5.70635258 4.0903997 8.1875 7.375 C8.65091797 7.96539063 9.11433594 8.55578125 9.59179688 9.1640625 C13 13.62132962 13 13.62132962 13 17 C11.98421875 17.49628906 10.9684375 17.99257813 9.921875 18.50390625 C1.40676884 22.69506474 -6.87874884 27.0780296 -15 32 C-13.48593614 26.83101856 -11.1943662 22.3838146 -8.625 17.6875 C-5.49450819 11.88105353 -2.54736071 6.09151475 0 0 Z " fill="#F2F2F2" transform="translate(480,547)"/>
<path d="M0 0 C0.68744251 6.87442515 -1.89321479 11.3455306 -6.05859375 16.59375 C-9.98488581 21.09607479 -13.70773706 25.16024915 -19 28 C-19.66 28 -20.32 28 -21 28 C-19.19239859 16.97363139 -14.05808727 7.76733154 -6 0 C-3.50907189 -1.24546405 -2.58919267 -0.7767578 0 0 Z " fill="#F3F3F3" transform="translate(379,564)"/>
<path d="M0 0 C0.33 0 0.66 0 1 0 C1 62.37 1 124.74 1 189 C1.66 189 2.32 189 3 189 C2.34 193.62 1.68 198.24 1 203 C0.67 203 0.34 203 0 203 C0 136.01 0 69.02 0 0 Z " fill="#BDBDBD" transform="translate(511,606)"/>
<path d="M0 0 C5.01572286 4.05526529 9.25038409 8.41850578 13.51171875 13.25390625 C17.82575509 18.01492281 22.41976509 22.49681577 27 27 C25.68 28.32 24.36 29.64 23 31 C22.65855957 30.54786133 22.31711914 30.09572266 21.96533203 29.62988281 C15.42028769 20.97770695 8.83033456 12.42870147 1.73046875 4.22265625 C0 2 0 2 0 0 Z " fill="#E5E4E2" transform="translate(359,344)"/>
<path d="M0 0 C3.30827953 3.22730766 6.35039733 6.52734483 9.25 10.125 C10.01699219 11.07246094 10.78398438 12.01992188 11.57421875 12.99609375 C12.77498047 14.48302734 12.77498047 14.48302734 14 16 C15.68437858 18.06507241 17.37353788 20.12616828 19.0625 22.1875 C20.375 23.79166667 21.6875 25.39583333 23 27 C22.67 27.66 22.34 28.32 22 29 C20.82737096 27.88121617 19.66204862 26.75476949 18.5 25.625 C17.8503125 24.99851562 17.200625 24.37203125 16.53125 23.7265625 C15 22 15 22 15 20 C14.41089844 19.74863281 13.82179688 19.49726562 13.21484375 19.23828125 C10.72355798 17.84544599 9.37699586 16.3791428 7.5625 14.1875 C5.49377161 11.72196811 3.43986385 9.41799373 1.0625 7.25 C-1 5 -1 5 -1 1 C-0.67 0.67 -0.34 0.34 0 0 Z " fill="#EAEAEA" transform="translate(637,614)"/>
<path d="M0 0 C5.33333333 2.66666667 10.66666667 5.33333333 16 8 C13.79344925 8.50780894 11.58466395 9.00591365 9.375 9.5 C8.14523437 9.7784375 6.91546875 10.056875 5.6484375 10.34375 C2.32847772 10.94091621 -0.63908451 11.12409534 -4 11 C-2.68 7.37 -1.36 3.74 0 0 Z " fill="#101010" transform="translate(731,520)"/>
<path d="M0 0 C0.33 0.66 0.66 1.32 1 2 C-0.72391843 5.5385694 -2.48430678 8.13875065 -6 10 C-8.75 9.6875 -8.75 9.6875 -11 9 C-9.55613418 5.28720216 -7.87763608 4.0513557 -4.375 2.25 C-3.55773437 1.82203125 -2.74046875 1.3940625 -1.8984375 0.953125 C-0.95871094 0.48132813 -0.95871094 0.48132813 0 0 Z " fill="#E3E4E3" transform="translate(494,574)"/>
<path d="M0 0 C6.12329055 4.95074555 13.43322076 10.86644151 17 18 C16.01 18.33 15.02 18.66 14 19 C13.40832031 18.27554687 12.81664062 17.55109375 12.20703125 16.8046875 C11.02173828 15.35449219 11.02173828 15.35449219 9.8125 13.875 C8.99523437 12.87339844 8.17796875 11.87179687 7.3359375 10.83984375 C5.56066256 8.68160817 3.76278025 6.55292595 1.9375 4.4375 C0 2 0 2 0 0 Z " fill="#EAE9E9" transform="translate(359,344)"/>
<path d="M0 0 C0.33 0 0.66 0 1 0 C1 8.91 1 17.82 1 27 C0.67 27 0.34 27 0 27 C-0.06058594 26.25234375 -0.12117188 25.5046875 -0.18359375 24.734375 C-0.26738281 23.74953125 -0.35117187 22.7646875 -0.4375 21.75 C-0.51871094 20.77546875 -0.59992188 19.8009375 -0.68359375 18.796875 C-0.90307161 16.10858772 -0.90307161 16.10858772 -1.59375 14.03125 C-2.17725892 11.11370539 -1.60043265 8.66116492 -1.0625 5.75 C-0.86785156 4.67234375 -0.67320312 3.5946875 -0.47265625 2.484375 C-0.31667969 1.66453125 -0.16070312 0.8446875 0 0 Z " fill="#DCDCDC" transform="translate(510,191)"/>
<path d="M0 0 C0.66 0.33 1.32 0.66 2 1 C-0.06867563 3.20319933 -2.15281794 5.38672975 -4.25 7.5625 C-5.12978516 8.50512695 -5.12978516 8.50512695 -6.02734375 9.46679688 C-6.60097656 10.05654297 -7.17460938 10.64628906 -7.765625 11.25390625 C-8.28930664 11.80377197 -8.81298828 12.3536377 -9.35253906 12.92016602 C-11 14 -11 14 -13.20214844 13.67163086 C-13.79543945 13.44999268 -14.38873047 13.22835449 -15 13 C-14.08476563 12.22914063 -13.16953125 11.45828125 -12.2265625 10.6640625 C-11.02600156 9.6510892 -9.82548292 8.63806576 -8.625 7.625 C-7.72007812 6.86316406 -7.72007812 6.86316406 -6.796875 6.0859375 C-6.21679688 5.59609375 -5.63671875 5.10625 -5.0390625 4.6015625 C-4.50490723 4.15119629 -3.97075195 3.70083008 -3.42041016 3.23681641 C-2.23658322 2.20600388 -1.10995961 1.10995961 0 0 Z " fill="#D4D3D4" transform="translate(659,347)"/>
<path d="M0 0 C3.21422633 0.28751107 4.09344717 1.09917158 6.359375 3.50390625 C7.14828125 4.51324219 7.9371875 5.52257812 8.75 6.5625 C9.54921875 7.57441406 10.3484375 8.58632813 11.171875 9.62890625 C11.77515625 10.41136719 12.3784375 11.19382812 13 12 C12.67 12.66 12.34 13.32 12 14 C10.82737096 12.88121617 9.66204862 11.75476949 8.5 10.625 C7.52546875 9.68527344 7.52546875 9.68527344 6.53125 8.7265625 C5 7 5 7 5 5 C4.360625 4.731875 3.72125 4.46375 3.0625 4.1875 C1 3 1 3 0 0 Z " fill="#C1C0C1" transform="translate(647,629)"/>
<path d="M0 0 C0.99 0.33 1.98 0.66 3 1 C2.34 5.62 1.68 10.24 1 15 C0.67 15 0.34 15 0 15 C0 10.05 0 5.1 0 0 Z " fill="#D7D7D6" transform="translate(511,794)"/>
<path d="M0 0 C2.86724686 0.57344937 3.8614515 0.8614515 6 3 C6 4.32 6 5.64 6 7 C3.53199953 5.84826645 1.95216435 4.95216435 0 3 C0 2.01 0 1.02 0 0 Z " fill="#EBEBEA" transform="translate(374,362)"/>
<path d="M0 0 C3.3 0 6.6 0 10 0 C10 0.66 10 1.32 10 2 C5.545 2.495 5.545 2.495 1 3 C0.67 2.01 0.34 1.02 0 0 Z " fill="#484848" transform="translate(889,501)"/>
<path d="M0 0 C1.53445094 3.06890187 0.54984289 5.70094266 0 9 C-0.33 8.34 -0.66 7.68 -1 7 C-1.99 7.33 -2.98 7.66 -4 8 C-2.87548273 5.0280615 -1.77706209 2.66559313 0 0 Z " fill="#D6D7D6" transform="translate(462,582)"/>
<path d="M0 0 C1.17539996 0.92652701 2.34010577 1.86663387 3.5 2.8125 C4.1496875 3.33457031 4.799375 3.85664063 5.46875 4.39453125 C7 6 7 6 7 9 C3.99234114 6.15063897 1.72154788 3.76488042 0 0 Z " fill="#888786" transform="translate(359,344)"/>
<path d="M0 0 C0.99 0.33 1.98 0.66 3 1 C1.25 3.0625 1.25 3.0625 -1 5 C-3.25 4.75 -3.25 4.75 -5 4 C-2.6875 1.9375 -2.6875 1.9375 0 0 Z " fill="#E8E8E9" transform="translate(649,356)"/>
</svg>
