<?xml version="1.0" encoding="UTF-8" standalone="no"?>
<svg
   version="1.1"
   width="1024"
   height="1024"
   id="svg34"
   sodipodi:docname="logo.svg"
   inkscape:version="1.4.3 (0d15f750, 2025-12-25)"
   xmlns:inkscape="http://www.inkscape.org/namespaces/inkscape"
   xmlns:sodipodi="http://sodipodi.sourceforge.net/DTD/sodipodi-0.dtd"
   xmlns="http://www.w3.org/2000/svg"
   xmlns:svg="http://www.w3.org/2000/svg">
  <defs
     id="defs34" />
  <sodipodi:namedview
     id="namedview34"
     pagecolor="#ffffff"
     bordercolor="#000000"
     borderopacity="0.25"
     inkscape:showpageshadow="2"
     inkscape:pageopacity="0.0"
     inkscape:pagecheckerboard="0"
     inkscape:deskcolor="#d1d1d1"
     inkscape:zoom="0.33933929"
     inkscape:cx="-262.27438"
     inkscape:cy="739.67268"
     inkscape:window-width="1512"
     inkscape:window-height="949"
     inkscape:window-x="0"
     inkscape:window-y="33"
     inkscape:window-maximized="0"
     inkscape:current-layer="layer2" />
  <g
     inkscape:groupmode="layer"
     id="layer1"
     inkscape:label="navigation" />
  <g
     inkscape:groupmode="layer"
     id="layer3"
     inkscape:label="text" />
  <g
     inkscape:groupmode="layer"
     id="layer2"
     inkscape:label="original"
     style="display:inline">
    <path
       d="m 0,0 c 337.92,0 675.84,0 1024,0 0,337.92 0,675.84 0,1024 -337.92,0 -675.84,0 -1024,0 C 0,686.08 0,348.16 0,0 Z"
       fill="#fefefe"
       id="path1" />
    <path
       d="M 0,0 C 0.845625,-0.02578125 1.69125,-0.0515625 2.5625,-0.078125 5.4726413,0.31362479 6.8220601,1.3342195 9,3.25 8.4126885,8.213755 7.3546998,12.682584 5.7773437,17.421875 c -0.3315735,1.007017 -0.3315735,1.007017 -0.6698455,2.034378 -0.4732624,1.436823 -0.948896,2.872867 -1.4267121,4.308182 -1.2691353,3.81715 -2.5162619,7.641461 -3.76281735,11.466034 -0.2506723,0.768518 -0.5013446,1.537036 -0.75961304,2.328842 C -4.4682216,48.717902 -7.7628048,59.97297 -11,71.25 c -0.314531,1.091997 -0.629063,2.183994 -0.953125,3.309082 -8.055929,25.647698 -8.055929,25.647698 -11.109375,52.128418 0.01354,1.57588 0.01354,1.57588 0.02734,3.18359 0.0116,0.78504 0.0232,1.57008 0.03516,2.37891 1.678284,0.96624 1.678284,0.96624 4,1 4.765318,-3.24851 7.783095,-7.06663 10.875,-11.875 0.4241821,-0.6455 0.8483643,-1.291 1.2854004,-1.95605 3.4052952,-5.27461 6.41934175,-10.72511 9.2395019,-16.33252 C 5.4192372,97.140234 5.4192372,97.140234 8,95.25 c 2.6875,0.3125 2.6875,0.3125 5,1 2.795552,13.33393 -8.0152412,29.00606 -15,40 -2.7190806,3.91508 -5.7731656,7.49468 -9,11 -0.594258,0.67418 -1.188516,1.34836 -1.800781,2.04297 -4.153055,4.47766 -8.745029,7.26881 -14.199219,9.95703 -0.66,0.33 -1.32,0.66 -2,1 -4.53713,0.59442 -9.069833,1.06384 -13.175781,-1.19922 -3.081396,-2.61952 -5.442675,-5.54033 -7.824219,-8.80078 -0.424102,0.71285 -0.848203,1.4257 -1.285156,2.16016 C -57.381569,162.3654 -63.715221,170.11612 -75,174.25 c -5.30977,0.92209 -10.37664,1.30502 -15.308594,-1.14844 C -94.1339,170.0954 -95.966155,167.07461 -97,162.25 c -0.66,0 -1.32,0 -2,0 -0.324844,1.0248 -0.324844,1.0248 -0.65625,2.07031 -1.74451,3.80344 -4.12149,6.653 -6.84375,9.80469 -0.53246,0.61843 -1.06493,1.23686 -1.61353,1.87402 -5.9494,6.71888 -13.31742,13.52423 -22.60522,14.55176 -9.5944,0.0404 -9.5944,0.0404 -13.28125,-3.30078 -5.27788,-7.35134 -4.96776,-16.46017 -3.68359,-25.13818 2.05272,-11.15295 5.34108,-22.03976 8.68359,-32.86182 -6.13784,1.73391 -8.01028,6.17386 -11.01562,11.37891 -7.09897,12.81151 -11.05729,26.02275 -14.64063,40.125 -0.44195,1.68754 -0.44195,1.68754 -0.89282,3.40918 -0.58311,2.23116 -1.14679,4.46752 -1.68897,6.70898 -2.03403,7.72461 -2.03403,7.72461 -5.73462,11.0459 -5.37981,2.36712 -10.169,2.91356 -16.02734,2.33203 -2.5,-1.125 -2.5,-1.125 -4,-3 -0.75,-3.1875 -0.75,-3.1875 -1,-6 -0.4009,0.54527 -0.8018,1.09055 -1.21484,1.65234 -7.54516,10.00888 -15.40583,19.82693 -28.53125,21.75 -4.78874,0.17789 -8.57426,-0.0572 -12.25391,-3.40234 -3,-5.06897 -3,-5.06897 -3,-8 -0.66,0 -1.32,0 -2,0 -0.38285,1.06928 -0.38285,1.06928 -0.77344,2.16016 -4.17342,9.66266 -11.42441,17.44601 -21.03906,21.71484 -6.17273,2.03323 -12.56996,2.23988 -18.5625,-0.3125 -3.49092,-3.4078 -5.517,-7.19725 -7.625,-11.5625 -0.77344,1.20656 -0.77344,1.20656 -1.5625,2.4375 -2.91763,4.36618 -6.15188,8.4694 -9.4375,12.5625 -0.54656,0.69609 -1.09312,1.39219 -1.65625,2.10937 -6.23467,7.58748 -15.18511,15.11568 -25.23047,16.20313 -4.79366,0.18868 -8.22326,0.10072 -12.61328,-1.9375 -5.38543,-5.11616 -7.12815,-9.58576 -7.75,-16.75 -0.0773,-0.73605 -0.15469,-1.47211 -0.23437,-2.23047 -0.18668,-1.7967 -0.35324,-3.59547 -0.51563,-5.39453 -0.74895,0.75668 -1.49789,1.51336 -2.26953,2.29297 -2.09611,2.07811 -4.1926,4.0842 -6.41797,6.01953 -0.58137,0.51176 -1.16273,1.02352 -1.76172,1.55078 C -360,237.25 -360,237.25 -362,237.25 c -0.0258,0.61746 -0.0516,1.23492 -0.0781,1.87109 -0.81307,12.14054 -6.34394,20.86694 -14.92188,29.25391 -9.5663,8.24849 -21.45163,11.27835 -33.82812,11.15234 -4.56967,-0.39956 -6.63454,-1.35519 -10.17188,-4.27734 -3.47254,-4.81675 -3.34198,-9.30025 -3,-15 -0.47309,0.81082 -0.94617,1.62164 -1.43359,2.45703 -6.9175,11.5831 -14.33837,21.74572 -25.56641,29.54297 -0.64453,0.45504 -1.28906,0.91008 -1.95312,1.37891 -5.85406,3.52965 -12.40553,3.62039 -19.04688,2.62109 -4.97833,-3.18613 -6.25323,-7.57581 -8,-13 -3.24604,3.04316 -6.01439,6.23747 -8.75,9.75 -10.4539,13.15042 -23.47437,23.65522 -40.25,27.25 -7.79011,0.66772 -14.14034,-0.20604 -20.3125,-5.3125 -2.86181,-2.64593 -4.74526,-4.80077 -5.6875,-8.6875 -1.59377,2.09911 -3.14849,4.21293 -4.65625,6.375 -15.88952,22.62237 -15.88952,22.62237 -29.34375,26.625 -6.01081,0.86064 -11.0131,0.85642 -16.625,-1.5625 -5.07888,-5.21254 -5.9357,-10.95133 -5.875,-17.9375 0.006,-0.78754 0.0129,-1.57507 0.0195,-2.38647 0.43321,-14.13787 7.34117,-26.66735 13.48047,-39.11353 -2.64,-0.33 -5.28,-0.66 -8,-1 -0.2243,0.7773 -0.44859,1.55461 -0.67969,2.35547 -3.98211,10.99204 -10.41364,26.69441 -20.32031,33.64453 -1.32,0 -2.64,0 -4,0 -2,-3 -2,-3 -1.8125,-6.3125 0.80647,-3.66014 2.08511,-6.38638 3.8125,-9.6875 -0.59539,0.24234 -1.19077,0.48469 -1.8042,0.73437 -2.68883,1.09213 -5.37977,2.17894 -8.0708,3.26563 -0.93715,0.38156 -1.8743,0.76312 -2.83984,1.15625 -0.8959,0.36094 -1.7918,0.72187 -2.71485,1.09375 -0.82741,0.33516 -1.65483,0.67031 -2.50732,1.01562 C -649,305.25 -649,305.25 -651,305.25 c 0.39832,1.01707 0.39832,1.01707 0.80469,2.05469 0.3532,0.9307 0.7064,1.8614 1.07031,2.82031 0.52207,1.35738 0.52207,1.35738 1.05469,2.74219 2.65369,8.38722 3.40178,16.36123 3.32031,25.13281 -0.0101,1.58869 -0.0101,1.58869 -0.0205,3.20947 -0.10357,7.86546 -0.67372,15.31504 -2.22949,23.04053 -0.12359,0.66596 -0.24718,1.33192 -0.37451,2.01807 -4.20779,22.53841 -12.3106,48.86893 -31.6255,62.98193 -4.56428,3.11201 -8.86774,3.75752 -14.30469,3.60937 -4.04395,-0.91428 -5.83164,-3.01019 -8.35547,-6.17578 -9.29623,-16.88499 -1.81492,-45.43877 2.14746,-63.13086 0.6468,-2.90503 1.26986,-5.81495 1.89551,-8.72461 2.52195,-11.63296 5.04606,-23.21353 8.61719,-34.57812 -0.75023,0.33387 -1.50047,0.66773 -2.27344,1.01172 -3.62501,1.31394 -6.0112,0.88272 -9.72656,-0.0117 -2.16167,-1.62505 -2.89695,-2.599 -3.57422,-5.23438 -0.1682,-3.73527 -0.21337,-6.58653 1.91016,-9.76562 4.03976,-3.81817 8.36569,-5.78263 13.47656,-7.875 4.29425,-1.79261 4.29425,-1.79261 7.54688,-4.9375 0.81478,-2.39005 1.23845,-4.69337 1.64062,-7.1875 0.54283,-2.35878 1.10791,-4.71248 1.6875,-7.0625 0.16291,-0.66781 0.32581,-1.33563 0.49365,-2.02368 6.33003,-25.29423 14.73501,-52.4811 36.74854,-68.30054 5.69014,-3.3645 11.6218,-3.34896 18.07031,-2.61328 5.31599,1.70871 7.2985,4.19358 10,9 1.47103,9.73479 0.11687,18.59746 -5.20312,26.87109 -2.49394,3.29105 -4.79058,5.15176 -8.79688,6.12891 -3.1875,0.25 -3.1875,0.25 -6,0 -0.66,-0.66 -1.32,-1.32 -2,-2 0.422,-6.47063 2.3675,-12.74723 4,-19 -1.94064,0.10666 -1.94064,0.10666 -4,1 -2.22482,3.73239 -3.52624,7.92124 -5,12 -0.39059,1.07379 -0.78117,2.14758 -1.18359,3.25391 -4.70079,13.5475 -9.14654,27.64803 -11.81641,41.74609 7.76161,-1.83742 7.76161,-1.83742 15.375,-4.1875 3.06614,-0.94904 5.43444,-1.16701 8.625,-0.8125 1.8125,1 1.8125,1 3,3 0.5394,2.68116 0.77568,5.26331 1,8 1.20522,-2.2211 2.38887,-4.44979 3.5625,-6.6875 0.34225,-0.62584 0.68449,-1.25168 1.03711,-1.89648 1.51801,-2.92868 2.43761,-4.93214 2.18164,-8.25977 -0.70723,-2.15571 -0.70723,-2.15571 -1.84375,-3.96875 -2.43623,-5.68453 -0.89271,-11.53477 1.14844,-17.08594 2.57784,-5.92683 6.59077,-10.66448 11.78906,-14.47656 3.32737,-0.97864 5.79367,-0.45783 9.125,0.375 2.5,1.4375 2.5,1.4375 4,4 0.0964,4.52246 -0.57232,8.71696 -2,13 0.66387,-0.26555 1.32773,-0.53109 2.01172,-0.80469 2.66276,-1.0651 5.32552,-2.13021 7.98828,-3.19531 1.29357,-0.54721 1.29357,-0.54721 2.61328,-1.10547 3.36125,-1.25978 5.82727,-1.33946 9.38672,-0.89453 2.63016,2.17274 4.47337,3.94674 6,7 -0.31087,7.21366 -2.25422,12.67566 -5.25,19.1875 -0.81905,1.8543 -1.63546,3.70978 -2.44922,5.56641 -0.39494,0.89606 -0.78987,1.79212 -1.19678,2.71533 -4.01767,9.20991 -7.04094,17.32849 -6.104,27.53076 5.87838,-0.95994 9.06271,-3.55713 12.69141,-8.13281 1.85065,-2.57519 3.58544,-5.20517 5.30859,-7.86719 0.57879,-0.82758 1.15758,-1.65516 1.75391,-2.50781 4.32539,-6.63808 6.47462,-13.16102 8.62109,-20.74219 5.80178,-20.22079 17.19172,-38.36758 35.91016,-49.05469 6.91466,-3.26057 14.18086,-3.68615 21.71484,-2.69531 5.17691,2.051 7.14365,3.85899 9.30859,8.83203 2.47156,7.7498 -0.0985,15.62032 -3.52734,22.67578 -7.9563,14.10034 -20.87364,25.18512 -35.78125,31.49219 -0.66,0 -1.32,0 -2,0 1.12697,4.96911 1.12697,4.96911 4,9 8.71624,1.286 14.79272,-2.32476 22,-7 6.59133,-5.04975 11.26083,-11.27882 16,-18 0.71801,-1.01707 1.43602,-2.03414 2.17578,-3.08203 5.92263,-9.3267 8.46485,-19.24691 11.1836,-29.86719 5.53543,-21.25157 5.53543,-21.25157 13.32812,-27.05078 5.61066,-1.69379 10.96559,-2.05371 16.375,0.375 1.9375,1.625 1.9375,1.625 2.9375,3.625 0.34768,4.73117 -0.56362,8.19806 -2.1875,12.625 -4.94764,14.10247 -8.30305,28.50583 -9.8125,43.375 11.35061,-2.67073 16.24408,-10.98833 22.19922,-20.45703 1.93724,-3.13891 3.79143,-6.32134 5.62451,-9.52197 1.20207,-2.06533 2.45468,-4.09405 3.71143,-6.12647 4.98539,-8.35219 7.12844,-14.7474 7.15966,-24.49292 0.12072,-9.65439 4.64077,-17.60469 11.18409,-24.5852 8.60513,-7.36904 17.99079,-11.33263 29.26953,-11.13672 4.11785,0.46255 5.85628,1.48268 8.85156,4.32031 2.36476,3.22468 2.52784,6.07892 2,10 -2.44561,5.43703 -5.55245,9.33418 -11,12 -2.1875,0 -2.1875,0 -4,-1 -3,-3.32143 -3,-3.32143 -3,-6 -1.98,0.99 -1.98,0.99 -4,2 -0.0825,1.19625 -0.165,2.3925 -0.25,3.625 -0.0464,0.67289 -0.0928,1.34578 -0.14062,2.03906 0.94117,5.6282 5.59669,9.78866 9.39062,13.77344 3.70743,4.00271 6.60848,7.67076 9,12.5625 10.08759,-4.26783 18.35918,-15.11231 22.87891,-24.79297 2.48054,-7.09592 3.95176,-14.49081 5.56787,-21.82178 0.73479,-3.1681 1.62002,-6.27032 2.55322,-9.38525 -0.55687,0.21656 -1.11375,0.43312 -1.6875,0.65625 -5.3293,1.94447 -9.63697,3.02873 -15.3125,2.34375 -2.0625,-1.5625 -2.0625,-1.5625 -3,-4 0.078,-4.20987 0.78623,-8.05719 3.31641,-11.52344 4.5013,-3.94777 11.17789,-6.6911 16.98169,-7.99145 4.70244,-1.1046 4.70244,-1.1046 8.00976,-4.40625 1.01157,-2.43738 1.78962,-4.8514 2.50464,-7.39136 2.7349,-8.86976 5.68054,-14.97568 13.1875,-20.6875 3.71654,-1.85827 7.94369,-1.43233 12,-1 3.1875,1.4375 3.1875,1.4375 5,4 0.3797,5.46347 -1.35501,10.8457 -3,16 0.58008,-0.19336 1.16016,-0.38672 1.75781,-0.58594 1.62266,-0.54088 3.24642,-1.07848 4.8711,-1.61328 1.82725,-0.61711 3.63539,-1.29102 5.43359,-1.98828 4.31406,-1.19325 8.7817,-1.8904 12.9375,0.1875 1.61904,3.23808 1.77254,6.52662 1,10 -2.75258,5.34042 -5.94812,7.42544 -11.375,9.5625 -0.70246,0.30696 -1.40492,0.61392 -2.12866,0.93018 -3.52798,1.50287 -6.6079,2.52656 -10.41431,3.1831 -4.29163,0.82337 -6.66371,1.55659 -10.08203,4.32422 -3.49326,6.616 -4.76896,14.18482 -6.25439,21.45264 -0.74282,3.53409 -1.59678,7.0216 -2.4917,10.52002 -0.56574,2.25863 -1.12961,4.51773 -1.69141,6.77734 -0.25975,1.03278 -0.51949,2.06556 -0.78711,3.12964 -1.72171,7.38782 -2.34258,14.53523 -1.77539,22.12036 1.08635,1.28722 1.08635,1.28722 3.6875,1.375 5.3474,-0.60537 8.63528,-4.39301 11.91016,-8.42578 0.82868,-1.08186 1.6503,-2.16917 2.46484,-3.26172 0.40799,-0.53045 0.81598,-1.0609 1.23633,-1.60742 5.56575,-7.34187 9.48725,-14.51601 12.57617,-23.20508 7.52766,-20.30521 17.38432,-40.32976 37.96094,-49.96484 6.13204,-2.579 11.48877,-2.73549 17.66406,-0.41016 1.155,0.495 2.31,0.99 3.5,1.5 0.68063,-0.92813 1.36125,-1.85625 2.0625,-2.8125 2.87218,-3.41426 5.60629,-4.91801 9.9375,-6.1875 4.81106,0.1659 8.11636,1.14438 12,4 1.97493,3.94987 1.55217,8.294 0.22632,12.39038 -0.33379,0.84957 -0.66757,1.69915 -1.01148,2.57446 -2.36461,6.29426 -4.20552,12.67407 -5.96484,19.16016 -0.31582,1.11504 -0.63164,2.23008 -0.95703,3.37891 -1.73476,6.3758 -2.6561,11.88996 -2.29297,18.49609 2.89126,0.25467 4.49655,0.33262 6.95703,-1.29297 5.79148,-5.91341 10.02839,-12.48753 14.04297,-19.70703 0.33653,-0.59498 0.67305,-1.18997 1.01978,-1.80298 2.95035,-5.49341 4.45609,-11.09701 5.91772,-17.13452 0.51373,-2.03824 1.02937,-4.076 1.54688,-6.11328 0.37995,-1.50361 0.37995,-1.50361 0.76757,-3.0376 1.07872,-4.19869 2.23222,-8.3721 3.43555,-12.53662 0.19006,-0.67926 0.38011,-1.35851 0.57593,-2.05835 1.60415,-5.48707 3.22336,-9.19687 7.86157,-12.62915 4.20638,-2.18339 8.23321,-2.53936 12.875,-1.6875 3,1.625 3,1.625 5,4 0.8125,3.25 0.8125,3.25 1,6 0.4473,-0.59168 0.89461,-1.18336 1.35547,-1.79297 6.15902,-8.05007 12.46571,-14.61762 21.64453,-19.20703 5.61701,-0.58417 10.29166,-0.39439 15,3 3.68356,4.65292 4.73221,8.53295 4.52734,14.44141 -1.37712,9.29302 -4.55548,18.29924 -7.37182,27.23925 -1.34056,4.32687 -2.51849,8.40098 -2.84302,12.94434 -0.0657,0.83789 -0.13148,1.67578 -0.19922,2.53906 -0.0561,0.90879 -0.0561,0.90879 -0.11328,1.83594 10.29144,-3.36047 15.28589,-12.14461 20.22266,-21.28906 2.295443,-4.5433 3.535989,-9.28233 4.796871,-14.19922 C -90.613032,108.53731 -79.04914,91.789468 -62,81.25 c 4.117137,-2.085566 7.534187,-2.241108 12.125,-2.1875 1.82918,0.0097 1.82918,0.0097 3.695313,0.01953 C -43,79.25 -43,79.25 -40,80.25 c 0.185867,-0.784233 0.371733,-1.568467 0.563232,-2.376465 6.852594,-28.842135 6.852594,-28.842135 10.843995,-42.562988 0.62928,-2.187449 1.233126,-4.381024 1.834961,-6.576172 C -20.868391,7.5049569 -20.868391,7.5049569 -13.4375,3.1875 -8.9512868,1.0027064 -4.9849019,0.09118723 0,0 Z"
       fill="#030403"
       transform="translate(886,322.75)"
       id="path2"
       style="fill:#000000;fill-opacity:1" />
    <path
       d="m 0,0 c 2.3895421,2.389542 2.5152362,3.6031129 3.1574707,6.8791504 l 0.6179962,3.0918121 0.6503143,3.3766935 0.6953583,3.511093 c 0.7376693,3.733204 1.464712,7.468388 2.1913605,11.203751 0.4778044,2.429176 0.9563126,4.858215 1.4355469,7.287109 0.9548014,4.843193 1.9054231,9.68718 2.8532711,14.531739 1.329095,6.781878 2.685346,13.558116 4.04712,20.333496 1.813587,9.036221 3.570416,18.080923 5.263,27.140533 2.679868,14.330223 5.424629,28.647753 8.213562,42.957123 l 0.516174,2.6485 c 2.130705,10.91684 4.328363,21.81584 6.636658,32.69671 1.761707,8.37072 3.307842,16.77713 4.845703,25.19141 2.971906,16.21612 6.225129,32.37872 9.70874,48.49268 C 52,254.78915 52,254.78915 52,257 c 7.817733,-6.03558 15.486875,-12.19118 22.955322,-18.65503 4.361446,-3.77274 8.799497,-7.43856 13.275147,-11.07544 C 93.544417,222.91494 98.765268,218.44922 104,214 c 7.01235,-5.96008 14.04961,-11.87759 21.1875,-17.6875 3.69344,-3.03683 7.33548,-6.13211 10.97876,-9.22876 3.39328,-2.87919 6.81642,-5.71578 10.27124,-8.52124 3.60412,-2.92933 7.14651,-5.9163 10.65625,-8.95703 C 166.36346,161.57578 175.93782,154.02013 186,147 c -1.61231,3.63847 -3.85255,6.50879 -6.3125,9.625 -4.11479,5.26175 -8.05592,10.62688 -11.9375,16.0625 -5.03549,7.03237 -10.25072,13.89716 -15.58887,20.7019 -3.783,4.82539 -7.49969,9.69242 -11.16113,14.6106 -4.90898,6.5898 -9.93318,13.08344 -14.99121,19.55933 -4.01683,5.14845 -7.96126,10.34201 -11.86426,15.57739 C 108.69342,250.4148 103.12682,257.60709 97.5,264.75 l -1.90625,2.42187 C 94,269 94,269 92,270 l -2.25,-2.3125 C 85.876338,263.90188 83.443979,261.75611 78,261 c 1.484137,-3.48654 3.462141,-5.64191 6.1875,-8.25 2.877511,-2.80878 5.64239,-5.62666 8.25,-8.6875 3.436866,-4.01101 7.154507,-7.69156 10.9375,-11.375 2.04058,-2.08916 3.94463,-4.19392 5.84375,-6.40625 4.94594,-5.70603 10.37544,-10.92135 15.75391,-16.21484 4.3323,-4.29058 8.4881,-8.64496 12.45947,-13.27149 2.22835,-2.55105 4.59366,-4.91624 7.00537,-7.29492 l 2.62109,-2.59375 L 149,185 l -2.8125,2.4375 c -3.04452,2.6122 -6.13605,5.15857 -9.25,7.6875 -4.37012,3.56084 -8.66738,7.19504 -12.9375,10.875 -5.01175,4.31816 -10.08218,8.54907 -15.21875,12.71875 -3.14509,2.57968 -6.24605,5.20757 -9.34375,7.84375 -4.550293,3.86997 -9.165831,7.6371 -13.847656,11.34766 -3.619101,2.92039 -7.156069,5.93387 -10.696533,8.94873 -3.490842,2.96837 -7.018646,5.88317 -10.580811,8.76611 -15.665717,12.79603 -15.665717,12.79603 -25.1875,30.1875 -2.364424,6.54439 -2.364424,6.54439 -5.148438,8.89844 C 31.666073,295.72431 29.44824,296.39584 27,297 18.464001,299.80507 12.498252,303.96429 6.4960937,310.68359 4.7117117,312.25366 3.2914417,312.49793 1,313 0.01773069,256.60277 -0.28335358,200.20584 -0.51740873,143.80125 -0.56785249,131.67905 -0.62235604,119.55686 -0.67708123,107.43468 -0.78900721,82.623139 -0.89621144,57.811578 -1,33 -1.9470513,37.995761 -2.8935782,42.99162 -3.8396606,47.987564 -4.1602429,49.680075 -4.4809579,51.37256 -4.8018189,53.065018 -6.8148411,63.683769 -8.8028198,74.306472 -10.75,84.9375 c -1.377424,7.475374 -2.806891,14.925069 -4.449219,22.34766 -1.095307,5.08115 -2.101383,10.17901 -3.113281,15.27734 -1.554053,7.82361 -3.138886,15.63951 -4.770752,23.44727 -2.611676,12.49967 -5.110698,25.01685 -7.541748,37.55273 -3.227755,16.63539 -6.510126,33.25965 -9.827332,49.87741 -0.525695,2.63355 -1.050295,5.26731 -1.57434,7.90118 C -44.863981,255.59694 -47.750109,269.83184 -51,284 c -3.846967,-1.77607 -5.939284,-3.92148 -8.75,-7.125 -5.451316,-6.13597 -11.231042,-11.9006 -17.118164,-17.61768 l -2.018555,-1.98388 -1.819092,-1.76807 c -1.369513,-1.58069 -1.930711,-2.18573 -3.173565,-3.39482 l -1.293962,-1.42445 c -1.199219,-1.22266 -0.02588,0.0912 -1.514162,-1.7486 -3.57846,-4.20821 -7.397312,-8.10937 -11.3125,-12 l -1.947998,-1.93799 C -101.9634,232.99771 -103.98126,230.99843 -106,229 -121.32591,213.82823 -121.32591,213.82823 -126.46875,207.75391 -129.4614,204.3261 -132.75316,201.18464 -136,198 c -5.24428,-5.14382 -10.23771,-10.40431 -15,-16 4.04424,5.46519 8.20632,10.82985 12.41406,16.16943 3.81736,4.84638 7.61268,9.70948 11.39844,14.58057 l 1.77661,2.28564 c 2.40791,3.09846 4.81514,6.19744 7.22241,9.29639 7.7007,9.9122 15.42289,19.80654 23.18848,29.66797 1.771436,2.24953 3.542356,4.49946 5.3125,6.75 l 1.330322,1.69116 c 4.641627,5.9082 9.248423,11.8435 13.850586,17.78247 l 1.733155,2.2334 1.549316,1.99927 c 1.138387,1.4962 1.138387,1.4962 2.224121,2.5437 l 3.671631,-0.66162 c 12.114109,-2.03154 12.114109,-2.03154 17.61676,0.86706 5.425973,4.03432 9.819867,9.12044 14.274109,14.16956 1.385051,1.49416 2.775001,2.9838 4.169922,4.46875 3.039891,3.24342 6.029032,6.52616 8.978042,9.85239 1.278227,1.43215 1.278227,1.43215 3.289536,2.30386 v 2 c -17.148936,10.7234 -17.148936,10.7234 -26,9 l -0.882812,-1.79297 c -3.582808,-6.90648 -7.389177,-11.7855 -14.941407,-14.69922 -9.908865,-2.31266 -17.907731,-0.35282 -26.328125,4.8125 -4.042561,2.65222 -4.042561,2.65222 -6.703369,6.5865 C -93.002304,326.3591 -94.075721,328.08444 -96,330 c -4.01009,1.21734 -7.9457,1.04512 -12.10938,0.96484 l -3.81889,0.0247 c -2.78779,0.0178 -5.57402,0.0104 -8.36174,-0.0159 -4.55219,-0.0425 -9.10326,-0.0294 -13.65555,-0.009 -5.93173,0.0231 -11.86322,0.0317 -17.79499,0.0255 -13.44554,-0.0123 -26.88889,0.0978 -40.33367,0.23236 l -3.38747,0.0337 c -4.55491,0.0456 -9.1098,0.0916 -13.66469,0.13863 -8.00194,0.0825 -16.00391,0.15884 -24.00594,0.2317 -23.74885,0.21751 -47.49642,0.45466 -71.24268,0.87329 l -3.29929,0.0544 c -2.97066,0.0501 -5.94114,0.10588 -8.91165,0.16431 l -2.46238,0.041 c -6.01374,0.13161 -11.96789,0.63801 -17.95168,1.24023 37.01561,6.13063 74.05554,12.09393 111.1155,17.9502 4.32221,0.68304 8.64439,1.36631 12.96653,2.0498 l 2.52475,0.39923 c 15.71887,2.48644 31.43019,5.01726 47.13394,7.5976 1.48877,0.24458 2.97754,0.48913 4.46631,0.73364 l 2.04785,0.33647 c 6.24166,1.02175 12.49152,1.98749 18.74512,2.93306 v 2 c -9.94719,3.31573 -18.98388,1.53514 -29.14453,-0.16016 -1.39539,-0.22803 -2.79088,-0.45549 -4.18645,-0.68242 -3.72408,-0.60711 -7.44686,-1.22187 -11.16945,-1.83807 -3.87994,-0.64079 -7.76109,-1.27419 -11.64215,-1.90822 -6.15701,-1.00665 -12.3134,-2.01697 -18.46924,-3.03076 -9.62053,-1.5843 -19.24332,-3.15455 -28.86694,-4.72 -2.51956,-0.4101 -5.03897,-0.82116 -7.55835,-1.23239 -13.52267,-2.20527 -27.05404,-4.35452 -40.58658,-6.49832 -12.72663,-2.01711 -25.44322,-4.08299 -38.15024,-6.22043 -8.95905,-1.50576 -17.9261,-2.95567 -26.90063,-4.36621 C -361.13458,336.32184 -367.57017,335.19656 -374,334 l 1,-2 c 2.24854,-0.49902 2.24854,-0.49902 5.28906,-0.85938 l 3.48511,-0.43408 3.85083,-0.45654 c 2.73917,-0.33945 5.47714,-0.68795 8.21484,-1.03906 l 2.20473,-0.28159 c 9.88316,-1.28197 19.72333,-2.86456 29.56291,-4.44241 9.51652,-1.5256 19.00495,-2.81204 28.59639,-3.76572 7.02516,-0.71091 13.96128,-1.78111 20.92113,-2.97122 2.66627,-0.44276 5.33275,-0.88357 8,-1.32031 l 2.11551,-0.34677 c 9.27878,-1.50875 18.58185,-2.85572 27.88449,-4.20792 l 2.70782,-0.39392 c 9.96574,-1.44837 19.93312,-2.88538 29.904,-4.29797 10.51268,-1.49383 21.01685,-3.04691 31.5227,-4.58786 9.57757,-1.40468 19.15516,-2.80681 28.74048,-4.15775 10.38107,-1.46524 20.74389,-3.0533 31.10742,-4.63696 2.67062,-0.408 5.34167,-0.81296 8.01319,-1.21509 2.572838,-0.38827 5.144801,-0.78242 7.715816,-1.18262 C -87.037765,290.47552 -81.196613,289.75214 -75,290 l -1.914062,-2.42969 c -5.989685,-7.60999 -11.948708,-15.24317 -17.888917,-22.89184 -3.569617,-4.59383 -7.156511,-9.17331 -10.759521,-13.74097 C -111.79622,243.02565 -117.89502,235.01132 -124,227 c -6.61138,-8.67282 -13.2398,-17.33109 -19.9375,-25.9375 l -1.75928,-2.26147 c -2.93908,-3.77493 -5.8854,-7.54393 -8.84228,-11.30494 C -162.63001,177.18388 -170.39978,166.67832 -178,156 c -0.95679,-1.34001 -1.91381,-2.67987 -2.87109,-4.01953 L -183,149 c 4.11853,0 5.22737,1.62814 8.3125,4.3125 1.08043,0.92765 2.16253,1.85336 3.24609,2.77734 l 1.71045,1.46045 c 2.8086,2.35225 5.70849,4.58363 8.60596,6.82471 5.52476,4.29457 10.86185,8.7706 16.15137,13.35059 4.08443,3.53154 8.2491,6.93735 12.48535,10.28613 3.878,3.09875 7.67277,6.29603 11.48047,9.48047 4.64154,3.86996 9.32553,7.68734 14.00781,11.50781 1.72928,1.41653 3.45844,2.8332 5.1875,4.25 4.59558,3.76062 9.202823,7.50669 13.8125,11.25 1.382838,1.12367 2.765651,2.24736 4.148438,3.37109 2.274453,1.84834 4.550393,3.69476 6.828125,5.53907 5.83639,4.74314 11.569316,9.59503 17.254394,14.51782 l 1.702637,1.47046 1.501709,1.30224 C -54.757461,252.2014 -52.888421,253.60338 -51,255 l 0.379639,-2.09766 C -50.020928,249.60098 -49.41669,246.3005 -48.8125,243 l 0.595703,-3.29297 c 1.405889,-7.65669 2.947593,-15.27665 4.548828,-22.89453 C -40.814968,203.23359 -38.15292,189.61919 -35.5,176 c 3.026649,-15.53779 6.109714,-31.0589 9.361328,-46.55127 1.597393,-7.61855 3.121512,-15.25137 4.638672,-22.88623 0.451134,-2.26538 0.902521,-4.53072 1.353912,-6.796051 0.297804,-1.494744 0.595475,-2.989515 0.893006,-4.484314 0.871803,-4.377994 1.750538,-8.754513 2.635895,-13.129791 C -14.48001,71.576118 -12.434028,60.990383 -10.5,50.375 -8.4277167,39.020615 -6.0685507,27.74881 -3.5522461,16.485352 -2.7441468,12.848548 -1.9651089,9.2059445 -1.1875,5.5625 l 0.70703125,-3.3085937 z"
       fill="#060606"
       transform="translate(511,163)"
       id="path3"
       sodipodi:nodetypes="ccccccccccscccccccscccccccccccccccccccccccccccccccccccccccscsscccccscccccccccccscscccccsccccccccccccccccccccccccccsccccccsscsccccccccsccccccccccccccccccccscscccccccccccccccccccccccscccccccccsccsccccccc"
       style="display:inline;fill:#000000;fill-opacity:1" />
    <path
       d="m 0,0 c -0.44670292,9.1802463 -2.0490094,18.000896 -3.9229431,26.97113 -0.9121494,4.372107 -1.7988656,8.749374 -2.6864319,13.126526 -0.1908366,0.939485 -0.3816733,1.87897 -0.5782929,2.846924 -2.4500088,12.121076 -4.7214801,24.276136 -6.9998321,36.43042 -0.203742,1.086831 -0.407485,2.173661 -0.617401,3.293427 -0.199654,1.065178 -0.399307,2.130357 -0.605011,3.227813 -0.398493,2.125737 -0.797012,4.25147 -1.195557,6.377197 -0.196607,1.049187 -0.393214,2.098373 -0.595779,3.179352 -1.614911,8.603191 -3.265696,17.199251 -4.92334,25.794301 -2.070794,10.74586 -4.101956,21.49907 -6.126816,32.25367 -0.643678,3.41839 -1.288085,6.83664 -1.932678,10.25486 -1.631041,8.64963 -3.261544,17.29936 -4.890137,25.94946 C -41.63919,224.57169 -41.63919,224.57169 -45,241 c -1.64484,-2.97351 -2.449026,-5.62159 -3.042969,-8.96094 -0.182805,-1.00804 -0.36561,-2.01609 -0.553955,-3.05469 -0.19489,-1.10859 -0.38978,-2.21718 -0.590576,-3.35937 -0.445115,-2.46618 -0.890439,-4.93233 -1.335937,-7.39844 -0.240665,-1.3434 -0.481222,-2.68683 -0.72168,-4.03027 -1.186534,-6.61379 -2.41068,-13.22069 -3.630524,-19.8284 -0.442857,-2.4004 -0.884688,-4.80099 -1.326263,-7.20163 -1.582116,-8.5978 -3.173545,-17.1938 -4.778565,-25.78735 -3.349989,-17.93948 -6.67001,-35.88273 -9.875366,-53.84867 C -73.807921,90.986781 -76.843157,74.458923 -79.892334,57.933105 -80.933096,52.289625 -81.969679,46.645397 -83,41 c -0.156702,-0.858556 -0.313403,-1.717112 -0.474854,-2.601685 -0.433557,-2.384795 -0.863051,-4.770279 -1.290771,-7.156128 -0.190187,-1.045454 -0.190187,-1.045454 -0.384216,-2.11203 C -85.640637,26.369092 -86,23.811975 -86,21 c 0.920391,-0.02578 1.840781,-0.05156 2.789063,-0.07813 C -69.415583,20.303753 -58.715012,16.779551 -46,11 c 0.33,65.67 0.66,131.34 1,199 1.98,-12.375 1.98,-12.375 4,-25 2.657729,-13.53377 2.657729,-13.53377 3.692383,-18.54834 1.380454,-6.76014 2.675615,-13.53524 3.956055,-20.31494 0.22128,-1.17064 0.442561,-2.34127 0.670547,-3.54738 0.453537,-2.40205 0.906663,-4.80417 1.35939,-7.20637 1.198922,-6.36006 2.402643,-12.71921 3.606781,-19.07828 0.35378,-1.86845 0.35378,-1.86845 0.714707,-3.77465 1.910201,-10.07788 3.847704,-20.150195 5.812637,-30.21754 0.138383,-0.709236 0.276766,-1.418472 0.419342,-2.1492 0.666077,-3.412497 1.333049,-6.824818 2.00058,-10.23703 1.029873,-5.265745 2.055594,-10.532291 3.077637,-15.799561 0.493719,-2.543729 0.988791,-5.087195 1.485351,-7.630371 1.322,-6.802845 2.591207,-13.611224 3.806152,-20.433838 0.3994902,-2.218257 0.7998286,-4.436359 1.2004094,-6.654419 0.3775536,-2.113439 0.7421329,-4.228855 1.1064759,-6.344604 0.2300171,-1.273916 0.4600342,-2.547832 0.6970215,-3.860352 C -7.197063,8.0755176 -6.9995947,6.9479102 -6.7961426,5.7861328 -5.5866182,1.5533537 -4.4840834,0 0,0 Z"
       fill="#050505"
       transform="translate(557,595)"
       id="path4"
       style="fill:#000000;fill-opacity:1" />
    <path
       d="m 0,0 c 2.5138563,0.92965253 3.4805595,1.9648149 5.1953125,4.015625 0.6019922,0.7192969 1.2039844,1.4385937 1.8242187,2.1796875 3.2500508,4.0733975 6.4240598,8.2028555 9.5820308,12.3476565 2.728695,3.575639 5.538655,7.082603 8.359375,10.585937 1.991766,2.489707 3.960969,4.995373 5.924805,7.50708 6.153536,7.8693 12.440904,15.624408 18.750977,23.368409 5.267545,6.471401 10.423475,13.02034 15.49707,19.644531 3.716611,4.847567 7.485586,9.652815 11.269775,14.447754 2.258252,2.863879 4.495641,5.738308 6.666748,8.66895 -0.329999,0.65999 -0.659999,1.31999 -1,2 -0.461484,-0.36126 -0.922968,-0.72252 -1.398437,-1.09473 C 72.523927,97.298269 64.365719,90.94565 56.070312,84.765625 48.076114,78.8053 40.209282,72.687713 32.352539,66.547852 28.596352,63.614586 24.833054,60.690474 21.070312,57.765625 16.556746,54.256272 12.044064,50.745806 7.5351562,47.230469 0.10975372,41.443517 -7.3285389,35.674427 -14.804688,29.953125 c -0.698027,-0.5348 -1.396054,-1.0696 -2.115234,-1.620605 -3.226129,-2.465467 -6.463649,-4.910983 -9.740234,-7.309083 -0.566704,-0.416608 -1.133408,-0.833217 -1.717285,-1.262451 -1.504128,-1.101829 -3.014286,-2.195414 -4.524903,-3.28833 -0.669023,-0.56332 -1.338047,-1.12664 -2.027343,-1.707031 0,-0.66 0,-1.32 0,-2 2.246642,-1.318551 4.496973,-2.62994 6.75,-3.9375 0.634218,-0.3731836 1.268437,-0.7463672 1.921875,-1.1308594 6.307465,-3.6465034 6.307465,-3.6465034 9.328125,-3.9316406 1.807342,1.2127991 1.807342,1.2127991 3.663574,3.1118164 0.701079,0.7046841 1.402157,1.4093683 2.124481,2.1354065 0.747989,0.7769321 1.4959771,1.5538641 2.266632,2.3543401 0.7791678,0.788614 1.5583356,1.577228 2.3611145,2.389739 2.4983969,2.533087 4.9791846,5.082621 7.459198,7.633698 2.4761498,2.526222 4.9558022,5.048927 7.4377747,7.569427 1.544574,1.570822 3.0851938,3.145544 4.6212768,4.724671 3.860939,3.949436 7.763972,7.618063 12.065948,11.080902 3.941856,3.734389 7.48586,7.786631 11.078125,11.851562 3.3942,3.794329 6.825608,7.136477 10.921875,10.148438 C 46.320078,65.90582 45.569844,65.046016 44.796875,64.160156 39.312586,57.839555 33.976022,51.469569 28.925537,44.795166 25.631291,40.455025 22.212813,36.22854 18.757812,32.015625 12.432105,24.289757 6.3351557,16.398767 0.32714844,8.4238281 -0.69756752,7.0718719 -1.74413,5.7364968 -2.796875,4.40625 -3.9296875,2.765625 -3.9296875,2.765625 -3.9296875,0.765625 c 2,-1 2,-1 3.9296875,-0.765625 z"
       fill="#070707"
       transform="translate(611.92969,574.23437)"
       id="path5"
       style="fill:#000000;fill-opacity:1" />
    <path
       d="m 0,0 c 4.956375,2.9660958 8.1303964,7.2732018 11.003906,12.199219 2.319388,9.29291 1.418961,17.530325 -2.9999997,26 -3.242278,5.326599 -8.11665202,7.857839 -13.9921875,9.585937 -7.0524808,1.454403 -12.4601868,0.43318 -18.7734378,-3.027344 -4.83873,-3.375268 -7.414363,-8.027339 -9.234375,-13.558593 -0.854989,-8.699023 -0.828391,-17.416586 4,-25.0000003 C -21.922053,-3.1938484 -10.952969,-5.4288627 0,0 Z"
       fill="#f8f8f8"
       transform="translate(950.99609,475.80078)"
       id="path6"
       inkscape:label="O"
       style="fill:#ffffff;fill-opacity:1" />
    <path
       d="m 0,0 c 5.94,0 11.88,0 18,0 -0.33,1.32 -0.66,2.64 -1,4 -1.32,0 -2.64,0 -4,0 2.64,9.24 5.28,18.48 8,28 2.97,-10.23 5.94,-20.46 9,-31 1.65,-0.33 3.3,-0.66 5,-1 2.651524,6.722633 4.698094,13.555769 6.6875,20.5 0.320332,1.108594 0.640664,2.217188 0.970703,3.359375 C 43.441624,26.572117 44.222148,29.285657 45,32 c 1.728162,-5.014899 3.200182,-10.080522 4.625,-15.1875 0.229453,-0.806309 0.458906,-1.612617 0.695312,-2.443359 0.216563,-0.775371 0.433125,-1.550743 0.65625,-2.34961 0.196744,-0.700202 0.393487,-1.400405 0.596192,-2.1218259 C 52.10982,7.8364105 52.10982,7.8364105 52,5 50.68,4.67 49.36,4.34 48,4 c 0,-1.32 0,-2.64 0,-4 4.95,0 9.9,0 15,0 -0.33,1.32 -0.66,2.64 -1,4 -0.634138,0.2720728 -1.268276,0.5441455 -1.921631,0.8244629 -2.395859,1.0729798 -2.395859,1.0729798 -3.311035,4.1655273 -0.337009,1.2601388 -0.674019,2.5202788 -1.02124,3.8186038 -0.18699,0.681355 -0.373979,1.36271 -0.566635,2.064712 -0.59574,2.184307 -1.169112,4.373784 -1.741959,6.564194 -0.388505,1.43985 -0.778465,2.879309 -1.169922,4.318359 -0.934045,3.445449 -1.851224,6.895106 -2.763489,10.346375 C 48.360369,40.408045 47.178344,44.703561 46,49 44.35,49 42.7,49 41,49 38.740844,44.056889 37.16783,39.285863 35.9375,34 35.614456,32.645552 35.290246,31.291383 34.964844,29.9375 34.808706,29.281367 34.652568,28.625234 34.491699,27.949219 34.00879,26.034847 33.444421,24.141617 32.878906,22.25 32,19 32,19 32,15 c -0.66,0 -1.32,0 -2,0 -0.139219,1.336113 -0.139219,1.336113 -0.28125,2.699219 C 28.88412,23.534279 27.114395,29.155635 25.5,34.8125 25.018535,36.528564 25.018535,36.528564 24.527344,38.279297 22.143187,46.713627 22.143187,46.713627 21,49 19.35,49 17.7,49 16,49 15.614611,47.57905 15.614611,47.57905 15.221436,46.129395 14.255487,42.569298 13.287781,39.00968 12.31958,35.450195 11.903095,33.918096 11.487068,32.385873 11.071533,30.853516 9.8985849,26.52871 8.7126502,22.207819 7.5150757,17.889771 7.0511291,16.187589 6.6130492,14.478407 6.1782227,12.768555 5.9402295,11.872979 5.7022363,10.977402 5.4570312,10.054688 5.2672974,9.304292 5.0775635,8.5538965 4.8820801,7.7807617 3.7186143,5.4319327 2.3904476,4.9349007 0,4 0,2.68 0,1.36 0,0 Z"
       fill="#0f0f0f"
       transform="translate(61,474)"
       id="path7"
       inkscape:label="W"
       style="fill:#000000;fill-opacity:1" />
    <path
       d="m 0,0 c 1.2339551,0.03609375 2.4679102,0.0721875 3.7392578,0.109375 1.521988,0.0745759 3.0437856,0.15308516 4.5654297,0.234375 0.9213171,0.0464062 1.8426345,0.0928125 2.7918705,0.140625 7.698003,0.39678833 15.390317,0.8736161 23.083129,1.359375 2.345028,0.1449229 4.69008,0.2894574 7.035157,0.4335938 5.696899,0.3509896 11.393483,0.7067761 17.089843,1.0664062 0,0.66 0,1.32 0,2 -4.228892,0.7099774 -8.458146,1.4177733 -12.6875,2.125 -0.666958,0.1117053 -1.333917,0.2234106 -2.021087,0.338501 -7.928284,1.3270564 -15.858991,2.634325 -23.799225,3.888062 -20.27174657,3.210774 -40.45981,6.778128 -60.630127,10.577148 -10.595406,1.986362 -21.151821,3.821231 -31.86206,5.071289 2.586339,-2.665369 5.334141,-4.733902 8.375,-6.875 3.119873,-2.217939 5.949241,-4.275014 8.4375,-7.1875 2.1875,-1.9375 2.1875,-1.9375 5.25,-1.8125 0.969375,0.28875 1.93875,0.5775 2.9375,0.875 12.246651,3.583757 22.913561,-0.734021 33.730468,-6.1484375 3.25848,-1.6931855 3.25848,-1.6931855 5.6179202,-3.9458008 C -5.1937358,-0.01674235 -3.8368884,-0.12513593 0,0 Z"
       fill="#090909"
       transform="translate(840.69531,497.65625)"
       id="path9"
       style="fill:#000000;fill-opacity:1" />
    <path
       d="m 0,0 c 13.991273,1.8538606 27.94194,3.8767985 41.875,6.125 1.869999,0.2996264 3.740036,0.5990164 5.610107,0.8981934 9.631069,1.5423376 19.260187,3.0968036 28.889634,4.6492306 4.77663,0.769969 9.553332,1.53949 14.330062,2.308838 2.405579,0.387564 4.811117,0.775382 7.216614,1.163452 15.911093,2.566179 31.831293,5.056383 47.767033,7.464295 11.35003,1.719914 22.64125,3.63647 33.91043,5.831421 C 185.39549,29.564219 191.12134,30.434042 197,31 c 0,0.66 0,1.32 0,2 -9.94719,3.315729 -18.98388,1.535144 -29.14453,-0.160156 -1.39539,-0.228029 -2.79088,-0.455489 -4.18645,-0.682419 -3.72408,-0.607115 -7.44686,-1.221877 -11.16945,-1.838074 -3.87994,-0.640793 -7.76109,-1.274192 -11.64215,-1.908218 -6.15701,-1.006655 -12.3134,-2.016974 -18.46924,-3.030762 C 112.76765,23.796065 103.14486,22.225821 93.52124,20.66037 91.001676,20.250273 88.48227,19.839211 85.962891,19.427979 72.448605,17.224083 58.925659,15.075965 45.401489,12.933685 29.253022,10.374504 13.12078,7.7282793 -3,5 -1.68,4.01 -0.36,3.02 1,2 0.67,1.34 0.34,0.68 0,0 Z"
       fill="#111111"
       transform="translate(176,498)"
       id="path10" />
    <path
       d="m 0,0 c 4.956375,2.9660958 8.1303964,7.2732018 11.003906,12.199219 2.319388,9.29291 1.418961,17.530325 -2.9999997,26 -3.242278,5.326599 -8.11665202,7.857839 -13.9921875,9.585937 -7.0524808,1.454403 -12.4601868,0.43318 -18.7734378,-3.027344 -4.83873,-3.375268 -7.414363,-8.027339 -9.234375,-13.558593 -0.854989,-8.699023 -0.828391,-17.416586 4,-25.0000003 C -21.922053,-3.1938484 -10.952969,-5.4288627 0,0 Z m -20.996094,6.1992187 c -4.854711,7.3876033 -5.049262,15.2613413 -3.492187,23.7773433 1.446623,5.528761 3.453816,9.184285 7.492187,13.222657 3.109534,1.554767 5.562668,1.286444 9.0000003,1 4.913188,-2.456594 6.9910177,-4.924677 8.9999999,-10 C 3.5315878,26.347272 3.3300952,15.813344 -0.24609375,8.3867188 -2.0380368,5.1733887 -3.84673,3.1304324 -6.9960937,1.1992187 c -6.1562343,-0.79435274 -9.9803153,-0.066229 -14.0000003,5 z"
       fill="#0b0c0b"
       transform="translate(950.99609,475.80078)"
       id="path11"
       inkscape:label="O"
       style="fill:#000000;fill-opacity:1" />
    <path
       d="m 0,0 c 4.9027218,-0.87635544 9.1209036,-1.112832 14,0 4.442485,3.9385273 7.202879,8.667426 10.1875,13.75 0.821557,1.317992 1.6477,2.633137 2.478516,3.945312 1.519823,2.410342 3.009219,4.834609 4.471435,7.280274 C 33.081789,28.235982 33.081789,28.235982 36,32 36,23.09 36,14.18 36,5 34.68,4.34 33.36,3.68 32,3 c 0,-0.99 0,-1.98 0,-3 4.95,0 9.9,0 15,0 0,0.99 0,1.98 0,3 -1.32,0.33 -2.64,0.66 -4,1 -0.33,14.52 -0.66,29.04 -1,44 -1.98,0 -3.96,0 -6,0 C 34.14467,45.903223 32.890597,44.132545 31.5,41.75 30.650366,40.384703 29.797299,39.021538 28.941406,37.660156 28.480083,36.917817 28.01876,36.175479 27.543457,35.410645 24.656333,30.901397 21.531846,26.555896 18.4375,22.1875 17.226512,20.473611 16.016779,18.758835 14.808594,17.042969 14.290955,16.311023 13.773315,15.579077 13.23999,14.824951 12,13 12,13 11,11 c 0,10.56 0,21.12 0,32 1.65,0.66 3.3,1.32 5,2 0,0.99 0,1.98 0,3 C 10.72,48 5.44,48 0,48 0,47.01 0,46.02 0,45 2.475,44.505 2.475,44.505 5,44 5,31.13 5,18.26 5,5 2.525,4.01 2.525,4.01 0,3 0,2.01 0,1.02 0,0 Z"
       fill="#0c0c0c"
       transform="translate(489,102)"
       id="path12"
       inkscape:label="N" />
    <path
       d="m 0,0 c 0,4.29 0,8.58 0,13 -1.65,0 -3.3,0 -5,0 C -5.66,10.03 -6.32,7.06 -7,4 -8.7704969,3.945893 -10.541468,3.907159 -12.3125,3.875 -13.298633,3.851797 -14.284766,3.828594 -15.300781,3.804688 -18.224065,3.7931736 -18.224065,3.7931736 -21,6 c -0.751281,4.098011 -0.751281,4.098011 0,8 2.299513,2.33145 5.075319,3.581141 8,5 12.92297174,6.648131 12.92297174,6.648131 15,11 0.6395864,4.598931 0.5948057,8.559944 -1.1875,12.875 -4.3283824,5.074655 -8.6128231,7.752711 -15.324219,8.347656 C -20.99835,51.430735 -25.973648,50.371024 -32,48 c 0,-4.62 0,-9.24 0,-14 1.65,0 3.3,0 5,0 0.66,3.3 1.32,6.6 2,10 4.916589,1.229147 9.587139,1.866155 14.4375,0.125 C -8.8410673,43.069259 -8.8410673,43.069259 -8,41 -7.5160447,36.671628 -7.5160447,36.671628 -9.5859375,33.015625 -12.969058,30.190883 -16.777245,28.568823 -20.779297,26.820312 -25.5846,24.580948 -28.08934,22.325338 -31,18 -32.032408,13.676034 -31.986454,9.1554237 -30.113281,5.0625 -22.661497,-4.8402035 -10.415522,-2.6878767 0,0 Z"
       fill="#0d0d0d"
       transform="translate(527,856)"
       id="path13"
       inkscape:label="S"
       style="fill:#000000;fill-opacity:1" />
    <path
       d="m 0,0 c 2.1875,0.8125 2.1875,0.8125 3.1875,1.8125 1.3226203,15.077872 -4.8635714,31.188917 -14,43 -3.221467,3.142895 -5.519912,4.48799 -10,5 -3.194284,-4.259045 -3.601494,-7.852932 -3,-13 C -21.921712,24.37408 -15.865613,9.5150167 -5.875,1.4375 -2.8125,-0.1875 -2.8125,-0.1875 0,0 Z"
       fill="#f7f7f7"
       transform="translate(836.8125,420.1875)"
       id="path14"
       style="fill:#ffffff;fill-opacity:1" />
    <path
       d="M 0,0 C 2.8656402,5.7312803 0.30808585,12.029951 -1.5507812,17.707031 -1.9052734,18.752461 -2.2597656,19.797891 -2.625,20.875 -2.9562891,21.912695 -3.2875781,22.950391 -3.6289063,24.019531 -6.7108746,33.242176 -10.80441,41.420024 -19,47 c -2.875,0.8125 -2.875,0.8125 -5,1 -3.28768,-4.931521 -2.50306,-10.237103 -2,-16 2.597744,-12.210954 8.547327,-24.7912603 19,-32 2.6976563,-1.3488281 4.1516433,-0.80338265 7,0 z"
       fill="#f8f8f8"
       transform="translate(650,479)"
       id="path15"
       style="fill:#ffffff;fill-opacity:1" />
    <path
       d="m 0,0 c 2.6876197,1.6485616 3.5527573,3.2209512 4.8085937,6.109375 0.7569978,6.488552 -0.5499473,11.437454 -3.99999995,17 -4.30005185,4.853757 -9.12097155,7.036834 -15.49999975,7.4375 -3.78253,-0.06304 -4.377185,-0.337713 -7.5,-2.875 -0.66,-0.845625 -1.32,-1.69125 -2,-2.5625 -0.33,-0.33 -0.66,-0.66 -1,-1 -0.794774,-6.197224 -0.820581,-11.601468 2.5625,-17 C -16.989513,-0.13376179 -9.0470346,-3.6768697 0,0 Z"
       fill="#050505"
       transform="translate(450.19141,488.89062)"
       id="path16" />
    <path
       d="M 0,0 C 7.0912465,10.63687 3.9570101,31.366091 1.6875,43.4375 1.1706675,45.972498 0.59465949,48.480956 0,51 -0.2165625,52.04543 -0.433125,53.090859 -0.65625,54.167969 -2.8014546,63.834159 -6.0026169,75.783521 -13,83 c -0.99,0 -1.98,0 -3,0 1.089689,-27.405678 7.0373649,-57.059686 16,-83 z"
       fill="#f2f2f2"
       transform="translate(223,641)"
       id="path17"
       style="fill:#ffffff;fill-opacity:1" />
    <path
       d="M 0,0 C 4.0490629,1.3496876 5.7063526,4.0903997 8.1875,7.375 8.650918,7.9653906 9.1143359,8.5557813 9.5917969,9.1640625 13,13.62133 13,13.62133 13,17 11.984219,17.496289 10.968438,17.992578 9.921875,18.503906 1.4067688,22.695065 -6.8787488,27.07803 -15,32 -13.485936,26.831019 -11.194366,22.383815 -8.625,17.6875 -5.4945082,11.881054 -2.5473607,6.0915147 0,0 Z"
       fill="#f2f2f2"
       transform="translate(480,547)"
       id="path18"
       style="fill:#ffffff;fill-opacity:1" />
    <path
       d="M 0,0 C 0.68744251,6.8744252 -1.8932148,11.345531 -6.0585937,16.59375 -9.9848858,21.096075 -13.707737,25.160249 -19,28 c -0.66,0 -1.32,0 -2,0 1.807601,-11.026369 6.941913,-20.2326685 15,-28 2.4909281,-1.245464 3.4108073,-0.7767578 6,0 z"
       fill="#f3f3f3"
       transform="translate(379,564)"
       id="path19"
       style="fill:#ffffff;fill-opacity:1" />
    <path
       d="M 0,0 C 5.3333333,2.6666667 10.666667,5.3333333 16,8 13.793449,8.5078089 11.584664,9.0059137 9.375,9.5 8.1452344,9.7784375 6.9154687,10.056875 5.6484375,10.34375 2.3284777,10.940916 -0.63908451,11.124095 -4,11 -2.68,7.37 -1.36,3.74 0,0 Z"
       fill="#101010"
       transform="translate(731,520)"
       id="path23"
       style="fill:#000000;fill-opacity:1" />
    <path
       d="M 0,0 C 0.33,0.66 0.66,1.32 1,2 -0.72391843,5.5385694 -2.4843068,8.1387507 -6,10 -8.75,9.6875 -8.75,9.6875 -11,9 -9.5561342,5.2872022 -7.8776361,4.0513557 -4.375,2.25 -3.5577344,1.8220312 -2.7404687,1.3940625 -1.8984375,0.953125 -0.95871094,0.48132813 -0.95871094,0.48132813 0,0 Z"
       fill="#e3e4e3"
       transform="translate(494,574)"
       id="path24"
       style="fill:#ffffff;fill-opacity:1" />
  </g>
</svg>
