<?xml version="1.0" encoding="UTF-8" standalone="no"?>
<svg
   version="1.1"
   width="1024"
   height="1024"
   id="svg34"
   sodipodi:docname="logo.svg"
   inkscape:version="1.4.3 (0d15f750, 2025-12-25)"
   xmlns:inkscape="http://www.inkscape.org/namespaces/inkscape"
   xmlns:sodipodi="http://sodipodi.sourceforge.net/DTD/sodipodi-0.dtd"
   xmlns="http://www.w3.org/2000/svg"
   xmlns:svg="http://www.w3.org/2000/svg">
  <defs
     id="defs34" />
  <sodipodi:namedview
     id="namedview34"
     pagecolor="#ffffff"
     bordercolor="#000000"
     borderopacity="0.25"
     inkscape:showpageshadow="2"
     inkscape:pageopacity="0.0"
     inkscape:pagecheckerboard="0"
     inkscape:deskcolor="#d1d1d1"
     inkscape:zoom="0.7045763"
     inkscape:cx="432.88428"
     inkscape:cy="627.32738"
     inkscape:window-width="1512"
     inkscape:window-height="949"
     inkscape:window-x="0"
     inkscape:window-y="33"
     inkscape:window-maximized="0"
     inkscape:current-layer="layer2" />
  <g
     inkscape:groupmode="layer"
     id="layer1"
     inkscape:label="navigator" />
  <g
     inkscape:groupmode="layer"
     id="layer3"
     inkscape:label="text" />
  <g
     inkscape:groupmode="layer"
     id="layer2"
     inkscape:label="original"
     style="display:inline">
    <path
       id="path2"
       style="display:inline;fill:#020202;fill-opacity:0.93906808"
       inkscape:label="freistand"
       d="M 2.5625,-0.078125 0,0 c -4.9849019,0.09118723 -8.9512868,1.0027064 -13.4375,3.1875 -7.430891,4.3174569 -7.430891,4.3174569 -13.320312,25.546875 -0.601835,2.195148 -1.204705,4.388723 -1.833985,6.576172 -3.991401,13.720853 -3.993109,13.720365 -10.845703,42.5625 L -40,80.25 c -3,-1 -3,-0.999999 -6.179688,-1.167969 -1.866132,-0.0098 -1.866132,-0.0098 -3.695312,-0.01953 -4.590813,-0.05361 -8.007863,0.101934 -12.125,2.1875 -17.04914,10.539468 -28.613032,27.287289 -33.980469,46.511719 -1.260882,4.91689 -2.501436,9.65592 -4.796871,14.19922 -4.93677,9.14445 -9.93122,17.92859 -20.22266,21.28906 0.0572,-0.92715 0.0572,-0.92715 0.11328,-1.83594 0.0677,-0.86328 0.13352,-1.70117 0.19922,-2.53906 0.32453,-4.54336 1.50319,-8.61649 2.84375,-12.94336 2.81634,-8.94001 5.99397,-17.94721 7.37109,-27.24023 0.20487,-5.90846 -0.84378,-9.78849 -4.52734,-14.44141 -4.70834,-3.39439 -9.38299,-3.58417 -15,-3 -9.17882,4.58941 -15.48551,11.15696 -21.64453,19.20703 -0.46086,0.60961 -0.90817,1.20129 -1.35547,1.79297 -0.1875,-2.75 -0.1875,-2.75 -1,-6 -2,-2.375 -2,-2.375 -5,-4 -4.64179,-0.85186 -8.66862,-0.49589 -12.875,1.6875 -4.63821,3.43228 -6.25718,7.14184 -7.86133,12.62891 -0.19582,0.69984 -0.38611,1.37933 -0.57617,2.05859 -1.20333,4.16452 -2.35683,8.33842 -3.43555,12.53711 -0.38762,1.53399 -0.38762,1.5335 -0.76757,3.03711 -0.51752,2.03728 -1.03315,4.07504 -1.54688,6.11328 -1.46163,6.03751 -2.96762,11.64136 -5.91797,17.13477 -0.34673,0.61301 -0.683,1.20775 -1.01953,1.80273 -4.01458,7.2195 -8.25149,13.79362 -14.04297,19.70703 -2.46048,1.62559 -4.06577,1.54764 -6.95703,1.29297 -0.36313,-6.60613 0.55821,-12.12029 2.29297,-18.49609 L -210.75,168.375 c 1.75932,-6.48609 3.60023,-12.8659 5.96484,-19.16016 0.34391,-0.87531 0.67793,-1.72465 1.01172,-2.57422 1.32585,-4.09636 1.74837,-8.44075 -0.22656,-12.39062 -3.88364,-2.85562 -7.18894,-3.8341 -12,-4 -4.33121,1.26949 -7.06532,2.77324 -9.9375,6.1875 -0.70125,0.95625 -1.38187,1.88437 -2.0625,2.8125 l -3.5,-1.5 c -6.17529,-2.32533 -11.53202,-2.16884 -17.66406,0.41016 -20.57662,9.63508 -30.43328,29.65963 -37.96094,49.96484 -3.08892,8.68907 -7.01042,15.86321 -12.57617,23.20508 l -1.23633,1.60742 c -0.81454,1.09255 -1.63616,2.17986 -2.46484,3.26172 -3.27488,4.03277 -6.56276,7.82041 -11.91016,8.42578 -2.60115,-0.0878 -2.60115,-0.0878 -3.6875,-1.375 -0.56719,-7.58513 0.0537,-14.73327 1.77539,-22.12109 0.26762,-1.06408 0.52736,-2.09613 0.78711,-3.12891 0.5618,-2.25961 1.12567,-4.51871 1.69141,-6.77734 0.89492,-3.49842 1.74936,-6.98544 2.49218,-10.51954 1.48543,-7.26782 2.76065,-14.83712 6.25391,-21.45312 3.41832,-2.76763 5.7904,-3.50085 10.08203,-4.32422 3.80641,-0.65654 6.88608,-1.68072 10.41406,-3.18359 l 2.12891,-0.92969 c 5.42688,-2.13706 8.62242,-4.22208 11.375,-9.5625 0.77254,-3.47338 0.61904,-6.76192 -1,-10 -4.1558,-2.0779 -8.62344,-1.38075 -12.9375,-0.1875 -1.7982,0.69726 -3.60634,1.37117 -5.43359,1.98828 -1.62468,0.5348 -3.24844,1.0724 -4.8711,1.61328 -0.59765,0.19922 -1.17773,0.39258 -1.75781,0.58594 1.64499,-5.1543 3.3797,-10.53653 3,-16 -1.8125,-2.5625 -1.8125,-2.5625 -5,-4 -4.05631,-0.43233 -8.28346,-0.85827 -12,1 -7.50696,5.71182 -10.4526,11.81774 -13.1875,20.6875 -0.71502,2.53996 -1.49234,4.95324 -2.50391,7.39062 -3.30732,3.30166 -3.30732,3.30164 -8.00976,4.40626 -5.8038,1.30034 -12.48112,4.04441 -16.98242,7.99218 -2.53018,3.46625 -3.23841,7.31357 -3.31641,11.52344 0.9375,2.4375 0.9375,2.4375 3,4 5.67553,0.68498 9.9832,-0.39928 15.3125,-2.34375 0.57375,-0.22313 1.13063,-0.43969 1.6875,-0.65625 -0.9332,3.11493 -1.81794,6.21667 -2.55273,9.38477 -1.61611,7.33097 -3.08782,14.72634 -5.56836,21.82226 -4.51973,9.68066 -12.79132,20.52514 -22.87891,24.79297 -2.39152,-4.89174 -5.29257,-8.55979 -9,-12.5625 -3.79393,-3.98478 -8.44946,-8.14524 -9.39062,-13.77344 0.0478,-0.69328 0.0942,-1.36617 0.14062,-2.03906 l 0.25,-3.625 4,-2 c 0,2.67857 0,2.67857 3,6 1.8125,1 1.8125,1 4,1 5.44755,-2.66582 8.55439,-6.56297 11,-12 0.52784,-3.92108 0.36476,-6.77532 -2,-10 -2.99528,-2.83763 -4.73371,-3.85776 -8.85156,-4.32031 -11.27874,-0.19591 -20.6644,3.76768 -29.26953,11.13672 -6.54332,6.98051 -11.06288,14.93154 -11.1836,24.58593 -0.0312,9.74552 -2.17476,16.14 -7.16015,24.49219 -1.25675,2.03242 -2.50887,4.06162 -3.71094,6.12695 -1.83308,3.20063 -3.68776,6.38258 -5.625,9.52149 -5.95514,9.4687 -10.84861,17.7863 -22.19922,20.45703 1.50945,-14.86917 4.86486,-29.27253 9.8125,-43.375 1.62388,-4.42694 2.53518,-7.89383 2.1875,-12.625 -1,-2 -1,-2 -2.9375,-3.625 -5.40941,-2.42871 -10.76434,-2.06879 -16.375,-0.375 -7.79269,5.79921 -7.79269,5.79921 -13.32812,27.05078 -2.71876,10.62028 -5.26097,20.54049 -11.1836,29.86719 -0.73976,1.04789 -1.45777,2.06496 -2.17578,3.08203 -4.73917,6.72118 -9.40867,12.95025 -16,18 -7.20728,4.67524 -13.28376,8.286 -22,7 -2.87303,-4.03089 -2.87303,-4.03089 -4,-9 h 2 c 14.90761,-6.30707 27.82495,-17.39185 35.78125,-31.49219 3.42884,-7.05546 5.9989,-14.92598 3.52734,-22.67578 -2.16494,-4.97304 -4.13168,-6.78103 -9.30859,-8.83203 -7.53398,-0.99084 -14.80018,-0.56526 -21.71484,2.69531 -18.71844,10.68711 -30.10838,28.8339 -35.91016,49.05469 -2.14647,7.58117 -4.2957,14.10411 -8.62109,20.74219 -0.59633,0.85265 -1.17512,1.68023 -1.75391,2.50781 -1.72315,2.66202 -3.45794,5.292 -5.30859,7.86719 -3.6287,4.57568 -6.81303,7.17287 -12.69141,8.13281 -0.93694,-10.20227 2.08585,-18.32134 6.10352,-27.53125 0.40691,-0.92321 0.80232,-1.81878 1.19726,-2.71484 0.81376,-1.85663 1.63017,-3.71211 2.44922,-5.56641 2.99578,-6.51184 4.93913,-11.97384 5.25,-19.1875 -1.52663,-3.05326 -3.36984,-4.82726 -6,-7 -3.55945,-0.44493 -6.02547,-0.36525 -9.38672,0.89453 -1.31971,0.55826 -1.31971,0.55826 -2.61328,1.10547 -2.66276,1.0651 -5.32552,2.13021 -7.98828,3.19531 -0.68399,0.2736 -1.34785,0.53914 -2.01172,0.80469 1.42768,-4.28304 2.0964,-8.47754 2,-13 -1.5,-2.5625 -1.5,-2.5625 -4,-4 -3.33133,-0.83283 -5.79763,-1.35364 -9.125,-0.375 -5.19829,3.81208 -9.21122,8.54973 -11.78906,14.47656 -2.04115,5.55117 -3.58467,11.40141 -1.14844,17.08594 1.13652,1.81304 1.13652,1.81304 1.84375,3.96875 0.25597,3.32763 -0.66363,5.33109 -2.18164,8.25977 -0.35262,0.6448 -0.69486,1.27064 -1.03711,1.89648 -1.17363,2.23771 -2.35728,4.4664 -3.5625,6.6875 -0.22432,-2.73669 -0.4606,-5.31884 -1,-8 -1.1875,-2 -1.1875,-2 -3,-3 -3.19056,-0.35451 -5.55886,-0.13654 -8.625,0.8125 -7.61339,2.35008 -7.61339,2.35008 -15.375,4.1875 2.66987,-14.09806 7.11562,-28.19859 11.81641,-41.74609 0.40242,-1.10633 0.793,-2.18012 1.18359,-3.25391 1.47376,-4.07876 2.77518,-8.26761 5,-12 2.05936,-0.89334 2.05936,-0.89334 4,-1 -1.6325,6.25277 -3.578,12.52937 -4,19 l 2,2 c 2.8125,0.25 2.8125,0.25 6,0 4.0063,-0.97715 6.30294,-2.83786 8.79688,-6.12891 5.31997,-8.27363 6.67415,-17.1363 5.20312,-26.87109 -2.7015,-4.80642 -4.68401,-7.29129 -10,-9 -6.44851,-0.73568 -12.38017,-0.75122 -18.07031,2.61328 -22.01353,15.81944 -30.41802,43.00655 -36.74805,68.30078 -0.16784,0.68805 -0.33123,1.35563 -0.49414,2.02344 -0.57959,2.35002 -1.14467,4.70372 -1.6875,7.0625 -0.40217,2.49413 -0.82584,4.79745 -1.64062,7.1875 -3.25263,3.14489 -3.25263,3.14489 -7.54688,4.9375 -5.11087,2.09237 -9.4368,4.05683 -13.47656,7.875 -2.12353,3.17909 -2.07836,6.03036 -1.91016,9.76562 0.67727,2.6354 1.41255,3.60933 3.57422,5.23438 3.71536,0.89442 6.10155,1.32568 9.72656,0.0117 0.77297,-0.34399 1.52321,-0.67785 2.27344,-1.01172 -3.57113,11.36459 -6.09524,22.94516 -8.61719,34.57812 -0.62565,2.90967 -1.24968,5.81958 -1.89648,8.72461 -3.96238,17.69209 -11.44272,46.24587 -2.14649,63.13086 2.52383,3.16559 4.31152,5.26149 8.35547,6.17579 5.43695,0.14814 9.74041,-0.49737 14.30469,-3.60938 19.3149,-14.113 27.41721,-40.44401 31.625,-62.98242 0.12733,-0.68615 0.25141,-1.35162 0.375,-2.01758 1.55577,-7.72549 2.1269,-15.17556 2.23047,-23.04102 0.0104,-1.62078 0.009,-1.62029 0.0195,-3.20898 0.0815,-8.77158 -0.66662,-16.74559 -3.32031,-25.13281 L -649.125,310.125 c -0.36391,-0.95891 -0.71711,-1.88961 -1.07031,-2.82031 L -651,305.25 c 2,0 1.99952,0 4.0625,-0.73438 0.85249,-0.34531 1.6804,-0.68046 2.50781,-1.01562 0.92305,-0.37188 1.81895,-0.73281 2.71485,-1.09375 0.96554,-0.39313 1.90269,-0.77469 2.83984,-1.15625 2.69103,-1.08669 5.38148,-2.17351 8.07031,-3.26562 0.61343,-0.24969 1.2093,-0.49204 1.80469,-0.73438 -1.72739,3.30112 -3.00603,6.02736 -3.8125,9.6875 C -633,310.25 -633,310.25 -631,313.25 h 4 c 9.90667,-6.95012 16.3382,-22.65249 20.32031,-33.64453 0.2311,-0.80086 0.45539,-1.57817 0.67969,-2.35547 l 8,1 c -6.1393,12.44618 -13.04726,24.97541 -13.48047,39.11328 -0.007,0.8114 -0.0135,1.59918 -0.0195,2.38672 -0.0607,6.98617 0.79612,12.72496 5.875,17.9375 5.6119,2.41892 10.61419,2.42314 16.625,1.5625 13.45423,-4.00263 13.45423,-4.00263 29.34375,-26.625 1.50776,-2.16207 3.06248,-4.27589 4.65625,-6.375 0.94224,3.88673 2.82569,6.04157 5.6875,8.6875 6.17216,5.10646 12.52239,5.98022 20.3125,5.3125 16.77563,-3.59478 29.7961,-14.09958 40.25,-27.25 2.73561,-3.51253 5.50396,-6.70684 8.75,-9.75 1.74677,5.42419 3.02167,9.81387 8,13 6.64135,0.9993 13.19281,0.90856 19.04688,-2.62109 L -451,292.25 c 11.22804,-7.79725 18.64891,-17.95987 25.56641,-29.54297 0.48742,-0.83539 0.9605,-1.64621 1.43359,-2.45703 -0.34198,5.69975 -0.47254,10.18325 3,15 3.53734,2.92215 5.60221,3.87778 10.17188,4.27734 12.37648,0.12601 24.26182,-2.90385 33.82812,-11.15234 8.57794,-8.38697 14.1088,-17.11337 14.92188,-29.25391 0.0265,-0.63617 0.0523,-1.25363 0.0781,-1.87109 2,0 2,0 3.55078,-1.13672 0.59899,-0.52726 1.18035,-1.03902 1.76172,-1.55078 2.22537,-1.93533 4.32186,-3.94142 6.41797,-6.01953 0.77164,-0.77961 1.52058,-1.53629 2.26953,-2.29297 0.16239,1.79906 0.32894,3.59783 0.51562,5.39453 0.0797,0.75836 0.15708,1.49442 0.23438,2.23047 0.62185,7.16424 2.36457,11.63384 7.75,16.75 4.39002,2.03822 7.81962,2.12618 12.61328,1.9375 10.04536,-1.08745 18.9958,-8.61564 25.23047,-16.20312 0.56313,-0.71719 1.10969,-1.41329 1.65625,-2.10938 3.28562,-4.0931 6.51987,-8.19632 9.4375,-12.5625 0.78906,-1.23094 0.78906,-1.23094 1.5625,-2.4375 2.108,4.36525 4.13408,8.1547 7.625,11.5625 5.99254,2.55238 12.38977,2.34573 18.5625,0.3125 9.61465,-4.26883 16.86564,-12.05218 21.03906,-21.71484 0.39059,-1.09088 0.39059,-1.09088 0.77344,-2.16016 h 2 c 0,2.93103 0,2.93103 3,8 3.67965,3.34514 7.46517,3.58023 12.25391,3.40234 13.12542,-1.92307 20.98609,-11.74112 28.53125,-21.75 0.41304,-0.56179 0.81394,-1.10707 1.21484,-1.65234 0.25,2.8125 0.25,2.8125 1,6 1.5,1.875 1.5,1.875 4,3 5.85834,0.58153 10.64753,0.0351 16.02734,-2.33203 3.70059,-3.32129 3.70035,-3.32227 5.73438,-11.04688 0.54218,-2.24146 1.10634,-4.47587 1.68945,-6.70703 0.45087,-1.72164 0.45063,-1.72261 0.89258,-3.41015 3.58334,-14.10225 7.54164,-27.31349 14.64063,-40.125 3.00534,-5.20505 4.87778,-9.645 11.01562,-11.37891 -3.34251,10.82206 -6.63087,21.70838 -8.68359,32.86133 -1.28417,8.67801 -1.59429,17.78733 3.68359,25.13867 3.68685,3.34118 3.68685,3.34118 13.28125,3.30078 9.2878,-1.02753 16.65607,-7.83385 22.60547,-14.55273 0.5486,-0.63716 1.08082,-1.25462 1.61328,-1.87305 2.72226,-3.15169 5.09924,-6.00125 6.84375,-9.80469 0.331406,-1.04551 0.331406,-1.04551 0.65625,-2.07031 h 2 c 1.033845,4.82461 2.8661,7.8454 6.691406,10.85156 4.931954,2.45346 9.998824,2.07053 15.308594,1.14844 11.284779,-4.13388 17.618431,-11.8846 23.714844,-21.83984 0.436953,-0.73446 0.861054,-1.44731 1.285156,-2.16016 2.381544,3.26045 4.742823,6.18126 7.824219,8.80078 4.105948,2.26306 8.638651,1.79364 13.175781,1.19922 l 2,-1 c 5.45419,-2.68822 10.046164,-5.47937 14.199219,-9.95703 L -11,147.25 c 3.2268344,-3.50532 6.2809194,-7.08492 9,-11 6.9847588,-10.99394 17.795552,-26.66607 15,-40 -2.3125,-0.6875 -2.3125,-0.6875 -5,-1 -2.5807628,1.890234 -2.5802745,1.88974 -5.5996094,7.83594 -2.8201601,5.60741 -5.834939,11.05937 -9.2402344,16.33398 -0.4370361,0.66505 -0.8609741,1.30958 -1.2851562,1.95508 -3.091905,4.80837 -6.109682,8.62649 -10.875,11.875 -2.321716,-0.0338 -2.321716,-0.0338 -4,-1 -0.01196,-0.80883 -0.02356,-1.59387 -0.03516,-2.37891 -0.0138,-1.60771 -0.0138,-1.60771 -0.02734,-3.18359 3.053446,-26.48072 3.053446,-26.48121 11.109375,-52.128906 L -11,71.25 C -7.7628048,59.97297 -4.4683742,48.717185 -0.84179688,37.558594 l 0.75976563,-2.328125 C 1.1645242,31.405896 2.4125053,27.580822 3.6816406,23.763672 4.1594567,22.328357 4.6341595,20.893854 5.1074219,19.457031 L 5.7773438,17.421875 C 7.3546998,12.682584 8.4126885,8.213755 9,3.25 6.8220601,1.3342195 5.4726413,0.31362479 2.5625,-0.078125 Z m -53.423828,97.433594 c 0.443359,9.76e-4 0.970703,0.03516 1.673828,0.08203 C -47,98.25 -47,98.25 -46,99.25 c 1.32262,15.07787 -4.863571,31.18892 -14,43 -3.221467,3.1429 -5.519912,4.48799 -10,5 -3.194284,-4.25905 -3.601494,-7.85293 -3,-13 1.890788,-12.43842 7.946887,-27.29748 17.9375,-35.375 2.296875,-1.21875 2.871094,-1.522461 4.201172,-1.519531 z M -239.55664,155.44336 c 1.05675,0.0682 2.13246,0.40495 3.55664,0.80664 2.86564,5.73128 0.30809,12.02995 -1.55078,17.70703 l -1.07422,3.16797 -1.00391,3.14453 c -3.08196,9.22265 -7.1755,17.40049 -15.37109,22.98047 -2.875,0.8125 -2.875,0.8125 -5,1 -3.28768,-4.93152 -2.50306,-10.2371 -2,-16 2.59774,-12.21095 8.54733,-24.79126 19,-32 1.34883,-0.67441 2.38661,-0.87482 3.44336,-0.80664 z m -202.81055,9.23828 c -6.31488,-0.21516 -11.84077,3.13601 -16.07031,8.56836 -3.38308,5.39853 -3.35727,10.80278 -2.5625,17 l 1,1 2,2.5625 c 3.12282,2.53729 3.71747,2.81196 7.5,2.875 6.37903,-0.40067 11.19995,-2.58374 15.5,-7.4375 3.45005,-5.56255 4.757,-10.51145 4,-17 -1.25584,-2.88842 -2.12097,-4.46081 -4.80859,-6.10938 -2.26176,-0.91921 -4.45364,-1.38726 -6.5586,-1.45898 z M -406,224.25 c 4.04906,1.34969 5.70635,4.0904 8.1875,7.375 l 1.4043,1.78906 C -393,237.87133 -393,237.87133 -393,241.25 l -3.07812,1.50391 c -8.51511,4.19116 -16.80063,8.57412 -24.92188,13.49609 1.51406,-5.16898 3.80563,-9.61618 6.375,-14.3125 3.13049,-5.80645 6.07764,-11.59599 8.625,-17.6875 z m -104.36133,16.23242 c 0.97678,-0.008 1.90491,0.33065 3.36133,0.76758 0.68744,6.87443 -1.89321,11.34553 -6.05859,16.59375 -3.9263,4.50233 -7.64915,8.5665 -12.94141,11.40625 h -2 c 1.8076,-11.02637 6.94191,-20.23267 15,-28 1.08978,-0.54489 1.87896,-0.76114 2.63867,-0.76758 z M -392,251.25 l 1,2 c -1.72392,3.53857 -3.48431,6.13875 -7,8 -2.75,-0.3125 -2.75,-0.3125 -5,-1 1.44387,-3.7128 3.12236,-4.94864 6.625,-6.75 l 2.47656,-1.29688 z m -271,67 c 7.09125,10.63687 3.95701,31.36609 1.6875,43.4375 -0.51683,2.535 -1.09284,5.04346 -1.6875,7.5625 l -0.65625,3.16797 c -2.1452,9.66619 -5.34637,21.61555 -12.34375,28.83203 h -3 c 1.08969,-27.40568 7.03736,-57.05969 16,-83 z"
       transform="translate(886,322.75)" />
    <path
       id="path3"
       style="display:inline;fill:#020202;fill-opacity:0.93906808"
       d="M 0,0 -0.48046875,2.2539062 -1.1875,5.5625 C -1.9651089,9.2059445 -2.7446351,12.849524 -3.5527344,16.486328 -6.069039,27.749786 -8.4277167,39.020615 -10.5,50.375 c -1.934028,10.615383 -3.98001,21.201118 -6.117188,31.777344 -0.885356,4.375278 -1.764915,8.750912 -2.636718,13.128906 -0.297531,1.494799 -0.594774,2.989631 -0.892578,4.484375 -0.451391,2.265335 -0.902382,4.531495 -1.353516,6.796875 -1.51716,7.63486 -3.041279,15.26817 -4.638672,22.88672 C -29.390286,144.94159 -32.473351,160.46221 -35.5,176 c -2.65292,13.61919 -5.314968,27.23359 -8.167969,40.8125 -1.601235,7.61788 -3.142939,15.23784 -4.548828,22.89453 L -48.8125,243 c -0.60419,3.3005 -1.209161,6.60098 -1.808594,9.90234 L -51,255 c -1.888421,-1.39662 -3.757217,-2.79811 -5.564453,-4.29883 l -1.501953,-1.30273 -1.703125,-1.47071 c -5.685078,-4.92279 -11.417517,-9.77443 -17.253907,-14.51757 -2.277732,-1.84431 -4.553673,-3.69073 -6.828124,-5.53907 -1.382788,-1.12373 -2.7656,-2.24742 -4.148438,-3.37109 -4.609677,-3.74331 -9.21692,-7.48938 -13.8125,-11.25 -1.72906,-1.4168 -3.45822,-2.83347 -5.1875,-4.25 -4.68228,-3.82047 -9.36627,-7.63785 -14.00781,-11.50781 -3.8077,-3.18444 -7.60247,-6.38172 -11.48047,-9.48047 -4.23625,-3.34878 -8.39995,-6.75362 -12.48438,-10.28516 -5.28952,-4.57999 -10.62758,-9.05699 -16.15234,-13.35156 -2.89747,-2.24108 -5.79687,-4.47197 -8.60547,-6.82422 l -1.71094,-1.46094 c -1.08356,-0.92398 -2.16566,-1.84969 -3.24609,-2.77734 C -177.77263,150.62814 -178.88147,149 -183,149 l 2.12891,2.98047 c 0.95728,1.33966 1.9143,2.67952 2.87109,4.01953 7.60022,10.67832 15.36999,21.18388 23.46094,31.49609 2.95688,3.76101 5.90271,7.52976 8.84179,11.30469 l 1.75977,2.26172 c 6.6977,8.60641 13.32612,17.26468 19.9375,25.9375 6.10498,8.01132 12.20378,16.02565 18.4375,23.9375 3.60301,4.56766 7.190149,9.1464 10.759766,13.74023 5.940209,7.64867 11.898985,15.28259 17.888672,22.89258 L -75,290 c -6.196613,-0.24786 -12.038253,0.47503 -18.164062,1.40234 -2.571016,0.4002 -5.142002,0.79533 -7.714848,1.1836 -2.67152,0.40213 -5.34305,0.80684 -8.01367,1.21484 -10.36353,1.58366 -20.72635,3.17148 -31.10742,4.63672 -9.58532,1.35094 -19.16266,2.75352 -28.74023,4.1582 -10.50585,1.54095 -21.01076,3.09406 -31.52344,4.58789 -9.97088,1.41259 -19.93856,2.84851 -29.9043,4.29688 l -2.70703,0.39453 c -9.30264,1.3522 -18.60599,2.69828 -27.88477,4.20703 l -2.11523,0.34766 c -2.66725,0.43674 -5.33373,0.87755 -8,1.32031 -6.95985,1.19011 -13.8967,2.25979 -20.92188,2.9707 -9.59143,0.95368 -19.07918,2.24003 -28.5957,3.76563 -9.83958,1.57785 -19.67934,3.16139 -29.5625,4.44336 l -2.20508,0.28125 c -2.7377,0.35111 -5.47567,0.69961 -8.21484,1.03906 l -3.85156,0.45703 -3.48438,0.43359 c -3.04052,0.36037 -3.04052,0.36036 -5.28906,0.85938 l -1,2 c 6.42983,1.19656 12.86615,2.32281 19.32617,3.34375 6.54663,1.02894 13.08849,2.07706 19.62695,3.1543 2.42488,0.39951 4.84973,0.80358 7.27344,1.21093 5.61886,0.94515 11.23869,1.8758 16.86133,2.79493 7.09293,1.15948 14.18996,2.3006 21.28906,3.42578 0.008,0.001 0.0169,0.003 0.0254,0.004 13.52408,2.14247 27.04633,4.29025 40.56055,6.49414 2.51938,0.41123 5.03903,0.82233 7.55859,1.23243 9.62362,1.56545 19.24666,3.1364 28.86719,4.7207 6.15584,1.01379 12.31174,2.02459 18.46875,3.03125 3.88106,0.63403 7.76264,1.26741 11.64258,1.9082 3.72259,0.6162 7.44584,1.23078 11.16992,1.83789 1.39557,0.22693 2.79016,0.45361 4.18555,0.68164 10.16065,1.6953 19.19734,3.47589 29.14453,0.16016 v -2 c -6.2536,-0.94557 -12.50443,-1.91184 -18.74609,-2.93359 l -2.04688,-0.33594 c -0.81195,-0.13335 -1.6236,-0.26702 -2.43555,-0.40039 -9.33452,-1.73933 -18.68973,-3.29716 -28.08398,-4.7207 -15.93574,-2.40792 -31.85453,-4.89867 -47.76562,-7.46485 -2.40551,-0.38807 -4.81122,-0.7765 -7.2168,-1.16406 -4.77673,-0.76935 -9.55345,-1.53863 -14.33008,-2.30859 -9.62945,-1.55244 -19.25956,-3.1061 -28.89062,-4.64844 -1.87008,-0.29918 -3.73938,-0.59881 -5.60938,-0.89844 -3.81821,-0.6161 -7.63765,-1.21541 -11.45898,-1.79883 C -315.3913,337.56381 -326.19673,335.78927 -337,334 c 5.98379,-0.60222 11.93743,-1.10862 17.95117,-1.24023 l 2.46289,-0.041 c 2.97051,-0.0584 5.94145,-0.11396 8.91211,-0.16406 L -304.375,332.5 c 23.74626,-0.41863 47.49334,-0.65554 71.24219,-0.87305 8.00203,-0.0729 16.00392,-0.14992 24.00586,-0.23242 4.55489,-0.047 9.1111,-0.0931 13.66601,-0.13867 l 3.38672,-0.0332 c 13.44478,-0.13456 26.88845,-0.24473 40.33399,-0.23243 5.93177,0.006 11.86319,-0.002 17.79492,-0.0254 4.55229,-0.0204 9.10406,-0.0329 13.65625,0.01 2.78772,0.0263 5.57354,0.0334 8.36133,0.0156 l 3.81835,-0.0254 c 4.1637,0.0803 8.09929,0.2525 12.10938,-0.96484 1.924279,-1.91556 2.99794,-3.64146 4.144531,-6.09375 2.660808,-3.93428 2.660564,-3.93372 6.703125,-6.58594 8.420394,-5.16532 16.41926,-7.12516 26.328125,-4.8125 7.55223,2.91372 11.358599,7.79274 14.941407,14.69922 L -43,329 c 8.851064,1.7234 8.851064,1.7234 26,-9 v -2 c -2.011309,-0.87171 -2.010836,-0.87254 -3.289062,-2.30469 -2.949011,-3.32623 -5.938625,-6.60814 -8.978516,-9.85156 -1.394921,-1.48495 -2.784871,-2.97459 -4.169922,-4.46875 -4.454242,-5.04912 -8.847465,-10.1356 -14.273438,-14.16992 -5.50265,-2.8986 -5.503078,-2.89873 -17.617187,-0.86719 L -69,287 c -1.085734,-1.0475 -1.086222,-1.04677 -2.224609,-2.54297 l -1.548829,-2 -1.732421,-2.23437 c -4.602163,-5.93897 -9.209936,-11.87305 -13.851563,-17.78125 L -89.6875,260.75 c -1.770144,-2.25054 -3.541064,-4.50047 -5.3125,-6.75 -7.76559,-9.86143 -15.48875,-19.75577 -23.18945,-29.66797 -2.40727,-3.09895 -4.8128,-6.19841 -7.22071,-9.29687 L -127.1875,212.75 c -3.78576,-4.87109 -7.58108,-9.7337 -11.39844,-14.58008 C -142.79368,192.83034 -146.95576,187.46519 -151,182 c 4.76229,5.59569 9.75572,10.85618 15,16 3.24684,3.18464 6.5386,6.3261 9.53125,9.75391 5.14284,6.07432 5.14284,6.07432 20.46875,21.24609 2.01874,1.99843 4.03733,3.9982 6.052734,6 L -98,236.9375 c 3.915188,3.89063 7.73404,7.79179 11.3125,12 1.488282,1.8398 0.314453,0.52539 1.513672,1.74805 l 1.294922,1.42578 c 1.242854,1.20909 1.804315,1.81384 3.173828,3.39453 l 1.818359,1.76758 2.019531,1.98437 c 5.887124,5.71708 11.665872,11.48122 17.117188,17.61719 2.810716,3.20352 4.903033,5.34893 8.75,7.125 3.249891,-14.16816 6.135347,-28.40235 8.972656,-42.6582 0.524045,-2.63387 1.048524,-5.2688 1.574219,-7.90235 3.317206,-16.61776 6.60037,-33.24156 9.828125,-49.87695 2.43105,-12.53588 4.92934,-25.05306 7.541016,-37.55273 1.631866,-7.80776 3.217431,-15.62366 4.771484,-23.44727 1.011898,-5.09833 2.017974,-10.19619 3.113281,-15.27734 1.642328,-7.422599 3.071795,-14.872286 4.449219,-22.34766 1.9471802,-10.631028 3.9342434,-21.254296 5.9472656,-31.873047 0.320861,-1.692458 0.6423083,-3.383661 0.9628906,-5.076172 C -2.8937614,42.992337 -1.9470513,37.995761 -1,33 c 0.10378856,24.811578 0.21033965,49.624003 0.32226562,74.43555 0.0547252,12.12218 0.10971248,24.24303 0.16015626,36.36523 C -0.28352297,200.20537 0.01773069,256.60277 1,313 3.2914417,312.49793 4.7117117,312.25366 6.4960938,310.68359 12.498252,303.96429 18.464001,299.80507 27,297 c 2.44824,-0.60416 4.666073,-1.27569 6.976562,-2.28906 2.784015,-2.35405 2.784014,-2.35405 5.148438,-8.89844 9.521783,-17.39147 9.521783,-17.39147 25.1875,-30.1875 3.562165,-2.88294 7.089236,-5.79726 10.580078,-8.76562 3.540464,-3.01486 7.078165,-6.02883 10.697266,-8.94922 4.681825,-3.71056 9.297363,-7.47769 13.847656,-11.34766 3.0977,-2.63618 6.19866,-5.26407 9.34375,-7.84375 5.13657,-4.16968 10.207,-8.40059 15.21875,-12.71875 4.27012,-3.67996 8.56738,-7.31416 12.9375,-10.875 3.11395,-2.52893 6.20548,-5.0753 9.25,-7.6875 L 149,185 147.05859,186.90625 144.4375,189.5 c -2.41171,2.37868 -4.77751,4.74387 -7.00586,7.29492 -3.97137,4.62653 -8.12668,8.98091 -12.45898,13.27149 -5.37847,5.29349 -10.80797,10.50881 -15.75391,16.21484 -1.89912,2.21233 -3.80317,4.31709 -5.84375,6.40625 -3.782993,3.68344 -7.500634,7.36399 -10.9375,11.375 -2.60761,3.06084 -5.372489,5.87872 -8.25,8.6875 -2.725359,2.60809 -4.703363,4.76346 -6.1875,8.25 5.443979,0.75611 7.876338,2.90188 11.75,6.6875 L 92,270 c 2,-1 2,-1 3.59375,-2.82812 L 97.5,264.75 c 5.62682,-7.14291 11.19342,-14.3352 16.64453,-21.61328 3.903,-5.23538 7.84841,-10.42968 11.86524,-15.57813 C 131.0678,221.0827 136.09102,214.5898 141,208 c 3.66144,-4.91818 7.37716,-9.78594 11.16016,-14.61133 5.33815,-6.80474 10.55435,-13.6688 15.58984,-20.70117 3.88158,-5.43562 7.82271,-10.80075 11.9375,-16.0625 2.45995,-3.11621 4.70019,-5.98653 6.3125,-9.625 -10.06218,7.02013 -19.63654,14.57578 -28.90625,22.60547 -3.50974,3.04073 -7.05213,6.0277 -10.65625,8.95703 -3.45482,2.80546 -6.8782,5.64229 -10.27148,8.52148 -3.64328,3.09665 -7.28508,6.19169 -10.97852,9.22852 C 118.04961,202.12241 111.01235,208.03992 104,214 c -5.234732,4.44922 -10.455583,8.91494 -15.769531,13.26953 -4.47565,3.63688 -8.913945,7.30343 -13.275391,11.07617 C 67.486631,244.80955 59.817733,250.96442 52,257 c 0,-2.21085 -2.44e-4,-2.21085 -1.167969,-7.6582 C 47.34842,233.22784 44.094953,217.06573 41.123047,200.84961 39.585186,192.43533 38.039051,184.02892 36.277344,175.6582 33.969049,164.77733 31.77133,153.87778 29.640625,142.96094 L 29.125,140.3125 C 26.336067,126.00313 23.591977,111.68569 20.912109,97.355469 19.219525,88.295859 17.462024,79.251065 15.648438,70.214844 14.286663,63.439464 12.930658,56.662737 11.601562,49.880859 10.653715,45.0363 9.7028483,40.192802 8.7480469,35.349609 8.2688126,32.920715 7.7903044,30.491676 7.3125,28.0625 6.5858515,24.327137 5.8587629,20.592579 5.1210938,16.859375 L 4.4257812,13.347656 3.7753906,9.9707031 3.1582031,6.8789062 C 2.5159686,3.6028689 2.3895421,2.389542 0,0 Z m 327.2168,334.63672 c -2.14811,0.0839 -3.50425,0.56984 -5.86914,2.26953 -2.35944,2.25262 -2.35871,2.25213 -5.61719,3.94531 C 304.91356,346.26598 294.24665,350.58376 282,347 l -2.9375,-0.875 C 276,346 276,346 273.8125,347.9375 c -2.48826,2.91249 -5.31763,4.96956 -8.4375,7.1875 -3.04086,2.1411 -5.78866,4.20963 -8.375,6.875 10.71024,-1.25006 21.26592,-3.08395 31.86133,-5.07031 20.17032,-3.79902 40.35911,-7.36735 60.63086,-10.57813 7.94023,-1.25373 15.87054,-2.56161 23.79883,-3.88867 L 375.3125,342.125 C 379.54185,341.41777 383.77111,340.70998 388,340 v -2 c -5.69636,-0.35963 -11.39294,-0.71542 -17.08984,-1.06641 -2.34508,-0.14413 -4.69013,-0.28867 -7.03516,-0.43359 -7.69281,-0.48576 -15.38598,-0.96259 -23.08398,-1.35938 L 338,335 c -1.52164,-0.0813 -3.04442,-0.1598 -4.56641,-0.23438 l -3.73828,-0.10937 c -0.95922,-0.0313 -1.76248,-0.0475 -2.47851,-0.0195 z M 220,357 l -4,11 c 3.36092,0.1241 6.32848,-0.0591 9.64844,-0.65625 L 229.375,366.5 c 2.20966,-0.49409 4.41845,-0.99219 6.625,-1.5 z M 99.365234,411.10938 C 98.718338,411.14005 98.25,411.375 97,412 c 0,2 0,2 1.132812,3.64062 1.052745,1.33025 2.100288,2.66563 3.124998,4.01758 6.00801,7.97494 12.10398,15.86593 18.42969,23.5918 3.455,4.21292 6.87372,8.43916 10.16797,12.7793 5.05048,6.6744 10.3868,13.04463 15.87109,19.36523 L 148,478 c -4.09627,-3.01196 -7.52767,-6.35411 -10.92188,-10.14844 C 133.48586,463.78663 129.94186,459.73439 126,456 c -4.30198,-3.46284 -8.20547,-7.13064 -12.06641,-11.08008 -1.53608,-1.57913 -3.07652,-3.15379 -4.62109,-4.72461 -2.48197,-2.5205 -4.96135,-5.04409 -7.4375,-7.57031 -2.480013,-2.55108 -4.960587,-5.09973 -7.458984,-7.63281 l -2.361328,-2.39063 -2.267579,-2.35351 -2.123047,-2.13672 C 85.807831,416.21231 85.807342,416.2128 84,415 c -3.02066,0.28514 -3.02066,0.28514 -9.328125,3.93164 L 72.75,420.0625 C 70.496973,421.37006 68.246642,422.68145 66,424 v 2 l 2.027344,1.70703 c 1.510617,1.09292 3.021262,2.18723 4.52539,3.28906 l 1.716797,1.26172 c 3.276585,2.3981 6.514106,4.84313 9.740235,7.3086 L 86.125,441.1875 c 7.476149,5.7213 14.91444,11.49039 22.33984,17.27734 4.50891,3.51534 9.02159,7.02581 13.53516,10.53516 3.76274,2.92485 7.52702,5.84798 11.2832,8.78125 7.85675,6.13986 15.7226,12.25842 23.7168,18.21875 8.29541,6.18003 16.45361,12.53167 24.60156,18.9043 0.47547,0.37221 0.93696,0.73444 1.39844,1.0957 0.34,-0.68001 0.67,-1.34001 1,-2 -2.17111,-2.93064 -4.40776,-5.80604 -6.66602,-8.66992 -3.78418,-4.79494 -7.55292,-9.5997 -11.26953,-14.44727 -5.07359,-6.62419 -10.2305,-13.17313 -15.49804,-19.64453 -6.31008,-7.744 -12.59647,-15.49789 -18.75,-23.36719 -1.96384,-2.5117 -3.93402,-5.0181 -5.92579,-7.50781 -2.82071,-3.50333 -5.63067,-7.0103 -8.35937,-10.58594 -3.15797,-4.1448 -6.33198,-8.27426 -9.58203,-12.34765 L 106.125,415.25 c -1.71475,-2.05081 -2.68146,-3.08597 -5.19531,-4.01562 -0.72364,-0.0879 -1.176318,-0.14341 -1.564456,-0.125 z M 46,432 c -4.484083,0 -5.587351,1.55238 -6.796875,5.78516 l -0.597656,3.41796 -0.697266,3.86133 c -0.364343,2.11575 -0.727915,4.23031 -1.105469,6.34375 -0.40058,2.21806 -0.801681,4.43604 -1.201172,6.6543 -1.214945,6.82261 -2.48464,13.63075 -3.80664,20.43359 -0.49656,2.54318 -0.990656,5.08713 -1.484375,7.63086 -1.022043,5.26727 -2.048252,10.53309 -3.078125,15.79883 -0.667531,3.41221 -1.333923,6.82579 -2,10.23828 L 24.8125,514.3125 C 22.847567,524.37984 20.910201,534.45142 19,544.5293 l -0.714844,3.77539 c -1.204138,6.35907 -2.4085,12.71806 -3.607422,19.07812 -0.452727,2.4022 -0.905838,4.80498 -1.359375,7.20703 -0.227986,1.20611 -0.448641,2.37624 -0.669921,3.54688 -1.280441,6.7797 -2.574625,13.55431 -3.9550786,20.31445 C 7.6587054,603.46574 7.657729,603.46623 5,617 L 1,642 0,443 c -12.715012,5.77955 -23.415583,9.30376 -37.210938,9.92188 -0.948282,0.0266 -1.868671,0.0523 -2.789062,0.0781 0,2.81197 0.358813,5.36979 0.849609,8.13086 l 0.384766,2.11133 c 0.42772,2.38585 0.857459,4.77145 1.291016,7.15625 L -37,473 c 1.030321,5.6454 2.06666,11.29011 3.107422,16.93359 3.049177,16.52582 6.085023,33.05225 9.037109,49.59571 3.205356,17.96594 6.525011,35.91013 9.875,53.84961 1.60502,8.59355 3.197181,17.18931 4.779297,25.78711 0.4415751,2.40064 0.883315,4.80077 1.326172,7.20117 1.219844,6.60771 2.4443254,13.21629 3.6308594,19.83008 0.240458,1.34344 0.4800381,2.68589 0.7207031,4.02929 0.445498,2.46611 0.8908225,4.93226 1.3359375,7.39844 l 0.5898438,3.35938 c 0.188345,1.03859 0.3718824,2.04664 0.5546874,3.05468 C -1.4490258,667.37841 -0.64484,670.02649 1,673 c 3.36081,-16.42831 3.3608102,-16.42831 9.925781,-51.29492 1.628593,-8.6501 3.259584,-17.29959 4.890625,-25.94922 0.644593,-3.41822 1.287963,-6.83747 1.931641,-10.25586 2.02486,-10.7546 4.056159,-21.50609 6.126953,-32.25195 1.657644,-8.59505 3.308917,-17.19173 4.923828,-25.79493 l 0.595703,-3.17968 c 0.398545,-2.12573 0.79682,-4.25122 1.195313,-6.37696 l 0.605468,-3.22851 0.617188,-3.29297 c 2.278352,-12.15428 4.549991,-24.30861 7,-36.42969 l 0.578125,-2.84765 c 0.887566,-4.37716 1.773397,-8.75485 2.685547,-13.12696 C 43.950106,450.00047 45.553297,441.18025 46,432 Z"
       transform="translate(511,163)"
       inkscape:label="navigator" />
    <path
       d="m 0,0 c 5.94,0 11.88,0 18,0 -0.33,1.32 -0.66,2.64 -1,4 -1.32,0 -2.64,0 -4,0 2.64,9.24 5.28,18.48 8,28 2.97,-10.23 5.94,-20.46 9,-31 1.65,-0.33 3.3,-0.66 5,-1 2.651524,6.722633 4.698094,13.555769 6.6875,20.5 0.320332,1.108594 0.640664,2.217188 0.970703,3.359375 C 43.441624,26.572117 44.222148,29.285657 45,32 c 1.728162,-5.014899 3.200182,-10.080522 4.625,-15.1875 0.229453,-0.806309 0.458906,-1.612617 0.695312,-2.443359 0.216563,-0.775371 0.433125,-1.550743 0.65625,-2.34961 0.196744,-0.700202 0.393487,-1.400405 0.596192,-2.1218259 C 52.10982,7.8364105 52.10982,7.8364105 52,5 50.68,4.67 49.36,4.34 48,4 c 0,-1.32 0,-2.64 0,-4 4.95,0 9.9,0 15,0 -0.33,1.32 -0.66,2.64 -1,4 -0.634138,0.2720728 -1.268276,0.5441455 -1.921631,0.8244629 -2.395859,1.0729798 -2.395859,1.0729798 -3.311035,4.1655273 -0.337009,1.2601388 -0.674019,2.5202788 -1.02124,3.8186038 -0.18699,0.681355 -0.373979,1.36271 -0.566635,2.064712 -0.59574,2.184307 -1.169112,4.373784 -1.741959,6.564194 -0.388505,1.43985 -0.778465,2.879309 -1.169922,4.318359 -0.934045,3.445449 -1.851224,6.895106 -2.763489,10.346375 C 48.360369,40.408045 47.178344,44.703561 46,49 44.35,49 42.7,49 41,49 38.740844,44.056889 37.16783,39.285863 35.9375,34 35.614456,32.645552 35.290246,31.291383 34.964844,29.9375 34.808706,29.281367 34.652568,28.625234 34.491699,27.949219 34.00879,26.034847 33.444421,24.141617 32.878906,22.25 32,19 32,19 32,15 c -0.66,0 -1.32,0 -2,0 -0.139219,1.336113 -0.139219,1.336113 -0.28125,2.699219 C 28.88412,23.534279 27.114395,29.155635 25.5,34.8125 25.018535,36.528564 25.018535,36.528564 24.527344,38.279297 22.143187,46.713627 22.143187,46.713627 21,49 19.35,49 17.7,49 16,49 15.614611,47.57905 15.614611,47.57905 15.221436,46.129395 14.255487,42.569298 13.287781,39.00968 12.31958,35.450195 11.903095,33.918096 11.487068,32.385873 11.071533,30.853516 9.8985849,26.52871 8.7126502,22.207819 7.5150757,17.889771 7.0511291,16.187589 6.6130492,14.478407 6.1782227,12.768555 5.9402295,11.872979 5.7022363,10.977402 5.4570312,10.054688 5.2672974,9.304292 5.0775635,8.5538965 4.8820801,7.7807617 3.7186143,5.4319327 2.3904476,4.9349007 0,4 0,2.68 0,1.36 0,0 Z"
       fill="#0f0f0f"
       transform="translate(61,474)"
       id="path7"
       inkscape:label="W"
       style="display:inline;fill:#020202;fill-opacity:0.93906808" />
    <path
       d="m 0,0 c 0,4.29 0,8.58 0,13 -1.65,0 -3.3,0 -5,0 C -5.66,10.03 -6.32,7.06 -7,4 -8.7704969,3.945893 -10.541468,3.907159 -12.3125,3.875 -13.298633,3.851797 -14.284766,3.828594 -15.300781,3.804688 -18.224065,3.7931736 -18.224065,3.7931736 -21,6 c -0.751281,4.098011 -0.751281,4.098011 0,8 2.299513,2.33145 5.075319,3.581141 8,5 12.92297174,6.648131 12.92297174,6.648131 15,11 0.6395864,4.598931 0.5948057,8.559944 -1.1875,12.875 -4.3283824,5.074655 -8.6128231,7.752711 -15.324219,8.347656 C -20.99835,51.430735 -25.973648,50.371024 -32,48 c 0,-4.62 0,-9.24 0,-14 1.65,0 3.3,0 5,0 0.66,3.3 1.32,6.6 2,10 4.916589,1.229147 9.587139,1.866155 14.4375,0.125 C -8.8410673,43.069259 -8.8410673,43.069259 -8,41 -7.5160447,36.671628 -7.5160447,36.671628 -9.5859375,33.015625 -12.969058,30.190883 -16.777245,28.568823 -20.779297,26.820312 -25.5846,24.580948 -28.08934,22.325338 -31,18 -32.032408,13.676034 -31.986454,9.1554237 -30.113281,5.0625 -22.661497,-4.8402035 -10.415522,-2.6878767 0,0 Z"
       fill="#0d0d0d"
       transform="translate(527,856)"
       id="path13"
       inkscape:label="S"
       style="fill:#020202;fill-opacity:0.93906808" />
    <path
       d="m 0,0 c 4.956375,2.9660958 8.1303964,7.2732018 11.003906,12.199219 2.319388,9.29291 1.418961,17.530325 -2.9999997,26 -3.242278,5.326599 -8.11665202,7.857839 -13.9921875,9.585937 -7.0524808,1.454403 -12.4601868,0.43318 -18.7734378,-3.027344 -4.83873,-3.375268 -7.414363,-8.027339 -9.234375,-13.558593 -0.854989,-8.699023 -0.828391,-17.416586 4,-25.0000003 C -21.922053,-3.1938484 -10.952969,-5.4288627 0,0 Z m -20.996094,6.1992187 c -4.854711,7.3876033 -5.049262,15.2613413 -3.492187,23.7773433 1.446623,5.528761 3.453816,9.184285 7.492187,13.222657 3.109534,1.554767 5.562668,1.286444 9.0000003,1 4.913188,-2.456594 6.9910177,-4.924677 8.9999999,-10 C 3.5315878,26.347272 3.3300952,15.813344 -0.24609375,8.3867188 -2.0380368,5.1733887 -3.84673,3.1304324 -6.9960937,1.1992187 c -6.1562343,-0.79435274 -9.9803153,-0.066229 -14.0000003,5 z"
       fill="#0b0c0b"
       transform="translate(950.99609,475.80078)"
       id="path11"
       inkscape:label="O"
       style="display:inline;fill:#020202;fill-opacity:0.93906808" />
    <path
       d="m 0,0 c 4.9027218,-0.87635544 9.1209036,-1.112832 14,0 4.442485,3.9385273 7.202879,8.667426 10.1875,13.75 0.821557,1.317992 1.6477,2.633137 2.478516,3.945312 1.519823,2.410342 3.009219,4.834609 4.471435,7.280274 C 33.081789,28.235982 33.081789,28.235982 36,32 36,23.09 36,14.18 36,5 34.68,4.34 33.36,3.68 32,3 c 0,-0.99 0,-1.98 0,-3 4.95,0 9.9,0 15,0 0,0.99 0,1.98 0,3 -1.32,0.33 -2.64,0.66 -4,1 -0.33,14.52 -0.66,29.04 -1,44 -1.98,0 -3.96,0 -6,0 C 34.14467,45.903223 32.890597,44.132545 31.5,41.75 30.650366,40.384703 29.797299,39.021538 28.941406,37.660156 28.480083,36.917817 28.01876,36.175479 27.543457,35.410645 24.656333,30.901397 21.531846,26.555896 18.4375,22.1875 17.226512,20.473611 16.016779,18.758835 14.808594,17.042969 14.290955,16.311023 13.773315,15.579077 13.23999,14.824951 12,13 12,13 11,11 c 0,10.56 0,21.12 0,32 1.65,0.66 3.3,1.32 5,2 0,0.99 0,1.98 0,3 C 10.72,48 5.44,48 0,48 0,47.01 0,46.02 0,45 2.475,44.505 2.475,44.505 5,44 5,31.13 5,18.26 5,5 2.525,4.01 2.525,4.01 0,3 0,2.01 0,1.02 0,0 Z"
       fill="#0c0c0c"
       transform="translate(489,102)"
       id="path12"
       inkscape:label="N"
       style="fill:#020202;fill-opacity:0.93906808" />
  </g>
</svg>
