<?xml version="1.0" encoding="UTF-8" standalone="no"?>
<svg
   version="1.1"
   width="1024"
   height="1024"
   id="svg34"
   sodipodi:docname="logo.svg"
   inkscape:version="1.4.3 (0d15f750, 2025-12-25)"
   xmlns:inkscape="http://www.inkscape.org/namespaces/inkscape"
   xmlns:sodipodi="http://sodipodi.sourceforge.net/DTD/sodipodi-0.dtd"
   xmlns="http://www.w3.org/2000/svg"
   xmlns:svg="http://www.w3.org/2000/svg">
  <defs
     id="defs34" />
  <sodipodi:namedview
     id="namedview34"
     pagecolor="#ffffff"
     bordercolor="#000000"
     borderopacity="0.25"
     inkscape:showpageshadow="2"
     inkscape:pageopacity="0.0"
     inkscape:pagecheckerboard="0"
     inkscape:deskcolor="#d1d1d1"
     inkscape:zoom="0.34237011"
     inkscape:cx="181.09058"
     inkscape:cy="432.28073"
     inkscape:window-width="1512"
     inkscape:window-height="949"
     inkscape:window-x="0"
     inkscape:window-y="33"
     inkscape:window-maximized="0"
     inkscape:current-layer="layer2" />
  <g
     inkscape:groupmode="layer"
     id="layer1"
     inkscape:label="navigation" />
  <g
     inkscape:groupmode="layer"
     id="layer3"
     inkscape:label="text" />
  <g
     inkscape:groupmode="layer"
     id="layer2"
     inkscape:label="original"
     style="display:inline">
    <path
       d="m 0,0 c 337.92,0 675.84,0 1024,0 0,337.92 0,675.84 0,1024 -337.92,0 -675.84,0 -1024,0 C 0,686.08 0,348.16 0,0 Z"
       fill="#fefefe"
       id="path1"
       inkscape:label="outline" />
    <path
       id="path3"
       style="display:inline;fill:#000000;fill-opacity:1"
       d="M 0 0 L -0.48046875 2.2539062 L -1.1875 5.5625 C -1.9651089 9.2059445 -2.7446351 12.849524 -3.5527344 16.486328 C -6.069039 27.749786 -8.4277167 39.020615 -10.5 50.375 C -12.434028 60.990383 -14.48001 71.576118 -16.617188 82.152344 C -17.502544 86.527622 -18.382103 90.903256 -19.253906 95.28125 C -19.551437 96.776049 -19.84868 98.270881 -20.146484 99.765625 C -20.597875 102.03096 -21.048866 104.29712 -21.5 106.5625 C -23.01716 114.19736 -24.541279 121.83067 -26.138672 129.44922 C -29.390286 144.94159 -32.473351 160.46221 -35.5 176 C -38.15292 189.61919 -40.814968 203.23359 -43.667969 216.8125 C -45.269204 224.43038 -46.810908 232.05034 -48.216797 239.70703 L -48.8125 243 C -49.41669 246.3005 -50.021661 249.60098 -50.621094 252.90234 L -51 255 C -52.888421 253.60338 -54.757217 252.20189 -56.564453 250.70117 L -58.066406 249.39844 L -59.769531 247.92773 C -65.454609 243.00494 -71.187048 238.1533 -77.023438 233.41016 C -79.30117 231.56585 -81.577111 229.71943 -83.851562 227.87109 C -85.23435 226.74736 -86.617162 225.62367 -88 224.5 C -92.609677 220.75669 -97.21692 217.01062 -101.8125 213.25 C -103.54156 211.8332 -105.27072 210.41653 -107 209 C -111.68228 205.17953 -116.36627 201.36215 -121.00781 197.49219 C -124.81551 194.30775 -128.61028 191.11047 -132.48828 188.01172 C -136.72453 184.66294 -140.88823 181.2581 -144.97266 177.72656 C -150.26218 173.14657 -155.60024 168.66957 -161.125 164.375 C -164.02247 162.13392 -166.92187 159.90303 -169.73047 157.55078 L -171.44141 156.08984 C -172.52497 155.16586 -173.60707 154.24015 -174.6875 153.3125 C -177.77263 150.62814 -178.88147 149 -183 149 L -180.87109 151.98047 C -179.91381 153.32013 -178.95679 154.65999 -178 156 C -170.39978 166.67832 -162.63001 177.18388 -154.53906 187.49609 C -151.58218 191.2571 -148.63635 195.02585 -145.69727 198.80078 L -143.9375 201.0625 C -137.2398 209.66891 -130.61138 218.32718 -124 227 C -117.89502 235.01132 -111.79622 243.02565 -105.5625 250.9375 C -101.95949 255.50516 -98.372351 260.0839 -94.802734 264.67773 C -88.862525 272.3264 -82.903749 279.96032 -76.914062 287.57031 L -75 290 C -81.196613 289.75214 -87.038253 290.47503 -93.164062 291.40234 C -95.735078 291.80254 -98.306064 292.19767 -100.87891 292.58594 C -103.55043 292.98807 -106.22196 293.39278 -108.89258 293.80078 C -119.25611 295.38444 -129.61893 296.97226 -140 298.4375 C -149.58532 299.78844 -159.16266 301.19102 -168.74023 302.5957 C -179.24608 304.13665 -189.75099 305.68976 -200.26367 307.18359 C -210.23455 308.59618 -220.20223 310.0321 -230.16797 311.48047 L -232.875 311.875 C -242.17764 313.2272 -251.48099 314.57328 -260.75977 316.08203 L -262.875 316.42969 C -265.54225 316.86643 -268.20873 317.30724 -270.875 317.75 C -277.83485 318.94011 -284.7717 320.00979 -291.79688 320.7207 C -301.38831 321.67438 -310.87606 322.96073 -320.39258 324.48633 C -330.23216 326.06418 -340.07192 327.64772 -349.95508 328.92969 L -352.16016 329.21094 C -354.89786 329.56205 -357.63583 329.91055 -360.375 330.25 L -364.22656 330.70703 L -367.71094 331.14062 C -370.75146 331.50099 -370.75146 331.50098 -373 332 L -374 334 C -367.57017 335.19656 -361.13385 336.32281 -354.67383 337.34375 C -348.1272 338.37269 -341.58534 339.42081 -335.04688 340.49805 C -332.622 340.89756 -330.19715 341.30163 -327.77344 341.70898 C -322.15458 342.65413 -316.53475 343.58478 -310.91211 344.50391 C -303.81918 345.66339 -296.72215 346.80451 -289.62305 347.92969 C -289.61505 347.93069 -289.60616 347.93259 -289.59766 347.93359 C -276.07358 350.07606 -262.55133 352.22384 -249.03711 354.42773 C -246.51773 354.83896 -243.99808 355.25006 -241.47852 355.66016 C -231.8549 357.22561 -222.23186 358.79656 -212.61133 360.38086 C -206.45549 361.39465 -200.29959 362.40545 -194.14258 363.41211 C -190.26152 364.04614 -186.37994 364.67952 -182.5 365.32031 C -178.77741 365.93651 -175.05416 366.55109 -171.33008 367.1582 C -169.93451 367.38513 -168.53992 367.61181 -167.14453 367.83984 C -156.98388 369.53514 -147.94719 371.31573 -138 368 L -138 366 C -144.2536 365.05443 -150.50443 364.08816 -156.74609 363.06641 L -158.79297 362.73047 C -159.60492 362.59712 -160.41657 362.46345 -161.22852 362.33008 C -170.56304 360.59075 -179.91825 359.03292 -189.3125 357.60938 C -205.24824 355.20146 -221.16703 352.71071 -237.07812 350.14453 C -239.48363 349.75646 -241.88934 349.36803 -244.29492 348.98047 C -249.07165 348.21112 -253.84837 347.44184 -258.625 346.67188 C -268.25445 345.11944 -277.88456 343.56578 -287.51562 342.02344 C -289.3857 341.72426 -291.255 341.42463 -293.125 341.125 C -296.94321 340.5089 -300.76265 339.90959 -304.58398 339.32617 C -315.3913 337.56381 -326.19673 335.78927 -337 334 C -331.01621 333.39778 -325.06257 332.89138 -319.04883 332.75977 L -316.58594 332.71875 C -313.61543 332.66035 -310.64449 332.60479 -307.67383 332.55469 L -304.375 332.5 C -280.62874 332.08137 -256.88166 331.84446 -233.13281 331.62695 C -225.13078 331.55405 -217.12889 331.47703 -209.12695 331.39453 C -204.57206 331.34753 -200.01585 331.30143 -195.46094 331.25586 L -192.07422 331.22266 C -178.62944 331.0881 -165.18577 330.97793 -151.74023 330.99023 C -145.80846 330.99623 -139.87704 330.98824 -133.94531 330.96484 C -129.39302 330.94444 -124.84125 330.93191 -120.28906 330.97461 C -117.50134 331.00091 -114.71552 331.00803 -111.92773 330.99023 L -108.10938 330.96484 C -103.94568 331.04514 -100.01009 331.21734 -96 330 C -94.075721 328.08444 -93.00206 326.35854 -91.855469 323.90625 C -89.194661 319.97197 -89.194905 319.97253 -85.152344 317.32031 C -76.73195 312.15499 -68.733084 310.19515 -58.824219 312.50781 C -51.271989 315.42153 -47.46562 320.30055 -43.882812 327.20703 L -43 329 C -34.148936 330.7234 -34.148936 330.7234 -17 320 L -17 318 C -19.011309 317.12829 -19.010836 317.12746 -20.289062 315.69531 C -23.238073 312.36908 -26.227687 309.08717 -29.267578 305.84375 C -30.662499 304.3588 -32.052449 302.86916 -33.4375 301.375 C -37.891742 296.32588 -42.284965 291.2394 -47.710938 287.20508 C -53.213588 284.30648 -53.214016 284.30635 -65.328125 286.33789 L -69 287 C -70.085734 285.9525 -70.086222 285.95323 -71.224609 284.45703 L -72.773438 282.45703 L -74.505859 280.22266 C -79.108022 274.28369 -83.715795 268.34961 -88.357422 262.44141 L -89.6875 260.75 C -91.457644 258.49946 -93.228564 256.24953 -95 254 C -102.76559 244.13857 -110.48875 234.24423 -118.18945 224.33203 C -120.59672 221.23308 -123.00225 218.13362 -125.41016 215.03516 L -127.1875 212.75 C -130.97326 207.87891 -134.76858 203.0163 -138.58594 198.16992 C -142.79368 192.83034 -146.95576 187.46519 -151 182 C -146.23771 187.59569 -141.24428 192.85618 -136 198 C -132.75316 201.18464 -129.4614 204.3261 -126.46875 207.75391 C -121.32591 213.82823 -121.32591 213.82823 -106 229 C -103.98126 230.99843 -101.96267 232.9982 -99.947266 235 L -98 236.9375 C -94.084812 240.82813 -90.26596 244.72929 -86.6875 248.9375 C -85.199218 250.7773 -86.373047 249.46289 -85.173828 250.68555 L -83.878906 252.11133 C -82.636052 253.32042 -82.074591 253.92517 -80.705078 255.50586 L -78.886719 257.27344 L -76.867188 259.25781 C -70.980064 264.97489 -65.201316 270.73903 -59.75 276.875 C -56.939284 280.07852 -54.846967 282.22393 -51 284 C -47.750109 269.83184 -44.864653 255.59765 -42.027344 241.3418 C -41.503299 238.70793 -40.97882 236.073 -40.453125 233.43945 C -37.135919 216.82169 -33.852755 200.19789 -30.625 183.5625 C -28.19395 171.02662 -25.69566 158.50944 -23.083984 146.00977 C -21.452118 138.20201 -19.866553 130.38611 -18.3125 122.5625 C -17.300602 117.46417 -16.294526 112.36631 -15.199219 107.28516 C -13.556891 99.862561 -12.127424 92.412874 -10.75 84.9375 C -8.8028198 74.306472 -6.8157566 63.683204 -4.8027344 53.064453 C -4.4818734 51.371995 -4.1604261 49.680792 -3.8398438 47.988281 C -2.8937614 42.992337 -1.9470513 37.995761 -1 33 C -0.89621144 57.811578 -0.78966035 82.624003 -0.67773438 107.43555 C -0.62300917 119.55773 -0.5680219 131.67858 -0.51757812 143.80078 C -0.28352297 200.20537 0.01773069 256.60277 1 313 C 3.2914417 312.49793 4.7117117 312.25366 6.4960938 310.68359 C 12.498252 303.96429 18.464001 299.80507 27 297 C 29.44824 296.39584 31.666073 295.72431 33.976562 294.71094 C 36.760577 292.35689 36.760576 292.35689 39.125 285.8125 C 48.646783 268.42103 48.646783 268.42103 64.3125 255.625 C 67.874665 252.74206 71.401736 249.82774 74.892578 246.85938 C 78.433042 243.84452 81.970743 240.83055 85.589844 237.91016 C 90.271669 234.1996 94.887207 230.43247 99.4375 226.5625 C 102.5352 223.92632 105.63616 221.29843 108.78125 218.71875 C 113.91782 214.54907 118.98825 210.31816 124 206 C 128.27012 202.32004 132.56738 198.68584 136.9375 195.125 C 140.05145 192.59607 143.14298 190.0497 146.1875 187.4375 L 149 185 L 147.05859 186.90625 L 144.4375 189.5 C 142.02579 191.87868 139.65999 194.24387 137.43164 196.79492 C 133.46027 201.42145 129.30496 205.77583 124.97266 210.06641 C 119.59419 215.3599 114.16469 220.57522 109.21875 226.28125 C 107.31963 228.49358 105.41558 230.59834 103.375 232.6875 C 99.592007 236.37094 95.874366 240.05149 92.4375 244.0625 C 89.82989 247.12334 87.065011 249.94122 84.1875 252.75 C 81.462141 255.35809 79.484137 257.51346 78 261 C 83.443979 261.75611 85.876338 263.90188 89.75 267.6875 L 92 270 C 94 269 94 269 95.59375 267.17188 L 97.5 264.75 C 103.12682 257.60709 108.69342 250.4148 114.14453 243.13672 C 118.04753 237.90134 121.99294 232.70704 126.00977 227.55859 C 131.0678 221.0827 136.09102 214.5898 141 208 C 144.66144 203.08182 148.37716 198.21406 152.16016 193.38867 C 157.49831 186.58393 162.71451 179.71987 167.75 172.6875 C 171.63158 167.25188 175.57271 161.88675 179.6875 156.625 C 182.14745 153.50879 184.38769 150.63847 186 147 C 175.93782 154.02013 166.36346 161.57578 157.09375 169.60547 C 153.58401 172.6462 150.04162 175.63317 146.4375 178.5625 C 142.98268 181.36796 139.5593 184.20479 136.16602 187.08398 C 132.52274 190.18063 128.88094 193.27567 125.1875 196.3125 C 118.04961 202.12241 111.01235 208.03992 104 214 C 98.765268 218.44922 93.544417 222.91494 88.230469 227.26953 C 83.754819 230.90641 79.316524 234.57296 74.955078 238.3457 C 67.486631 244.80955 59.817733 250.96442 52 257 C 52 254.78915 51.999756 254.78915 50.832031 249.3418 C 47.34842 233.22784 44.094953 217.06573 41.123047 200.84961 C 39.585186 192.43533 38.039051 184.02892 36.277344 175.6582 C 33.969049 164.77733 31.77133 153.87778 29.640625 142.96094 L 29.125 140.3125 C 26.336067 126.00313 23.591977 111.68569 20.912109 97.355469 C 19.219525 88.295859 17.462024 79.251065 15.648438 70.214844 C 14.286663 63.439464 12.930658 56.662737 11.601562 49.880859 C 10.653715 45.0363 9.7028483 40.192802 8.7480469 35.349609 C 8.2688126 32.920715 7.7903044 30.491676 7.3125 28.0625 C 6.5858515 24.327137 5.8587629 20.592579 5.1210938 16.859375 L 4.4257812 13.347656 L 3.7753906 9.9707031 L 3.1582031 6.8789062 C 2.5159686 3.6028689 2.3895421 2.389542 0 0 z M 327.2168 334.63672 C 325.06869 334.72064 323.71255 335.20656 321.34766 336.90625 C 318.98822 339.15887 318.98895 339.15838 315.73047 340.85156 C 304.91356 346.26598 294.24665 350.58376 282 347 L 279.0625 346.125 C 276 346 276 346 273.8125 347.9375 C 271.32424 350.84999 268.49487 352.90706 265.375 355.125 C 262.33414 357.2661 259.58634 359.33463 257 362 C 267.71024 360.74994 278.26592 358.91605 288.86133 356.92969 C 309.03165 353.13067 329.22044 349.56234 349.49219 346.35156 C 357.43242 345.09783 365.36273 343.78995 373.29102 342.46289 L 375.3125 342.125 C 379.54185 341.41777 383.77111 340.70998 388 340 L 388 338 C 382.30364 337.64037 376.60706 337.28458 370.91016 336.93359 C 368.56508 336.78946 366.22003 336.64492 363.875 336.5 C 356.18219 336.01424 348.48902 335.53741 340.79102 335.14062 L 338 335 C 336.47836 334.91871 334.95558 334.8402 333.43359 334.76562 L 329.69531 334.65625 C 328.73609 334.62497 327.93283 334.60874 327.2168 334.63672 z M 220 357 L 216 368 C 219.36092 368.1241 222.32848 367.94092 225.64844 367.34375 L 229.375 366.5 C 231.58466 366.00591 233.79345 365.50781 236 365 L 220 357 z M 99.365234 411.10938 C 98.718338 411.14005 98.25 411.375 97 412 C 97 414 97 414 98.132812 415.64062 C 99.185557 416.97087 100.2331 418.30625 101.25781 419.6582 C 107.26582 427.63314 113.36179 435.52413 119.6875 443.25 C 123.1425 447.46292 126.56122 451.68916 129.85547 456.0293 C 134.90595 462.7037 140.24227 469.07393 145.72656 475.39453 L 148 478 C 143.90373 474.98804 140.47233 471.64589 137.07812 467.85156 C 133.48586 463.78663 129.94186 459.73439 126 456 C 121.69802 452.53716 117.79453 448.86936 113.93359 444.91992 C 112.39751 443.34079 110.85707 441.76613 109.3125 440.19531 C 106.83053 437.67481 104.35115 435.15122 101.875 432.625 C 99.394987 430.07392 96.914413 427.52527 94.416016 424.99219 L 92.054688 422.60156 L 89.787109 420.24805 L 87.664062 418.11133 C 85.807831 416.21231 85.807342 416.2128 84 415 C 80.97934 415.28514 80.97934 415.28514 74.671875 418.93164 L 72.75 420.0625 C 70.496973 421.37006 68.246642 422.68145 66 424 L 66 426 L 68.027344 427.70703 C 69.537961 428.79995 71.048606 429.89426 72.552734 430.99609 L 74.269531 432.25781 C 77.546116 434.65591 80.783637 437.10094 84.009766 439.56641 L 86.125 441.1875 C 93.601149 446.9088 101.03944 452.67789 108.46484 458.46484 C 112.97375 461.98018 117.48643 465.49065 122 469 C 125.76274 471.92485 129.52702 474.84798 133.2832 477.78125 C 141.13995 483.92111 149.0058 490.03967 157 496 C 165.29541 502.18003 173.45361 508.53167 181.60156 514.9043 C 182.07703 515.27651 182.53852 515.63874 183 516 C 183.34 515.31999 183.67 514.65999 184 514 C 181.82889 511.06936 179.59224 508.19396 177.33398 505.33008 C 173.5498 500.53514 169.78106 495.73038 166.06445 490.88281 C 160.99086 484.25862 155.83395 477.70968 150.56641 471.23828 C 144.25633 463.49428 137.96994 455.74039 131.81641 447.87109 C 129.85257 445.35939 127.88239 442.85299 125.89062 440.36328 C 123.06991 436.85995 120.25995 433.35298 117.53125 429.77734 C 114.37328 425.63254 111.19927 421.50308 107.94922 417.42969 L 106.125 415.25 C 104.41025 413.19919 103.44354 412.16403 100.92969 411.23438 C 100.20605 411.14648 99.753372 411.09097 99.365234 411.10938 z M 46 432 C 41.515917 432 40.412649 433.55238 39.203125 437.78516 L 38.605469 441.20312 L 37.908203 445.06445 C 37.54386 447.1802 37.180288 449.29476 36.802734 451.4082 C 36.402154 453.62626 36.001053 455.84424 35.601562 458.0625 C 34.386617 464.88511 33.116922 471.69325 31.794922 478.49609 C 31.298362 481.03927 30.804266 483.58322 30.310547 486.12695 C 29.288504 491.39422 28.262295 496.66004 27.232422 501.92578 C 26.564891 505.33799 25.898499 508.75157 25.232422 512.16406 L 24.8125 514.3125 C 22.847567 524.37984 20.910201 534.45142 19 544.5293 L 18.285156 548.30469 C 17.081018 554.66376 15.876656 561.02275 14.677734 567.38281 C 14.225007 569.78501 13.771896 572.18779 13.318359 574.58984 C 13.090373 575.79595 12.869718 576.96608 12.648438 578.13672 C 11.367997 584.91642 10.073813 591.69103 8.6933594 598.45117 C 7.6587054 603.46574 7.657729 603.46623 5 617 L 1 642 L 0 443 C -12.715012 448.77955 -23.415583 452.30376 -37.210938 452.92188 C -38.15922 452.94845 -39.079609 452.97422 -40 453 C -40 455.81197 -39.641187 458.36979 -39.150391 461.13086 L -38.765625 463.24219 C -38.337905 465.62804 -37.908166 468.01364 -37.474609 470.39844 L -37 473 C -35.969679 478.6454 -34.93334 484.29011 -33.892578 489.93359 C -30.843401 506.45941 -27.807555 522.98584 -24.855469 539.5293 C -21.650113 557.49524 -18.330458 575.43943 -14.980469 593.37891 C -13.375449 601.97246 -11.783288 610.56822 -10.201172 619.16602 C -9.7595969 621.56666 -9.317857 623.96679 -8.875 626.36719 C -7.655156 632.9749 -6.4306746 639.58348 -5.2441406 646.19727 C -5.0036826 647.54071 -4.7641025 648.88316 -4.5234375 650.22656 C -4.0779395 652.69267 -3.632615 655.15882 -3.1875 657.625 L -2.5976562 660.98438 C -2.4093112 662.02297 -2.2257738 663.03102 -2.0429688 664.03906 C -1.4490258 667.37841 -0.64484 670.02649 1 673 C 4.36081 656.57169 4.3608102 656.57169 10.925781 621.70508 C 12.554374 613.05498 14.185365 604.40549 15.816406 595.75586 C 16.460999 592.33764 17.104369 588.91839 17.748047 585.5 C 19.772907 574.7454 21.804206 563.99391 23.875 553.24805 C 25.532644 544.653 27.183917 536.05632 28.798828 527.45312 L 29.394531 524.27344 C 29.793076 522.14771 30.191351 520.02222 30.589844 517.89648 L 31.195312 514.66797 L 31.8125 511.375 C 34.090852 499.22072 36.362491 487.06639 38.8125 474.94531 L 39.390625 472.09766 C 40.278191 467.7205 41.164022 463.34281 42.076172 458.9707 C 43.950106 450.00047 45.553297 441.18025 46 432 z "
       transform="translate(511,163)"
       inkscape:label="cross" />
    <path
       d="m 0,0 c 5.94,0 11.88,0 18,0 -0.33,1.32 -0.66,2.64 -1,4 -1.32,0 -2.64,0 -4,0 2.64,9.24 5.28,18.48 8,28 2.97,-10.23 5.94,-20.46 9,-31 1.65,-0.33 3.3,-0.66 5,-1 2.651524,6.722633 4.698094,13.555769 6.6875,20.5 0.320332,1.108594 0.640664,2.217188 0.970703,3.359375 C 43.441624,26.572117 44.222148,29.285657 45,32 c 1.728162,-5.014899 3.200182,-10.080522 4.625,-15.1875 0.229453,-0.806309 0.458906,-1.612617 0.695312,-2.443359 0.216563,-0.775371 0.433125,-1.550743 0.65625,-2.34961 0.196744,-0.700202 0.393487,-1.400405 0.596192,-2.1218259 C 52.10982,7.8364105 52.10982,7.8364105 52,5 50.68,4.67 49.36,4.34 48,4 c 0,-1.32 0,-2.64 0,-4 4.95,0 9.9,0 15,0 -0.33,1.32 -0.66,2.64 -1,4 -0.634138,0.2720728 -1.268276,0.5441455 -1.921631,0.8244629 -2.395859,1.0729798 -2.395859,1.0729798 -3.311035,4.1655273 -0.337009,1.2601388 -0.674019,2.5202788 -1.02124,3.8186038 -0.18699,0.681355 -0.373979,1.36271 -0.566635,2.064712 -0.59574,2.184307 -1.169112,4.373784 -1.741959,6.564194 -0.388505,1.43985 -0.778465,2.879309 -1.169922,4.318359 -0.934045,3.445449 -1.851224,6.895106 -2.763489,10.346375 C 48.360369,40.408045 47.178344,44.703561 46,49 44.35,49 42.7,49 41,49 38.740844,44.056889 37.16783,39.285863 35.9375,34 35.614456,32.645552 35.290246,31.291383 34.964844,29.9375 34.808706,29.281367 34.652568,28.625234 34.491699,27.949219 34.00879,26.034847 33.444421,24.141617 32.878906,22.25 32,19 32,19 32,15 c -0.66,0 -1.32,0 -2,0 -0.139219,1.336113 -0.139219,1.336113 -0.28125,2.699219 C 28.88412,23.534279 27.114395,29.155635 25.5,34.8125 25.018535,36.528564 25.018535,36.528564 24.527344,38.279297 22.143187,46.713627 22.143187,46.713627 21,49 19.35,49 17.7,49 16,49 15.614611,47.57905 15.614611,47.57905 15.221436,46.129395 14.255487,42.569298 13.287781,39.00968 12.31958,35.450195 11.903095,33.918096 11.487068,32.385873 11.071533,30.853516 9.8985849,26.52871 8.7126502,22.207819 7.5150757,17.889771 7.0511291,16.187589 6.6130492,14.478407 6.1782227,12.768555 5.9402295,11.872979 5.7022363,10.977402 5.4570312,10.054688 5.2672974,9.304292 5.0775635,8.5538965 4.8820801,7.7807617 3.7186143,5.4319327 2.3904476,4.9349007 0,4 0,2.68 0,1.36 0,0 Z"
       fill="#0f0f0f"
       transform="translate(61,474)"
       id="path7"
       inkscape:label="W"
       style="display:inline;fill:#000000;fill-opacity:1" />
    <path
       d="m 0,0 c 0,4.29 0,8.58 0,13 -1.65,0 -3.3,0 -5,0 C -5.66,10.03 -6.32,7.06 -7,4 -8.7704969,3.945893 -10.541468,3.907159 -12.3125,3.875 -13.298633,3.851797 -14.284766,3.828594 -15.300781,3.804688 -18.224065,3.7931736 -18.224065,3.7931736 -21,6 c -0.751281,4.098011 -0.751281,4.098011 0,8 2.299513,2.33145 5.075319,3.581141 8,5 12.92297174,6.648131 12.92297174,6.648131 15,11 0.6395864,4.598931 0.5948057,8.559944 -1.1875,12.875 -4.3283824,5.074655 -8.6128231,7.752711 -15.324219,8.347656 C -20.99835,51.430735 -25.973648,50.371024 -32,48 c 0,-4.62 0,-9.24 0,-14 1.65,0 3.3,0 5,0 0.66,3.3 1.32,6.6 2,10 4.916589,1.229147 9.587139,1.866155 14.4375,0.125 C -8.8410673,43.069259 -8.8410673,43.069259 -8,41 -7.5160447,36.671628 -7.5160447,36.671628 -9.5859375,33.015625 -12.969058,30.190883 -16.777245,28.568823 -20.779297,26.820312 -25.5846,24.580948 -28.08934,22.325338 -31,18 -32.032408,13.676034 -31.986454,9.1554237 -30.113281,5.0625 -22.661497,-4.8402035 -10.415522,-2.6878767 0,0 Z"
       fill="#0d0d0d"
       transform="translate(527,856)"
       id="path13"
       inkscape:label="S"
       style="fill:#000000;fill-opacity:1" />
    <path
       d="m 0,0 c 4.956375,2.9660958 8.1303964,7.2732018 11.003906,12.199219 2.319388,9.29291 1.418961,17.530325 -2.9999997,26 -3.242278,5.326599 -8.11665202,7.857839 -13.9921875,9.585937 -7.0524808,1.454403 -12.4601868,0.43318 -18.7734378,-3.027344 -4.83873,-3.375268 -7.414363,-8.027339 -9.234375,-13.558593 -0.854989,-8.699023 -0.828391,-17.416586 4,-25.0000003 C -21.922053,-3.1938484 -10.952969,-5.4288627 0,0 Z m -20.996094,6.1992187 c -4.854711,7.3876033 -5.049262,15.2613413 -3.492187,23.7773433 1.446623,5.528761 3.453816,9.184285 7.492187,13.222657 3.109534,1.554767 5.562668,1.286444 9.0000003,1 4.913188,-2.456594 6.9910177,-4.924677 8.9999999,-10 C 3.5315878,26.347272 3.3300952,15.813344 -0.24609375,8.3867188 -2.0380368,5.1733887 -3.84673,3.1304324 -6.9960937,1.1992187 c -6.1562343,-0.79435274 -9.9803153,-0.066229 -14.0000003,5 z"
       fill="#0b0c0b"
       transform="translate(950.99609,475.80078)"
       id="path11"
       inkscape:label="O"
       style="display:inline;fill:#000000;fill-opacity:1" />
    <path
       d="m 0,0 c 4.9027218,-0.87635544 9.1209036,-1.112832 14,0 4.442485,3.9385273 7.202879,8.667426 10.1875,13.75 0.821557,1.317992 1.6477,2.633137 2.478516,3.945312 1.519823,2.410342 3.009219,4.834609 4.471435,7.280274 C 33.081789,28.235982 33.081789,28.235982 36,32 36,23.09 36,14.18 36,5 34.68,4.34 33.36,3.68 32,3 c 0,-0.99 0,-1.98 0,-3 4.95,0 9.9,0 15,0 0,0.99 0,1.98 0,3 -1.32,0.33 -2.64,0.66 -4,1 -0.33,14.52 -0.66,29.04 -1,44 -1.98,0 -3.96,0 -6,0 C 34.14467,45.903223 32.890597,44.132545 31.5,41.75 30.650366,40.384703 29.797299,39.021538 28.941406,37.660156 28.480083,36.917817 28.01876,36.175479 27.543457,35.410645 24.656333,30.901397 21.531846,26.555896 18.4375,22.1875 17.226512,20.473611 16.016779,18.758835 14.808594,17.042969 14.290955,16.311023 13.773315,15.579077 13.23999,14.824951 12,13 12,13 11,11 c 0,10.56 0,21.12 0,32 1.65,0.66 3.3,1.32 5,2 0,0.99 0,1.98 0,3 C 10.72,48 5.44,48 0,48 0,47.01 0,46.02 0,45 2.475,44.505 2.475,44.505 5,44 5,31.13 5,18.26 5,5 2.525,4.01 2.525,4.01 0,3 0,2.01 0,1.02 0,0 Z"
       fill="#0c0c0c"
       transform="translate(489,102)"
       id="path12"
       inkscape:label="N" />
    <path
       id="path2"
       style="display:inline;fill:#000000;fill-opacity:1"
       d="M 2.5625,-0.078125 0,0 c -4.9849019,0.09118723 -8.9512868,1.0027064 -13.4375,3.1875 -7.430891,4.3174569 -7.430891,4.3174569 -13.320312,25.546875 -0.601835,2.195148 -1.204705,4.388723 -1.833985,6.576172 -3.991401,13.720853 -3.993109,13.720365 -10.845703,42.5625 L -40,80.25 c -3,-1 -3,-0.999999 -6.179688,-1.167969 -1.866132,-0.0098 -1.866132,-0.0098 -3.695312,-0.01953 -4.590813,-0.05361 -8.007863,0.101934 -12.125,2.1875 -17.04914,10.539468 -28.613032,27.287289 -33.980469,46.511719 -1.260882,4.91689 -2.501432,9.65592 -4.796871,14.19922 -4.93677,9.14445 -9.93122,17.92859 -20.22266,21.28906 0.0572,-0.92715 0.0572,-0.92715 0.11328,-1.83594 0.0677,-0.86328 0.13352,-1.70117 0.19922,-2.53906 0.32453,-4.54336 1.50319,-8.61649 2.84375,-12.94336 2.81634,-8.94001 5.99397,-17.94721 7.37109,-27.24023 0.20487,-5.90846 -0.84378,-9.78849 -4.52734,-14.44141 -4.70834,-3.39439 -9.38299,-3.58417 -15,-3 -9.17882,4.58941 -15.48551,11.15696 -21.64453,19.20703 -0.46086,0.60961 -0.90817,1.20129 -1.35547,1.79297 -0.1875,-2.75 -0.1875,-2.75 -1,-6 -2,-2.375 -2,-2.375 -5,-4 -4.64179,-0.85186 -8.66862,-0.49589 -12.875,1.6875 -4.63821,3.43228 -6.25718,7.14184 -7.86133,12.62891 -0.19582,0.69984 -0.38611,1.37933 -0.57617,2.05859 -1.20333,4.16452 -2.35683,8.33842 -3.43555,12.53711 -0.38762,1.53399 -0.38762,1.5335 -0.76757,3.03711 -0.51752,2.03728 -1.03315,4.07504 -1.54688,6.11328 -1.46163,6.03751 -2.96762,11.64136 -5.91797,17.13477 -0.34673,0.61301 -0.683,1.20775 -1.01953,1.80273 -4.01458,7.2195 -8.25149,13.79362 -14.04297,19.70703 -2.46048,1.62559 -4.06577,1.54764 -6.95703,1.29297 -0.36313,-6.60613 0.55821,-12.12029 2.29297,-18.49609 L -210.75,168.375 c 1.75932,-6.48609 3.60023,-12.8659 5.96484,-19.16016 0.34391,-0.87531 0.67793,-1.72465 1.01172,-2.57422 1.32585,-4.09637 1.74837,-8.44075 -0.22656,-12.39062 -3.88364,-2.85562 -7.18894,-3.8341 -12,-4 -4.33121,1.26949 -7.06532,2.77324 -9.9375,6.1875 -0.70125,0.95625 -1.38187,1.88437 -2.0625,2.8125 l -3.5,-1.5 c -6.17529,-2.32533 -11.53202,-2.16884 -17.66406,0.41016 -20.57662,9.63508 -30.43328,29.65963 -37.96094,49.96484 -3.08892,8.68907 -7.01042,15.86321 -12.57617,23.20508 l -1.23633,1.60742 c -0.81454,1.09255 -1.63616,2.17986 -2.46484,3.26172 -3.27488,4.03277 -6.56276,7.82041 -11.91016,8.42578 -2.60115,-0.0878 -2.60115,-0.0878 -3.6875,-1.375 -0.56719,-7.58513 0.0537,-14.73327 1.77539,-22.12109 0.26762,-1.06408 0.52736,-2.09613 0.78711,-3.12891 0.5618,-2.25961 1.12567,-4.51871 1.69141,-6.77734 0.89492,-3.49842 1.74936,-6.98545 2.49218,-10.51954 1.48543,-7.26782 2.76065,-14.83712 6.25391,-21.45312 3.41832,-2.76763 5.7904,-3.50085 10.08203,-4.32422 3.80641,-0.65654 6.88608,-1.68072 10.41406,-3.18359 l 2.12891,-0.92969 c 5.42688,-2.13706 8.62242,-4.22208 11.375,-9.5625 0.77254,-3.47338 0.61904,-6.76192 -1,-10 -4.1558,-2.0779 -8.62344,-1.38075 -12.9375,-0.1875 -1.7982,0.69726 -3.60634,1.37117 -5.43359,1.98828 -1.62468,0.5348 -3.24844,1.0724 -4.8711,1.61328 -0.59765,0.19922 -1.17773,0.39258 -1.75781,0.58594 1.64499,-5.1543 3.3797,-10.53653 3,-16 -1.8125,-2.5625 -1.8125,-2.5625 -5,-4 -4.05631,-0.43233 -8.28346,-0.85827 -12,1 -7.50696,5.71182 -10.4526,11.81774 -13.1875,20.6875 -0.71502,2.53996 -1.49234,4.95324 -2.50391,7.39062 -3.30732,3.30166 -3.30732,3.30165 -8.00976,4.40626 -5.8038,1.30034 -12.48112,4.04441 -16.98242,7.99218 -2.53018,3.46625 -3.23841,7.31357 -3.31641,11.52344 0.9375,2.4375 0.9375,2.4375 3,4 5.67553,0.68498 9.9832,-0.39928 15.3125,-2.34375 0.57375,-0.22313 1.13063,-0.43969 1.6875,-0.65625 -0.9332,3.11493 -1.81794,6.21667 -2.55273,9.38477 -1.61611,7.33097 -3.08782,14.72634 -5.56836,21.82226 -4.51973,9.68066 -12.79132,20.52514 -22.87891,24.79297 -2.39152,-4.89174 -5.29257,-8.55979 -9,-12.5625 -3.79393,-3.98478 -8.44946,-8.14524 -9.39062,-13.77344 0.0478,-0.69328 0.0942,-1.36617 0.14062,-2.03906 l 0.25,-3.625 4,-2 c 0,2.67857 0,2.67857 3,6 1.8125,1 1.8125,1 4,1 5.44755,-2.66582 8.55439,-6.56297 11,-12 0.52784,-3.92108 0.36476,-6.77532 -2,-10 -2.99528,-2.83763 -4.73371,-3.85776 -8.85156,-4.32031 -11.27874,-0.19591 -20.6644,3.76768 -29.26953,11.13672 -6.54332,6.98051 -11.06288,14.93154 -11.1836,24.58593 -0.0312,9.74552 -2.17476,16.14 -7.16015,24.49219 -1.25675,2.03242 -2.50887,4.06162 -3.71094,6.12695 -1.83308,3.20063 -3.68776,6.38258 -5.625,9.52149 -5.95514,9.4687 -10.84861,17.7863 -22.19922,20.45703 1.50945,-14.86917 4.86486,-29.27253 9.8125,-43.375 1.62388,-4.42694 2.53518,-7.89383 2.1875,-12.625 -1,-2 -1,-2 -2.9375,-3.625 -5.40941,-2.42871 -10.76434,-2.06879 -16.375,-0.375 -7.79269,5.79921 -7.79269,5.79921 -13.32812,27.05078 -2.71876,10.62028 -5.26097,20.54049 -11.1836,29.86719 -0.73976,1.04789 -1.45777,2.06496 -2.17578,3.08203 -4.73917,6.72118 -9.40867,12.95025 -16,18 -7.20728,4.67524 -13.28376,8.286 -22,7 -2.87303,-4.03089 -2.87303,-4.03089 -4,-9 h 2 c 14.90761,-6.30707 27.82495,-17.39185 35.78125,-31.49219 3.42884,-7.05546 5.9989,-14.92598 3.52734,-22.67578 -2.16494,-4.97304 -4.13168,-6.78103 -9.30859,-8.83203 -7.53398,-0.99084 -14.80018,-0.56526 -21.71484,2.69531 -18.71844,10.68711 -30.10838,28.8339 -35.91016,49.05469 -2.14647,7.58117 -4.2957,14.10411 -8.62109,20.74219 -0.59633,0.85265 -1.17512,1.68023 -1.75391,2.50781 -1.72315,2.66202 -3.45794,5.292 -5.30859,7.86719 -3.6287,4.57568 -6.81303,7.17287 -12.69141,8.13281 -0.93694,-10.20227 2.08585,-18.32134 6.10352,-27.53125 0.40691,-0.92321 0.80232,-1.81878 1.19726,-2.71484 0.81376,-1.85663 1.63017,-3.71211 2.44922,-5.56641 2.99578,-6.51184 4.93913,-11.97384 5.25,-19.1875 -1.52663,-3.05326 -3.36984,-4.82726 -6,-7 -3.55945,-0.44493 -6.02547,-0.36525 -9.38672,0.89453 -1.31971,0.55826 -1.31971,0.55826 -2.61328,1.10547 -2.66276,1.0651 -5.32552,2.13021 -7.98828,3.19531 -0.68399,0.2736 -1.34785,0.53914 -2.01172,0.80469 1.42768,-4.28304 2.0964,-8.47754 2,-13 -1.5,-2.5625 -1.5,-2.5625 -4,-4 -3.33133,-0.83283 -5.79763,-1.35364 -9.125,-0.375 -5.19829,3.81208 -9.21122,8.54973 -11.78906,14.47656 -2.04115,5.55117 -3.58467,11.40141 -1.14844,17.08594 1.13652,1.81304 1.13652,1.81304 1.84375,3.96875 0.25597,3.32763 -0.66363,5.33109 -2.18164,8.25977 -0.35262,0.6448 -0.69486,1.27064 -1.03711,1.89648 -1.17363,2.23771 -2.35728,4.4664 -3.5625,6.6875 -0.22432,-2.73669 -0.4606,-5.31884 -1,-8 -1.1875,-2 -1.1875,-2 -3,-3 -3.19056,-0.35451 -5.55886,-0.13654 -8.625,0.8125 -7.61339,2.35008 -7.61339,2.35008 -15.375,4.1875 2.66987,-14.09806 7.11562,-28.19859 11.81641,-41.74609 0.40242,-1.10633 0.793,-2.18012 1.18359,-3.25391 1.47376,-4.07876 2.77518,-8.26761 5,-12 2.05936,-0.89334 2.05936,-0.89334 4,-1 -1.6325,6.25277 -3.578,12.52937 -4,19 l 2,2 c 2.8125,0.25 2.8125,0.25 6,0 4.0063,-0.97715 6.30294,-2.83786 8.79688,-6.12891 5.31998,-8.27363 6.67415,-17.1363 5.20312,-26.87109 -2.7015,-4.80642 -4.68401,-7.29129 -10,-9 -6.44851,-0.73568 -12.38017,-0.75122 -18.07031,2.61328 -22.01353,15.81944 -30.41802,43.00655 -36.74805,68.30078 -0.16784,0.68805 -0.33123,1.35563 -0.49414,2.02344 -0.57959,2.35002 -1.14467,4.70372 -1.6875,7.0625 -0.40217,2.49413 -0.82584,4.79745 -1.64062,7.1875 -3.25263,3.14489 -3.25263,3.14489 -7.54688,4.9375 -5.11087,2.09237 -9.4368,4.05683 -13.47656,7.875 -2.12353,3.17909 -2.07836,6.03035 -1.91016,9.76562 0.67727,2.63539 1.41255,3.60933 3.57422,5.23438 3.71536,0.89442 6.10155,1.32566 9.72656,0.0117 0.77297,-0.34399 1.52321,-0.67785 2.27344,-1.01172 -3.57113,11.36459 -6.09524,22.94516 -8.61719,34.57812 -0.62565,2.90966 -1.24968,5.81958 -1.89648,8.72461 -3.96238,17.69209 -11.44272,46.24587 -2.14649,63.13086 2.52383,3.16559 4.31152,5.2615 8.35547,6.17579 5.43695,0.14815 9.74041,-0.49737 14.30469,-3.60938 19.3149,-14.113 27.41721,-40.44401 31.625,-62.98242 0.12733,-0.68615 0.25141,-1.35162 0.375,-2.01758 1.55577,-7.72549 2.1269,-15.17556 2.23047,-23.04102 0.0104,-1.62078 0.009,-1.62029 0.0195,-3.20898 0.0815,-8.77158 -0.66662,-16.74559 -3.32031,-25.13281 L -649.125,310.125 c -0.36391,-0.95891 -0.71711,-1.88961 -1.07031,-2.82031 L -651,305.25 c 2,0 1.99952,0 4.0625,-0.73438 0.85249,-0.34531 1.6804,-0.68046 2.50781,-1.01562 0.92305,-0.37188 1.81895,-0.73281 2.71485,-1.09375 0.96554,-0.39313 1.90269,-0.77469 2.83984,-1.15625 2.69103,-1.08669 5.38148,-2.1735 8.07031,-3.26562 0.61343,-0.24968 1.2093,-0.49204 1.80469,-0.73438 -1.72739,3.30112 -3.00603,6.02736 -3.8125,9.6875 C -633,310.25 -633,310.25 -631,313.25 h 4 c 9.90667,-6.95012 16.3382,-22.65249 20.32031,-33.64453 0.2311,-0.80086 0.45539,-1.57817 0.67969,-2.35547 l 8,1 c -6.1393,12.44618 -13.04726,24.97541 -13.48047,39.11328 -0.007,0.8114 -0.0135,1.59918 -0.0195,2.38672 -0.0607,6.98617 0.79612,12.72496 5.875,17.9375 5.6119,2.41892 10.61419,2.42314 16.625,1.5625 13.45423,-4.00263 13.45423,-4.00263 29.34375,-26.625 1.50776,-2.16207 3.06248,-4.27589 4.65625,-6.375 0.94224,3.88673 2.82569,6.04157 5.6875,8.6875 6.17216,5.10646 12.52239,5.98022 20.3125,5.3125 16.77563,-3.59478 29.7961,-14.09958 40.25,-27.25 2.73561,-3.51253 5.50396,-6.70684 8.75,-9.75 1.74677,5.42419 3.02167,9.81387 8,13 6.64135,0.9993 13.19281,0.90856 19.04688,-2.62109 L -451,292.25 c 11.22804,-7.79725 18.64891,-17.95987 25.56641,-29.54297 0.48742,-0.83539 0.9605,-1.64621 1.43359,-2.45703 -0.34198,5.69975 -0.47254,10.18325 3,15 3.53734,2.92215 5.60221,3.87778 10.17188,4.27734 12.37649,0.12601 24.26182,-2.90385 33.82812,-11.15234 8.57794,-8.38697 14.1088,-17.11337 14.92188,-29.25391 0.0265,-0.63617 0.0523,-1.25363 0.0781,-1.87109 2,0 2,0 3.55078,-1.13672 0.59899,-0.52726 1.18035,-1.03902 1.76172,-1.55078 2.22537,-1.93533 4.32186,-3.94142 6.41797,-6.01953 0.77164,-0.77961 1.52058,-1.53629 2.26953,-2.29297 0.16239,1.79906 0.32894,3.59783 0.51562,5.39453 0.0797,0.75836 0.15708,1.49442 0.23438,2.23047 0.62185,7.16424 2.36457,11.63384 7.75,16.75 4.39002,2.03822 7.81962,2.12618 12.61328,1.9375 10.04536,-1.08745 18.9958,-8.61564 25.23047,-16.20312 0.56313,-0.71719 1.10969,-1.41329 1.65625,-2.10938 3.28562,-4.0931 6.51987,-8.19632 9.4375,-12.5625 0.78906,-1.23094 0.78906,-1.23094 1.5625,-2.4375 2.108,4.36525 4.13408,8.1547 7.625,11.5625 5.99254,2.55238 12.38977,2.34573 18.5625,0.3125 9.61465,-4.26883 16.86564,-12.05218 21.03906,-21.71484 0.39059,-1.09088 0.39059,-1.09088 0.77344,-2.16016 h 2 c 0,2.93103 0,2.93103 3,8 3.67965,3.34514 7.46517,3.58023 12.25391,3.40234 13.12542,-1.92307 20.98609,-11.74112 28.53125,-21.75 0.41304,-0.56179 0.81394,-1.10707 1.21484,-1.65234 0.25,2.8125 0.25,2.8125 1,6 1.5,1.875 1.5,1.875 4,3 5.85834,0.58153 10.64753,0.0351 16.02734,-2.33203 3.70059,-3.32129 3.70035,-3.32227 5.73438,-11.04688 0.54218,-2.24146 1.10634,-4.47587 1.68945,-6.70703 0.45087,-1.72164 0.45063,-1.72261 0.89258,-3.41015 3.58334,-14.10225 7.54165,-27.31349 14.64063,-40.125 3.00534,-5.20505 4.87778,-9.645 11.01562,-11.37891 -3.34251,10.82206 -6.63087,21.70838 -8.68359,32.86133 -1.28417,8.67801 -1.59429,17.78733 3.68359,25.13867 3.68685,3.34118 3.68685,3.34118 13.28125,3.30078 9.2878,-1.02753 16.65607,-7.83385 22.60547,-14.55273 0.5486,-0.63716 1.08082,-1.25462 1.61328,-1.87305 2.72226,-3.15169 5.09924,-6.00125 6.84375,-9.80469 0.331406,-1.04551 0.331406,-1.04551 0.65625,-2.07031 h 2 c 1.033845,4.82461 2.8661,7.8454 6.691406,10.85156 4.931954,2.45346 9.998824,2.07053 15.308594,1.14844 11.284779,-4.13388 17.618431,-11.8846 23.714844,-21.83984 0.436953,-0.73446 0.861054,-1.44731 1.285156,-2.16016 2.381544,3.26045 4.742823,6.18126 7.824219,8.80078 4.105948,2.26306 8.638651,1.79364 13.175781,1.19922 l 2,-1 c 5.45419,-2.68822 10.046164,-5.47937 14.199219,-9.95703 L -11,147.25 c 3.2268344,-3.50532 6.2809194,-7.08492 9,-11 6.9847588,-10.99394 17.795552,-26.66607 15,-40 -2.3125,-0.6875 -2.3125,-0.6875 -5,-1 -2.5807628,1.890234 -2.5802745,1.889742 -5.5996094,7.83594 -2.82016012,5.60741 -5.8349391,11.05937 -9.2402344,16.33398 -0.4370361,0.66505 -0.8609741,1.30958 -1.2851562,1.95508 -3.091905,4.80837 -6.109682,8.62649 -10.875,11.875 -2.321716,-0.0338 -2.321716,-0.0338 -4,-1 -0.01196,-0.80883 -0.02356,-1.59387 -0.03516,-2.37891 -0.0138,-1.60771 -0.0138,-1.60771 -0.02734,-3.18359 3.053446,-26.48072 3.053446,-26.48121 11.109375,-52.128906 L -11,71.25 C -7.7628048,59.97297 -4.4683742,48.717185 -0.84179688,37.558594 l 0.75976563,-2.328125 C 1.1645242,31.405896 2.4125053,27.580822 3.6816406,23.763672 4.1594567,22.328357 4.6341595,20.893854 5.1074219,19.457031 L 5.7773438,17.421875 C 7.3546999,12.682584 8.4126885,8.213755 9,3.25 6.8220601,1.3342195 5.4726413,0.31362479 2.5625,-0.078125 Z M -442.36719,164.68164 c -6.31488,-0.21516 -11.84077,3.13601 -16.07031,8.56836 -3.38308,5.39853 -3.35727,10.80278 -2.5625,17 l 1,1 2,2.5625 c 3.12282,2.53729 3.71747,2.81196 7.5,2.875 6.37903,-0.40067 11.19995,-2.58374 15.5,-7.4375 3.45005,-5.56255 4.757,-10.51145 4,-17 -1.25584,-2.88842 -2.12097,-4.46081 -4.80859,-6.10938 -2.26176,-0.91921 -4.45364,-1.38726 -6.5586,-1.45898 z"
       transform="translate(886,322.75)"
       inkscape:label="freistand" />
    <path
       id="path14"
       style="fill:#ffffff;fill-opacity:1"
       d="M -1.6738281 -0.08203125 C -3.0039062 -0.084960938 -3.578125 0.21875 -5.875 1.4375 C -15.865613 9.5150167 -21.921712 24.37408 -23.8125 36.8125 C -24.413994 41.959568 -24.006784 45.553455 -20.8125 49.8125 C -16.332412 49.30049 -14.033967 47.955395 -10.8125 44.8125 C -1.6760714 33.001417 4.5101203 16.890372 3.1875 1.8125 C 2.1875 0.8125 2.1875 0.8125 0 0 C -0.703125 -0.046875 -1.2304688 -0.081054688 -1.6738281 -0.08203125 z M -190.36914 58.005859 C -191.42589 57.937679 -192.46367 58.138086 -193.8125 58.8125 C -204.26517 66.02124 -210.21476 78.601546 -212.8125 90.8125 C -213.31556 96.575397 -214.10018 101.88098 -210.8125 106.8125 C -208.6875 106.625 -208.6875 106.625 -205.8125 105.8125 C -197.61691 100.23252 -193.52337 92.054676 -190.44141 82.832031 L -189.4375 79.6875 L -188.36328 76.519531 C -186.50441 70.842451 -183.94686 64.54378 -186.8125 58.8125 C -188.23668 58.410809 -189.31239 58.07404 -190.36914 58.005859 z M -356.8125 126.8125 C -359.35986 132.90401 -362.30701 138.69355 -365.4375 144.5 C -368.00687 149.19632 -370.29844 153.64352 -371.8125 158.8125 C -363.69125 153.89053 -355.40573 149.50757 -346.89062 145.31641 L -343.8125 143.8125 C -343.8125 140.43383 -343.8125 140.43383 -347.2207 135.97656 L -348.625 134.1875 C -351.10615 130.9029 -352.76344 128.16219 -356.8125 126.8125 z M -461.17383 143.04492 C -461.93354 143.05136 -462.72272 143.26761 -463.8125 143.8125 C -471.87059 151.57983 -477.0049 160.78613 -478.8125 171.8125 L -476.8125 171.8125 C -471.52024 168.97275 -467.79739 164.90858 -463.87109 160.40625 C -459.70571 155.15803 -457.12506 150.68693 -457.8125 143.8125 C -459.26892 143.37557 -460.19705 143.03665 -461.17383 143.04492 z M -342.8125 153.8125 L -344.71094 154.76562 L -347.1875 156.0625 C -350.69014 157.86386 -352.36863 159.0997 -353.8125 162.8125 C -351.5625 163.5 -351.5625 163.5 -348.8125 163.8125 C -345.29681 161.95125 -343.53642 159.35107 -341.8125 155.8125 L -342.8125 153.8125 z M -613.8125 220.8125 C -622.77514 246.75281 -628.72281 276.40682 -629.8125 303.8125 L -626.8125 303.8125 C -619.81512 296.59602 -616.61395 284.64666 -614.46875 274.98047 L -613.8125 271.8125 C -613.21784 269.29346 -612.64183 266.785 -612.125 264.25 C -609.85549 252.17859 -606.72125 231.44937 -613.8125 220.8125 z "
       transform="translate(836.8125,420.1875)"
       inkscape:label="freistand" />
  </g>
</svg>
