<?xml version="1.0" encoding="UTF-8" standalone="no"?>
<svg
   version="1.1"
   width="1024"
   height="1024"
   id="svg34"
   sodipodi:docname="logo.svg"
   inkscape:version="1.4.3 (0d15f750, 2025-12-25)"
   xmlns:inkscape="http://www.inkscape.org/namespaces/inkscape"
   xmlns:sodipodi="http://sodipodi.sourceforge.net/DTD/sodipodi-0.dtd"
   xmlns="http://www.w3.org/2000/svg"
   xmlns:svg="http://www.w3.org/2000/svg">
  <defs
     id="defs34" />
  <sodipodi:namedview
     id="namedview34"
     pagecolor="#ffffff"
     bordercolor="#000000"
     borderopacity="0.25"
     inkscape:showpageshadow="2"
     inkscape:pageopacity="0.0"
     inkscape:pagecheckerboard="0"
     inkscape:deskcolor="#d1d1d1"
     inkscape:zoom="0.63277199"
     inkscape:cx="228.3603"
     inkscape:cy="211.76664"
     inkscape:window-width="1466"
     inkscape:window-height="921"
     inkscape:window-x="46"
     inkscape:window-y="33"
     inkscape:window-maximized="0"
     inkscape:current-layer="svg34" />
  <path
     d="M0 0 C337.92 0 675.84 0 1024 0 C1024 337.92 1024 675.84 1024 1024 C686.08 1024 348.16 1024 0 1024 C0 686.08 0 348.16 0 0 Z "
     fill="#FEFEFE"
     transform="translate(0,0)"
     id="path1" />
  <path
     d="M0 0 C0.845625 -0.02578125 1.69125 -0.0515625 2.5625 -0.078125 C5.47264128 0.31362479 6.8220601 1.33421954 9 3.25 C8.41268851 8.21375497 7.35469981 12.68258422 5.77734375 17.421875 C5.44577019 18.42889214 5.44577019 18.42889214 5.10749817 19.45625305 C4.63423582 20.89307602 4.15860222 22.32911977 3.68078613 23.76443481 C2.41165077 27.58158503 1.16452421 31.40589556 -0.08203125 35.23046875 C-0.33270355 35.99898666 -0.58337585 36.76750458 -0.84164429 37.55931091 C-4.4682216 48.71790202 -7.76280483 59.97297001 -11 71.25 C-11.31453125 72.34199707 -11.6290625 73.43399414 -11.953125 74.55908203 C-20.00905369 100.20678496 -20.00905369 100.20678496 -23.0625 126.6875 C-23.04896484 128.26337891 -23.04896484 128.26337891 -23.03515625 129.87109375 C-23.02355469 130.65613281 -23.01195312 131.44117188 -23 132.25 C-21.32171592 133.21624167 -21.32171592 133.21624167 -19 133.25 C-14.23468236 130.00149434 -11.21690531 126.18336977 -8.125 121.375 C-7.70081787 120.72950195 -7.27663574 120.08400391 -6.83959961 119.41894531 C-3.43430435 114.14433862 -0.42025785 108.69383714 2.39990234 103.08642578 C5.41923718 97.14023439 5.41923718 97.14023439 8 95.25 C10.6875 95.5625 10.6875 95.5625 13 96.25 C15.79555151 109.58393356 4.98475884 125.25606417 -2 136.25 C-4.71908056 140.16508352 -7.77316556 143.74467704 -11 147.25 C-11.59425781 147.92417969 -12.18851563 148.59835937 -12.80078125 149.29296875 C-16.95383614 153.77063023 -21.54581023 156.56178427 -27 159.25 C-27.66 159.58 -28.32 159.91 -29 160.25 C-33.53712952 160.84441664 -38.0698329 161.31384435 -42.17578125 159.05078125 C-45.25717728 156.43126471 -47.61845644 153.51044653 -50 150.25 C-50.42410156 150.96285156 -50.84820313 151.67570313 -51.28515625 152.41015625 C-57.38156927 162.36539773 -63.71522107 170.11611569 -75 174.25 C-80.30976965 175.17209287 -85.37664018 175.55502164 -90.30859375 173.1015625 C-94.13389995 170.09539671 -95.96615468 167.0746115 -97 162.25 C-97.66 162.25 -98.32 162.25 -99 162.25 C-99.32484375 163.27480469 -99.32484375 163.27480469 -99.65625 164.3203125 C-101.40076156 168.12375339 -103.77773922 170.97331097 -106.5 174.125 C-107.03246338 174.74342773 -107.56492676 175.36185547 -108.11352539 175.99902344 C-114.06293373 182.71789685 -121.43095106 189.52325177 -130.71875 190.55078125 C-140.31315079 190.5912071 -140.31315079 190.5912071 -144 187.25 C-149.27788306 179.89866288 -148.96775753 170.78983058 -147.68359375 162.11181641 C-145.6308743 150.95887349 -142.34251036 140.07206222 -139 129.25 C-145.13784149 130.98391363 -147.01028009 135.42385978 -150.015625 140.62890625 C-157.11458782 153.44042216 -161.07290847 166.6516575 -164.65625 180.75390625 C-165.09819702 182.4414502 -165.09819702 182.4414502 -165.54907227 184.16308594 C-166.13218157 186.39425219 -166.69585935 188.63060593 -167.23803711 190.87207031 C-169.27207193 198.59668216 -169.27207193 198.59668216 -172.97265625 201.91796875 C-178.35247233 204.28508783 -183.14165633 204.83152676 -189 204.25 C-191.5 203.125 -191.5 203.125 -193 201.25 C-193.75 198.0625 -193.75 198.0625 -194 195.25 C-194.40089844 195.79527344 -194.80179688 196.34054687 -195.21484375 196.90234375 C-202.75999964 206.91122401 -210.62066815 216.72927286 -223.74609375 218.65234375 C-228.53482943 218.83023141 -232.3203453 218.59514064 -236 215.25 C-239 210.18103448 -239 210.18103448 -239 207.25 C-239.66 207.25 -240.32 207.25 -241 207.25 C-241.38285156 208.31927734 -241.38285156 208.31927734 -241.7734375 209.41015625 C-245.94685571 219.0728156 -253.19784772 226.85617271 -262.8125 231.125 C-268.98523286 233.15822759 -275.38246231 233.36487716 -281.375 230.8125 C-284.86591966 227.40469748 -286.89199568 223.61524789 -289 219.25 C-289.7734375 220.4565625 -289.7734375 220.4565625 -290.5625 221.6875 C-293.48013279 226.05367583 -296.71438225 230.15689992 -300 234.25 C-300.5465625 234.94609375 -301.093125 235.6421875 -301.65625 236.359375 C-307.89092163 243.94685274 -316.84135736 251.47504545 -326.88671875 252.5625 C-331.68038214 252.75118048 -335.10998111 252.66322306 -339.5 250.625 C-344.88543174 245.50883985 -346.62814923 241.03923913 -347.25 233.875 C-347.32734375 233.13894531 -347.4046875 232.40289063 -347.484375 231.64453125 C-347.67104528 229.84782982 -347.83761464 228.04905887 -348 226.25 C-348.74894531 227.00667969 -349.49789063 227.76335937 -350.26953125 228.54296875 C-352.36563764 230.62108281 -354.46212503 232.6271739 -356.6875 234.5625 C-357.26886719 235.07425781 -357.85023438 235.58601562 -358.44921875 236.11328125 C-360 237.25 -360 237.25 -362 237.25 C-362.02578125 237.86746094 -362.0515625 238.48492188 -362.078125 239.12109375 C-362.89119013 251.26163444 -368.4220572 259.9880318 -377 268.375 C-386.56629742 276.62349115 -398.4516348 279.65334874 -410.828125 279.52734375 C-415.3977896 279.12777948 -417.46265862 278.17215157 -421 275.25 C-424.47253841 270.43325317 -424.34198476 265.94974592 -424 260.25 C-424.47308594 261.06082031 -424.94617188 261.87164063 -425.43359375 262.70703125 C-432.35109044 274.29012999 -439.77195717 284.45274803 -451 292.25 C-451.64453125 292.70503906 -452.2890625 293.16007812 -452.953125 293.62890625 C-458.8071825 297.15855857 -465.35865203 297.24929737 -472 296.25 C-476.97832972 293.06386898 -478.25322841 288.67418545 -480 283.25 C-483.24604073 286.29316319 -486.01438675 289.48747259 -488.75 293 C-499.20390279 306.1504235 -512.22436658 316.65522141 -529 320.25 C-536.79011004 320.91772372 -543.14034284 320.04396096 -549.3125 314.9375 C-552.17431099 312.2915703 -554.05776333 310.13672625 -555 306.25 C-556.59377145 308.34911361 -558.14848977 310.46292872 -559.65625 312.625 C-575.54576922 335.24736634 -575.54576922 335.24736634 -589 339.25 C-595.01081141 340.11063891 -600.01309791 340.10642331 -605.625 337.6875 C-610.7038839 332.47496126 -611.56070315 326.73617335 -611.5 319.75 C-611.49355469 318.96246338 -611.48710938 318.17492676 -611.48046875 317.36352539 C-611.04725525 303.22565978 -604.13930434 290.69618274 -598 278.25 C-600.64 277.92 -603.28 277.59 -606 277.25 C-606.22429687 278.02730469 -606.44859375 278.80460937 -606.6796875 279.60546875 C-610.66180011 290.59751331 -617.09332679 306.29988405 -627 313.25 C-628.32 313.25 -629.64 313.25 -631 313.25 C-633 310.25 -633 310.25 -632.8125 306.9375 C-632.00602868 303.27736095 -630.72738548 300.55112211 -629 297.25 C-629.59538574 297.49234375 -630.19077148 297.7346875 -630.80419922 297.984375 C-633.49302765 299.07649824 -636.18397174 300.16330919 -638.875 301.25 C-639.81214844 301.6315625 -640.74929688 302.013125 -641.71484375 302.40625 C-642.61074219 302.7671875 -643.50664063 303.128125 -644.4296875 303.5 C-645.25710449 303.83515625 -646.08452148 304.1703125 -646.93701172 304.515625 C-649 305.25 -649 305.25 -651 305.25 C-650.60167969 306.26707031 -650.60167969 306.26707031 -650.1953125 307.3046875 C-649.84210938 308.23539063 -649.48890625 309.16609375 -649.125 310.125 C-648.60292969 311.48238281 -648.60292969 311.48238281 -648.0703125 312.8671875 C-645.41661747 321.25441341 -644.66853456 329.22841936 -644.75 338 C-644.76015137 339.58868896 -644.76015137 339.58868896 -644.77050781 341.20947266 C-644.87407996 349.07493395 -645.44423348 356.52450794 -647 364.25 C-647.12358887 364.91596191 -647.24717773 365.58192383 -647.37451172 366.26806641 C-651.58229472 388.80648224 -659.68509866 415.13700417 -679 429.25 C-683.5642783 432.36200793 -687.86774438 433.00752059 -693.3046875 432.859375 C-697.34863833 431.94509046 -699.1363254 429.8491811 -701.66015625 426.68359375 C-710.95638663 409.79860388 -703.47507877 381.24482123 -699.51269531 363.55273438 C-698.86590097 360.64770377 -698.24283896 357.73778118 -697.6171875 354.828125 C-695.09523819 343.19516148 -692.57112699 331.61458647 -689 320.25 C-689.75023437 320.58386719 -690.50046875 320.91773438 -691.2734375 321.26171875 C-694.89845349 322.57565721 -697.28464033 322.14443844 -701 321.25 C-703.16167286 319.62494851 -703.89694634 318.65099792 -704.57421875 316.015625 C-704.74242199 312.28035311 -704.78759224 309.42908545 -702.6640625 306.25 C-698.62429916 302.43182705 -694.29836542 300.46736772 -689.1875 298.375 C-684.89324737 296.5823865 -684.89324737 296.5823865 -681.640625 293.4375 C-680.8258358 291.04745167 -680.40216536 288.74413079 -680 286.25 C-679.4571727 283.8912195 -678.89208983 281.53751757 -678.3125 279.1875 C-678.14959473 278.51968506 -677.98668945 277.85187012 -677.81884766 277.16381836 C-671.48882326 251.86959279 -663.08383665 224.68271662 -641.0703125 208.86328125 C-635.38016752 205.49877644 -629.44851167 205.51432473 -623 206.25 C-617.68401262 207.95871023 -615.70149945 210.44358224 -613 215.25 C-611.52896509 224.98478985 -612.88312932 233.8474641 -618.203125 242.12109375 C-620.69706243 245.41214409 -622.9936976 247.27285307 -627 248.25 C-630.1875 248.5 -630.1875 248.5 -633 248.25 C-633.66 247.59 -634.32 246.93 -635 246.25 C-634.57800261 239.77937329 -632.63249686 233.502771 -631 227.25 C-632.9406383 227.35665953 -632.9406383 227.35665953 -635 228.25 C-637.22482062 231.98238564 -638.52623736 236.17123794 -640 240.25 C-640.39058594 241.32378906 -640.78117187 242.39757812 -641.18359375 243.50390625 C-645.88437611 257.0514069 -650.3301305 271.15194209 -653 285.25 C-645.23839364 283.41257876 -645.23839364 283.41257876 -637.625 281.0625 C-634.55886107 280.113457 -632.19055941 279.8954934 -629 280.25 C-627.1875 281.25 -627.1875 281.25 -626 283.25 C-625.46059517 285.93115931 -625.22431886 288.5133099 -625 291.25 C-623.7947778 289.02890472 -622.61112596 286.8002135 -621.4375 284.5625 C-621.09525391 283.93666016 -620.75300781 283.31082031 -620.40039062 282.66601562 C-618.88238365 279.73733551 -617.96277829 277.73388226 -618.21875 274.40625 C-618.92597762 272.25053624 -618.92597762 272.25053624 -620.0625 270.4375 C-622.49872848 264.75296688 -620.95521312 258.90272914 -618.9140625 253.3515625 C-616.33622268 247.42473419 -612.32329396 242.68708224 -607.125 238.875 C-603.79763185 237.89636231 -601.33132627 238.41716843 -598 239.25 C-595.5 240.6875 -595.5 240.6875 -594 243.25 C-593.90361967 247.77246165 -594.57232139 251.96696417 -596 256.25 C-595.33613281 255.98445312 -594.67226563 255.71890625 -593.98828125 255.4453125 C-591.32552083 254.38020833 -588.66276042 253.31510417 -586 252.25 C-584.70642578 251.70279297 -584.70642578 251.70279297 -583.38671875 251.14453125 C-580.02546739 249.88474964 -577.55944828 249.80506897 -574 250.25 C-571.36983839 252.4227422 -569.52663106 254.19673788 -568 257.25 C-568.31087278 264.46366153 -570.25421857 269.92566475 -573.25 276.4375 C-574.06905148 278.2918026 -574.88545807 280.1472757 -575.69921875 282.00390625 C-576.09415527 282.89996582 -576.4890918 283.79602539 -576.89599609 284.71923828 C-580.91367231 293.92915241 -583.93694322 302.04772941 -583 312.25 C-577.12161527 311.29006175 -573.93729391 308.69286946 -570.30859375 304.1171875 C-568.45793996 301.54200482 -566.72314646 298.9120162 -565 296.25 C-564.42121094 295.42242188 -563.84242188 294.59484375 -563.24609375 293.7421875 C-558.92069871 287.1041092 -556.77147351 280.58117483 -554.625 273 C-548.82321959 252.77920853 -537.43328228 234.63242099 -518.71484375 223.9453125 C-511.80017835 220.68473857 -504.53397672 220.25915709 -497 221.25 C-491.82308798 223.30099617 -489.85635344 225.10899356 -487.69140625 230.08203125 C-485.21985036 237.83182514 -487.78992812 245.7023521 -491.21875 252.7578125 C-499.17505453 266.8581522 -512.09239113 277.94293471 -527 284.25 C-527.66 284.25 -528.32 284.25 -529 284.25 C-527.87302957 289.21911366 -527.87302957 289.21911366 -525 293.25 C-516.28375901 294.53600277 -510.20728119 290.92523761 -503 286.25 C-496.40866594 281.20025482 -491.73917124 274.97117712 -487 268.25 C-486.28199219 267.23292969 -485.56398438 266.21585938 -484.82421875 265.16796875 C-478.9015898 255.84126569 -476.35936847 245.9210562 -473.640625 235.30078125 C-468.10518945 214.04921075 -468.10518945 214.04921075 -460.3125 208.25 C-454.70183667 206.55621484 -449.34690547 206.19628734 -443.9375 208.625 C-442 210.25 -442 210.25 -441 212.25 C-440.65232007 216.98117393 -441.56362138 220.44805706 -443.1875 224.875 C-448.13514143 238.97747307 -451.49055358 253.38082635 -453 268.25 C-441.64938726 265.57926759 -436.75592308 257.2616706 -430.80078125 247.79296875 C-428.86353784 244.65405817 -427.00935364 241.47163159 -425.17626953 238.27099609 C-423.97420145 236.20567447 -422.72158802 234.17694866 -421.46484375 232.14453125 C-416.47944736 223.7923357 -414.3364014 217.39712849 -414.30517578 207.65161133 C-414.18445618 197.99721992 -409.66441038 190.04691553 -403.12109375 183.06640625 C-394.51595928 175.69736845 -385.1302958 171.73377898 -373.8515625 171.9296875 C-369.73371366 172.39224038 -367.99527848 173.41236776 -365 176.25 C-362.63523719 179.47467656 -362.47216294 182.32892472 -363 186.25 C-365.44561336 191.68702884 -368.5524513 195.58417829 -374 198.25 C-376.1875 198.25 -376.1875 198.25 -378 197.25 C-381 193.92857143 -381 193.92857143 -381 191.25 C-382.98 192.24 -382.98 192.24 -385 193.25 C-385.0825 194.44625 -385.165 195.6425 -385.25 196.875 C-385.29640625 197.54789063 -385.3428125 198.22078125 -385.390625 198.9140625 C-384.44945425 204.54226361 -379.79393156 208.70271518 -376 212.6875 C-372.292572 216.69020987 -369.39151801 220.35825861 -367 225.25 C-356.91241076 220.98217378 -348.64082071 210.13769211 -344.12109375 200.45703125 C-341.64054734 193.36111276 -340.16933246 185.96622103 -338.55322266 178.63525391 C-337.81843003 175.46714977 -336.93320053 172.36492961 -336 169.25 C-336.556875 169.4665625 -337.11375 169.683125 -337.6875 169.90625 C-343.01679925 171.85072405 -347.32447424 172.93497725 -353 172.25 C-355.0625 170.6875 -355.0625 170.6875 -356 168.25 C-355.92203946 164.04013091 -355.21377113 160.19281283 -352.68359375 156.7265625 C-348.18229294 152.77878592 -341.5056956 150.03545756 -335.7019043 148.73510742 C-330.99946364 147.63050786 -330.99946364 147.63050786 -327.69213867 144.32885742 C-326.6805651 141.89147617 -325.90252144 139.47745551 -325.1875 136.9375 C-322.45260178 128.06774326 -319.50696095 121.96181812 -312 116.25 C-308.28345598 114.39172799 -304.05631319 114.81766568 -300 115.25 C-296.8125 116.6875 -296.8125 116.6875 -295 119.25 C-294.62029967 124.71346593 -296.35501135 130.09570224 -298 135.25 C-297.41992188 135.05664062 -296.83984375 134.86328125 -296.2421875 134.6640625 C-294.61952824 134.12317608 -292.99576928 133.58558084 -291.37109375 133.05078125 C-289.5438386 132.43366872 -287.73569826 131.75976055 -285.9375 131.0625 C-281.62344241 129.86925003 -277.155805 129.1720975 -273 131.25 C-271.38095896 134.48808208 -271.22746207 137.7766208 -272 141.25 C-274.752584 146.59042481 -277.94812442 148.67544499 -283.375 150.8125 C-284.0774585 151.11945801 -284.77991699 151.42641602 -285.50366211 151.74267578 C-289.03163902 153.24554557 -292.11156346 154.26924275 -295.91796875 154.92578125 C-300.20960199 155.74914926 -302.58168448 156.48236775 -306 159.25 C-309.4932602 165.86600126 -310.76896433 173.43481905 -312.25439453 180.70263672 C-312.99721185 184.23673483 -313.85117276 187.72423918 -314.74609375 191.22265625 C-315.31183368 193.48128633 -315.87569516 195.74038791 -316.4375 198 C-316.69724609 199.03278076 -316.95699219 200.06556152 -317.22460938 201.12963867 C-318.94632003 208.51746113 -319.56718831 215.6648705 -319 223.25 C-317.91364731 224.53722025 -317.91364731 224.53722025 -315.3125 224.625 C-309.96509755 224.01963368 -306.67722152 220.23198772 -303.40234375 216.19921875 C-302.57365769 215.11735931 -301.75204044 214.03004945 -300.9375 212.9375 C-300.52951172 212.40705078 -300.12152344 211.87660156 -299.70117188 211.33007812 C-294.13542223 203.98821248 -290.21391838 196.81407488 -287.125 188.125 C-279.59733564 167.81978959 -269.74068437 147.7952411 -249.1640625 138.16015625 C-243.03202285 135.58115762 -237.67528876 135.42466924 -231.5 137.75 C-230.345 138.245 -229.19 138.74 -228 139.25 C-227.319375 138.321875 -226.63875 137.39375 -225.9375 136.4375 C-223.06531604 133.02324189 -220.33120633 131.51949151 -216 130.25 C-211.18893927 130.41589865 -207.8836373 131.39438434 -204 134.25 C-202.02506735 138.19986531 -202.44782681 142.54399567 -203.77368164 146.64038086 C-204.10746826 147.48995361 -204.44125488 148.33952637 -204.78515625 149.21484375 C-207.14976934 155.50909602 -208.99067765 161.88891458 -210.75 168.375 C-211.06582031 169.49003906 -211.38164063 170.60507812 -211.70703125 171.75390625 C-213.44179037 178.12970926 -214.36312774 183.64386849 -214 190.25 C-211.10873776 190.50467077 -209.50345453 190.58262166 -207.04296875 188.95703125 C-201.25148731 183.04362389 -197.0145823 176.46950095 -193 169.25 C-192.66347412 168.65501709 -192.32694824 168.06003418 -191.98022461 167.44702148 C-189.02986536 161.95361046 -187.52413307 156.35000958 -186.0625 150.3125 C-185.54876959 148.27426112 -185.0331258 146.2365036 -184.515625 144.19921875 C-184.13567383 142.69560791 -184.13567383 142.69560791 -183.74804688 141.16162109 C-182.66932894 136.96292982 -181.51583172 132.78952163 -180.3125 128.625 C-180.12244385 127.94574463 -179.9323877 127.26648926 -179.73657227 126.56665039 C-178.13242231 121.07957759 -176.51321379 117.3697782 -171.875 113.9375 C-167.66862412 111.75410574 -163.64178816 111.39813626 -159 112.25 C-156 113.875 -156 113.875 -154 116.25 C-153.1875 119.5 -153.1875 119.5 -153 122.25 C-152.55269531 121.65832031 -152.10539063 121.06664062 -151.64453125 120.45703125 C-145.48550806 112.4069647 -139.1788226 105.8394113 -130 101.25 C-124.38299038 100.665831 -119.70834257 100.85561349 -115 104.25 C-111.31643605 108.90292289 -110.26778606 112.78295006 -110.47265625 118.69140625 C-111.84977849 127.98443113 -115.02813501 136.99065406 -117.84448242 145.93066406 C-119.18503732 150.25753178 -120.36297395 154.33163536 -120.6875 158.875 C-120.75324219 159.71289062 -120.81898438 160.55078125 -120.88671875 161.4140625 C-120.94279297 162.32285156 -120.94279297 162.32285156 -121 163.25 C-110.70856023 159.88952987 -105.7141141 151.10538867 -100.77734375 141.9609375 C-98.48189746 137.41764361 -97.24135068 132.67860766 -95.98046875 127.76171875 C-90.61303154 108.53731219 -79.0491402 91.78946849 -62 81.25 C-57.8828628 79.16443378 -54.4658134 79.00889178 -49.875 79.0625 C-48.04582031 79.07216797 -48.04582031 79.07216797 -46.1796875 79.08203125 C-43 79.25 -43 79.25 -40 80.25 C-39.8141333 79.4657666 -39.6282666 78.6815332 -39.43676758 77.87353516 C-32.5841736 49.03140003 -32.5841736 49.03140003 -28.59277344 35.31054688 C-27.96349319 33.12309825 -27.35964736 30.92952304 -26.7578125 28.734375 C-20.86839059 7.50495689 -20.86839059 7.50495689 -13.4375 3.1875 C-8.95128683 1.00270641 -4.98490191 0.09118723 0 0 Z "
     fill="#030403"
     transform="translate(886,322.75)"
     id="path2" />
  <path
     d="m 0,0 c 2.3895421,2.389542 2.5152362,3.6031129 3.1574707,6.8791504 l 0.6179962,3.0918121 0.6503143,3.3766935 0.6953583,3.511093 c 0.7376693,3.733204 1.464712,7.468388 2.1913605,11.203751 0.4778044,2.429176 0.9563126,4.858215 1.4355469,7.287109 0.9548014,4.843193 1.9054231,9.68718 2.8532711,14.531739 1.329095,6.781878 2.685346,13.558116 4.04712,20.333496 1.813587,9.036221 3.570416,18.080923 5.263,27.140533 2.679868,14.330223 5.424629,28.647753 8.213562,42.957123 l 0.516174,2.6485 c 2.130705,10.91684 4.328363,21.81584 6.636658,32.69671 1.761707,8.37072 3.307842,16.77713 4.845703,25.19141 2.971906,16.21612 6.225129,32.37872 9.70874,48.49268 C 52,254.78915 52,254.78915 52,257 c 7.817733,-6.03558 15.486875,-12.19118 22.955322,-18.65503 4.361446,-3.77274 8.799497,-7.43856 13.275147,-11.07544 C 93.544417,222.91494 98.765268,218.44922 104,214 c 7.01235,-5.96008 14.04961,-11.87759 21.1875,-17.6875 3.69344,-3.03683 7.33548,-6.13211 10.97876,-9.22876 3.39328,-2.87919 6.81642,-5.71578 10.27124,-8.52124 3.60412,-2.92933 7.14651,-5.9163 10.65625,-8.95703 C 166.36346,161.57578 175.93782,154.02013 186,147 c -1.61231,3.63847 -3.85255,6.50879 -6.3125,9.625 -4.11479,5.26175 -8.05592,10.62688 -11.9375,16.0625 -5.03549,7.03237 -10.25072,13.89716 -15.58887,20.7019 -3.783,4.82539 -7.49969,9.69242 -11.16113,14.6106 -4.90898,6.5898 -9.93318,13.08344 -14.99121,19.55933 -4.01683,5.14845 -7.96126,10.34201 -11.86426,15.57739 C 108.69342,250.4148 103.12682,257.60709 97.5,264.75 l -1.90625,2.42187 C 94,269 94,269 92,270 l -2.25,-2.3125 C 85.876338,263.90188 83.443979,261.75611 78,261 c 1.484137,-3.48654 3.462141,-5.64191 6.1875,-8.25 2.877511,-2.80878 5.64239,-5.62666 8.25,-8.6875 3.436866,-4.01101 7.154507,-7.69156 10.9375,-11.375 2.04058,-2.08916 3.94463,-4.19392 5.84375,-6.40625 4.94594,-5.70603 10.37544,-10.92135 15.75391,-16.21484 4.3323,-4.29058 8.4881,-8.64496 12.45947,-13.27149 2.22835,-2.55105 4.59366,-4.91624 7.00537,-7.29492 l 2.62109,-2.59375 L 149,185 l -2.8125,2.4375 c -3.04452,2.6122 -6.13605,5.15857 -9.25,7.6875 -4.37012,3.56084 -8.66738,7.19504 -12.9375,10.875 -5.01175,4.31816 -10.08218,8.54907 -15.21875,12.71875 -3.14509,2.57968 -6.24605,5.20757 -9.34375,7.84375 -4.550293,3.86997 -9.165831,7.6371 -13.847656,11.34766 -3.619101,2.92039 -7.156069,5.93387 -10.696533,8.94873 -3.490842,2.96837 -7.018646,5.88317 -10.580811,8.76611 -15.665717,12.79603 -15.665717,12.79603 -25.1875,30.1875 -2.364424,6.54439 -2.364424,6.54439 -5.148438,8.89844 C 31.666073,295.72431 29.44824,296.39584 27,297 18.464001,299.80507 12.498252,303.96429 6.4960937,310.68359 4.7117117,312.25366 3.2914417,312.49793 1,313 0.01773069,256.60277 -0.28335358,200.20584 -0.51740873,143.80125 -0.56785249,131.67905 -0.62235604,119.55686 -0.67708123,107.43468 -0.78900721,82.623139 -0.89621144,57.811578 -1,33 -1.9470513,37.995761 -2.8935782,42.99162 -3.8396606,47.987564 -4.1602429,49.680075 -4.4809579,51.37256 -4.8018189,53.065018 -6.8148411,63.683769 -8.8028198,74.306472 -10.75,84.9375 c -1.377424,7.475374 -2.806891,14.925069 -4.449219,22.34766 -1.095307,5.08115 -2.101383,10.17901 -3.113281,15.27734 -1.554053,7.82361 -3.138886,15.63951 -4.770752,23.44727 -2.611676,12.49967 -5.110698,25.01685 -7.541748,37.55273 -3.227755,16.63539 -6.510126,33.25965 -9.827332,49.87741 -0.525695,2.63355 -1.050295,5.26731 -1.57434,7.90118 C -44.863981,255.59694 -47.750109,269.83184 -51,284 c -3.846967,-1.77607 -5.939284,-3.92148 -8.75,-7.125 -5.451316,-6.13597 -11.231042,-11.9006 -17.118164,-17.61768 l -2.018555,-1.98388 -1.819092,-1.76807 C -82,254 -82,254 -82,252 l -1.987628,-1.99182 c -1.199219,-1.22266 -1.211591,0.76916 -2.699872,-1.07068 -3.57846,-4.20821 -7.397312,-8.10937 -11.3125,-12 l -1.947998,-1.93799 C -101.9634,232.99771 -103.98126,230.99843 -106,229 -121.32591,213.82823 -121.32591,213.82823 -126.46875,207.75391 -129.4614,204.3261 -132.75316,201.18464 -136,198 c -5.24428,-5.14382 -10.23771,-10.40431 -15,-16 4.04424,5.46519 8.20632,10.82985 12.41406,16.16943 3.81736,4.84638 7.61268,9.70948 11.39844,14.58057 l 1.77661,2.28564 c 2.40791,3.09846 4.81514,6.19744 7.22241,9.29639 7.7007,9.9122 15.42289,19.80654 23.18848,29.66797 1.771436,2.24953 3.542356,4.49946 5.3125,6.75 l 1.330322,1.69116 c 4.641627,5.9082 9.248423,11.8435 13.850586,17.78247 l 1.733155,2.2334 1.549316,1.99927 c 1.138387,1.4962 1.138387,1.4962 2.224121,2.5437 l 3.671631,-0.66162 c 12.114109,-2.03154 12.114109,-2.03154 17.61676,0.86706 5.425973,4.03432 9.819867,9.12044 14.274109,14.16956 1.385051,1.49416 2.775001,2.9838 4.169922,4.46875 3.039891,3.24342 6.029032,6.52616 8.978042,9.85239 1.278227,1.43215 1.278227,1.43215 3.289536,2.30386 v 2 c -17.148936,10.7234 -17.148936,10.7234 -26,9 l -0.882812,-1.79297 c -3.582808,-6.90648 -7.389177,-11.7855 -14.941407,-14.69922 -9.908865,-2.31266 -17.907731,-0.35282 -26.328125,4.8125 -4.042561,2.65222 -4.042561,2.65222 -6.703369,6.5865 C -93.002304,326.3591 -94.075721,328.08444 -96,330 c -4.01009,1.21734 -7.9457,1.04512 -12.10938,0.96484 l -3.81889,0.0247 c -2.78779,0.0178 -5.57402,0.0104 -8.36174,-0.0159 -4.55219,-0.0425 -9.10326,-0.0294 -13.65555,-0.009 -5.93173,0.0231 -11.86322,0.0317 -17.79499,0.0255 -13.44554,-0.0123 -26.88889,0.0978 -40.33367,0.23236 l -3.38747,0.0337 c -4.55491,0.0456 -9.1098,0.0916 -13.66469,0.13863 -8.00194,0.0825 -16.00391,0.15884 -24.00594,0.2317 -23.74885,0.21751 -47.49642,0.45466 -71.24268,0.87329 l -3.29929,0.0544 c -2.97066,0.0501 -5.94114,0.10588 -8.91165,0.16431 l -2.46238,0.041 c -6.01374,0.13161 -11.96789,0.63801 -17.95168,1.24023 37.01561,6.13063 74.05554,12.09393 111.1155,17.9502 4.32221,0.68304 8.64439,1.36631 12.96653,2.0498 l 2.52475,0.39923 c 15.71887,2.48644 31.43019,5.01726 47.13394,7.5976 1.48877,0.24458 2.97754,0.48913 4.46631,0.73364 l 2.04785,0.33647 c 6.24166,1.02175 12.49152,1.98749 18.74512,2.93306 v 2 c -9.94719,3.31573 -18.98388,1.53514 -29.14453,-0.16016 -1.39539,-0.22803 -2.79088,-0.45549 -4.18645,-0.68242 -3.72408,-0.60711 -7.44686,-1.22187 -11.16945,-1.83807 -3.87994,-0.64079 -7.76109,-1.27419 -11.64215,-1.90822 -6.15701,-1.00665 -12.3134,-2.01697 -18.46924,-3.03076 -9.62053,-1.5843 -19.24332,-3.15455 -28.86694,-4.72 -2.51956,-0.4101 -5.03897,-0.82116 -7.55835,-1.23239 -13.52267,-2.20527 -27.05404,-4.35452 -40.58658,-6.49832 -12.72663,-2.01711 -25.44322,-4.08299 -38.15024,-6.22043 -8.95905,-1.50576 -17.9261,-2.95567 -26.90063,-4.36621 C -361.13458,336.32184 -367.57017,335.19656 -374,334 l 1,-2 c 2.24854,-0.49902 2.24854,-0.49902 5.28906,-0.85938 l 3.48511,-0.43408 3.85083,-0.45654 c 2.73917,-0.33945 5.47714,-0.68795 8.21484,-1.03906 l 2.20473,-0.28159 c 9.88316,-1.28197 19.72333,-2.86456 29.56291,-4.44241 9.51652,-1.5256 19.00495,-2.81204 28.59639,-3.76572 7.02516,-0.71091 13.96128,-1.78111 20.92113,-2.97122 2.66627,-0.44276 5.33275,-0.88357 8,-1.32031 l 2.11551,-0.34677 c 9.27878,-1.50875 18.58185,-2.85572 27.88449,-4.20792 l 2.70782,-0.39392 c 9.96574,-1.44837 19.93312,-2.88538 29.904,-4.29797 10.51268,-1.49383 21.01685,-3.04691 31.5227,-4.58786 9.57757,-1.40468 19.15516,-2.80681 28.74048,-4.15775 10.38107,-1.46524 20.74389,-3.0533 31.10742,-4.63696 2.67062,-0.408 5.34167,-0.81296 8.01319,-1.21509 2.572838,-0.38827 5.144801,-0.78242 7.715816,-1.18262 C -87.037765,290.47552 -81.196613,289.75214 -75,290 l -1.914062,-2.42969 c -5.989685,-7.60999 -11.948708,-15.24317 -17.888917,-22.89184 -3.569617,-4.59383 -7.156511,-9.17331 -10.759521,-13.74097 C -111.79622,243.02565 -117.89502,235.01132 -124,227 c -6.61138,-8.67282 -13.2398,-17.33109 -19.9375,-25.9375 l -1.75928,-2.26147 c -2.93908,-3.77493 -5.8854,-7.54393 -8.84228,-11.30494 C -162.63001,177.18388 -170.39978,166.67832 -178,156 c -0.95679,-1.34001 -1.91381,-2.67987 -2.87109,-4.01953 L -183,149 c 4.11853,0 5.22737,1.62814 8.3125,4.3125 1.08043,0.92765 2.16253,1.85336 3.24609,2.77734 l 1.71045,1.46045 c 2.8086,2.35225 5.70849,4.58363 8.60596,6.82471 5.52476,4.29457 10.86185,8.7706 16.15137,13.35059 4.08443,3.53154 8.2491,6.93735 12.48535,10.28613 3.878,3.09875 7.67277,6.29603 11.48047,9.48047 4.64154,3.86996 9.32553,7.68734 14.00781,11.50781 1.72928,1.41653 3.45844,2.8332 5.1875,4.25 4.59558,3.76062 9.202823,7.50669 13.8125,11.25 1.382838,1.12367 2.765651,2.24736 4.148438,3.37109 2.274453,1.84834 4.550393,3.69476 6.828125,5.53907 5.83639,4.74314 11.569316,9.59503 17.254394,14.51782 l 1.702637,1.47046 1.501709,1.30224 C -54.757461,252.2014 -52.888421,253.60338 -51,255 l 0.379639,-2.09766 C -50.020928,249.60098 -49.41669,246.3005 -48.8125,243 l 0.595703,-3.29297 c 1.405889,-7.65669 2.947593,-15.27665 4.548828,-22.89453 C -40.814968,203.23359 -38.15292,189.61919 -35.5,176 c 3.026649,-15.53779 6.109714,-31.0589 9.361328,-46.55127 1.597393,-7.61855 3.121512,-15.25137 4.638672,-22.88623 0.451134,-2.26538 0.902521,-4.53072 1.353912,-6.796051 0.297804,-1.494744 0.595475,-2.989515 0.893006,-4.484314 0.871803,-4.377994 1.750538,-8.754513 2.635895,-13.129791 C -14.48001,71.576118 -12.434028,60.990383 -10.5,50.375 -8.4277167,39.020615 -6.0685507,27.74881 -3.5522461,16.485352 -2.7441468,12.848548 -1.9651089,9.2059445 -1.1875,5.5625 l 0.70703125,-3.3085937 z"
     fill="#060606"
     transform="translate(511,163)"
     id="path3"
     sodipodi:nodetypes="ccccccccccscccccccscccccccccccccccccccccccccccccccccccccccscsscccccscccccccccccscscccccsccccccccccccccccccccccccccsccccccsscsccccccccsccccccccccccccccccccscscccccccccccccccccccccccscccccccccsccsccccccc" />
  <path
     d="M0 0 C-0.44670292 9.18024626 -2.04900937 18.00089606 -3.92294312 26.97113037 C-4.83509246 31.34323675 -5.72180875 35.72050406 -6.609375 40.09765625 C-6.80021164 41.03714111 -6.99104828 41.97662598 -7.18766785 42.94458008 C-9.63767668 55.06565645 -11.90914758 67.22071649 -14.1875 79.375 C-14.39124237 80.46183075 -14.59498474 81.5486615 -14.80490112 82.66842651 C-15.00455475 83.73360504 -15.20420837 84.79878357 -15.40991211 85.89624023 C-15.80840545 88.02197744 -16.20692416 90.1477099 -16.60546875 92.2734375 C-16.80207596 93.3226236 -16.99868317 94.37180969 -17.20124817 95.45278931 C-18.81615913 104.05598284 -20.466944 112.65203898 -22.12458801 121.24708557 C-24.19538245 131.99295351 -26.2265438 142.74615827 -28.25140381 153.50076294 C-28.89508216 156.91915049 -29.53948914 160.33740002 -30.18408203 163.75561523 C-31.81512278 172.40524875 -33.44562572 181.05498338 -35.07421875 189.70507812 C-41.63918982 224.57169188 -41.63918982 224.57169188 -45 241 C-46.64484014 238.02648643 -47.44902555 235.37840513 -48.04296875 232.0390625 C-48.22577393 231.03101563 -48.4085791 230.02296875 -48.59692383 228.984375 C-48.79181396 227.87578125 -48.9867041 226.7671875 -49.1875 225.625 C-49.63261487 223.15881849 -50.07793912 220.69267476 -50.5234375 218.2265625 C-50.76410203 216.88315676 -51.00465947 215.53973183 -51.24511719 214.19628906 C-52.43165075 207.58249903 -53.65579712 200.97559949 -54.87564087 194.3678894 C-55.31849837 191.96748728 -55.76032901 189.56689808 -56.2019043 187.16625977 C-57.78402018 178.56845726 -59.3754486 169.97246388 -60.98046875 161.37890625 C-64.3304576 143.43942898 -67.65047946 125.49618098 -70.85583496 107.53024292 C-73.80792054 90.98678107 -76.84315691 74.45892286 -79.89233398 57.93310547 C-80.9330963 52.2896246 -81.96967925 46.64539683 -83 41 C-83.15670166 40.14144409 -83.31340332 39.28288818 -83.47485352 38.39831543 C-83.90841063 36.01351955 -84.33790492 33.62803634 -84.765625 31.2421875 C-84.95581207 30.19673264 -84.95581207 30.19673264 -85.14984131 29.13015747 C-85.64063722 26.36909234 -86 23.81197499 -86 21 C-85.07960938 20.97421875 -84.15921875 20.9484375 -83.2109375 20.921875 C-69.41558301 20.30375321 -58.71501179 16.77955081 -46 11 C-45.67 76.67 -45.34 142.34 -45 210 C-43.02 197.625 -43.02 197.625 -41 185 C-38.34227114 171.46622539 -38.34227114 171.46622539 -37.30761719 166.45166016 C-35.9271634 159.69152338 -34.63200194 152.91642184 -33.3515625 146.13671875 C-33.13028183 144.96608383 -32.90900116 143.79544891 -32.68101501 142.58934021 C-32.22747772 140.18729202 -31.7743523 137.78516603 -31.32162476 135.38296509 C-30.12270299 129.02290755 -28.91898221 122.66375915 -27.71484375 116.3046875 C-27.36106407 114.43623924 -27.36106407 114.43623924 -27.00013733 112.53004456 C-25.08993622 102.45216205 -23.15243317 92.37984514 -21.1875 82.3125 C-21.04911713 81.60326385 -20.91073425 80.89402771 -20.76815796 80.16329956 C-20.10208096 76.7508029 -19.43510886 73.33848209 -18.76757812 69.92626953 C-17.73770457 64.66052541 -16.71198382 59.39397859 -15.68994141 54.12670898 C-15.19622191 51.58298027 -14.70115007 49.03951359 -14.20458984 46.49633789 C-12.88259021 39.69349267 -11.6133828 32.88511431 -10.3984375 26.0625 C-9.9989478 23.84424316 -9.59860939 21.62614109 -9.19802856 19.40808105 C-8.82047503 17.294642 -8.45589566 15.1792262 -8.09155273 13.06347656 C-7.86153564 11.78956055 -7.63151855 10.51564453 -7.39453125 9.203125 C-7.19706299 8.07551758 -6.99959473 6.94791016 -6.79614258 5.78613281 C-5.58661817 1.55335373 -4.48408337 0 0 0 Z "
     fill="#050505"
     transform="translate(557,595)"
     id="path4" />
  <path
     d="M0 0 C2.51385633 0.92965253 3.48055952 1.9648149 5.1953125 4.015625 C5.79730469 4.73492188 6.39929688 5.45421875 7.01953125 6.1953125 C10.26958205 10.26870951 13.44359071 14.39816807 16.6015625 18.54296875 C19.33025669 22.11860763 22.14021749 25.625572 24.9609375 29.12890625 C26.95270305 31.61861318 28.92190581 34.12427851 30.88574219 36.63598633 C37.03927815 44.50528578 43.32664633 52.26039356 49.63671875 60.00439453 C54.90426393 66.47579626 60.06019382 73.02473527 65.13378906 79.64892578 C68.85039994 84.49649308 72.61937542 89.30174085 76.40356445 94.09667969 C78.66181629 96.96055931 80.89920522 99.83498844 83.0703125 102.765625 C82.7403125 103.425625 82.4103125 104.085625 82.0703125 104.765625 C81.60882812 104.40436523 81.14734375 104.04310547 80.671875 103.67089844 C72.52392702 97.29826916 64.36571889 90.94565019 56.0703125 84.765625 C48.07611423 78.80530042 40.20928168 72.68771317 32.35253906 66.54785156 C28.59635192 63.61458604 24.83305416 60.69047442 21.0703125 57.765625 C16.55674595 54.25627185 12.04406418 50.74580627 7.53515625 47.23046875 C0.10975372 41.44351655 -7.32853894 35.67442737 -14.8046875 29.953125 C-15.50271484 29.4183252 -16.20074219 28.88352539 -16.91992188 28.33251953 C-20.14605107 25.8670535 -23.38357059 23.42153735 -26.66015625 21.0234375 C-27.22686035 20.60682861 -27.79356445 20.19021973 -28.37744141 19.76098633 C-29.88156923 18.65915698 -31.39172699 17.56557227 -32.90234375 16.47265625 C-33.57136719 15.90933594 -34.24039063 15.34601562 -34.9296875 14.765625 C-34.9296875 14.105625 -34.9296875 13.445625 -34.9296875 12.765625 C-32.68304488 11.44707405 -30.43271444 10.13568528 -28.1796875 8.828125 C-27.54546875 8.45494141 -26.91125 8.08175781 -26.2578125 7.69726562 C-19.95034717 4.05076223 -19.95034717 4.05076223 -16.9296875 3.765625 C-15.12234497 4.97842407 -15.12234497 4.97842407 -13.26611328 6.87744141 C-12.56503448 7.58212555 -11.86395569 8.28680969 -11.14163208 9.0128479 C-10.39364349 9.78977997 -9.64565491 10.56671204 -8.875 11.3671875 C-8.09583221 12.1558017 -7.31666443 12.94441589 -6.5138855 13.75692749 C-4.01548861 16.29001436 -1.53470086 18.83954833 0.9453125 21.390625 C3.42146233 23.91684669 5.90111472 26.43955176 8.38308716 28.96005249 C9.9276612 30.53087427 11.46828142 32.10559647 13.00436401 33.6847229 C16.86530302 37.63415882 20.7683359 41.30278558 25.0703125 44.765625 C29.0121676 48.50001405 32.55617203 52.55225552 36.1484375 56.6171875 C39.54263721 60.41151645 42.97404547 63.75366395 47.0703125 66.765625 C46.32007813 65.90582031 45.56984375 65.04601562 44.796875 64.16015625 C39.31258552 57.83955548 33.9760225 51.46956885 28.92553711 44.79516602 C25.63129126 40.45502471 22.21281321 36.22853988 18.7578125 32.015625 C12.43210496 24.28975713 6.33515571 16.39876709 0.32714844 8.42382812 C-0.69756752 7.07187188 -1.74413003 5.73649679 -2.796875 4.40625 C-3.9296875 2.765625 -3.9296875 2.765625 -3.9296875 0.765625 C-1.9296875 -0.234375 -1.9296875 -0.234375 0 0 Z "
     fill="#070707"
     transform="translate(611.9296875,574.234375)"
     id="path5" />
  <path
     d="M0 0 C4.95637498 2.96609575 8.13039635 7.27320178 11.00390625 12.19921875 C13.32329375 21.49212891 12.42286707 29.72954385 8.00390625 38.19921875 C4.76162826 43.5258183 -0.11274572 46.05705757 -5.98828125 47.78515625 C-13.04076183 49.23955886 -18.44846825 48.21833646 -24.76171875 44.7578125 C-29.60044894 41.38254442 -32.17608152 36.73047332 -33.99609375 31.19921875 C-34.85108346 22.50019557 -34.82448465 13.7826327 -29.99609375 6.19921875 C-21.92205304 -3.19384841 -10.95296853 -5.42886266 0 0 Z "
     fill="#F8F8F8"
     transform="translate(950.99609375,475.80078125)"
     id="path6" />
  <path
     d="M0 0 C5.94 0 11.88 0 18 0 C17.67 1.32 17.34 2.64 17 4 C15.68 4 14.36 4 13 4 C15.64 13.24 18.28 22.48 21 32 C23.97 21.77 26.94 11.54 30 1 C31.65 0.67 33.3 0.34 35 0 C37.65152394 6.72263302 39.69809411 13.55576901 41.6875 20.5 C42.00783203 21.60859375 42.32816406 22.7171875 42.65820312 23.859375 C43.44162432 26.57211706 44.2221479 29.28565685 45 32 C46.72816155 26.98510129 48.20018204 21.91947832 49.625 16.8125 C49.85445312 16.00619141 50.08390625 15.19988281 50.3203125 14.36914062 C50.536875 13.59376953 50.7534375 12.81839844 50.9765625 12.01953125 C51.17330566 11.31932861 51.37004883 10.61912598 51.57275391 9.89770508 C52.10982031 7.83641046 52.10982031 7.83641046 52 5 C50.68 4.67 49.36 4.34 48 4 C48 2.68 48 1.36 48 0 C52.95 0 57.9 0 63 0 C62.67 1.32 62.34 2.64 62 4 C61.36586182 4.27207275 60.73172363 4.54414551 60.07836914 4.82446289 C57.68250957 5.89744275 57.68250957 5.89744275 56.76733398 8.98999023 C56.43032471 10.25012939 56.09331543 11.51026855 55.74609375 12.80859375 C55.55910416 13.48994888 55.37211456 14.17130402 55.17945862 14.87330627 C54.58371871 17.05761327 54.0103467 19.24709039 53.4375 21.4375 C53.0489947 22.87735021 52.6590352 24.31680887 52.26757812 25.75585938 C51.33353268 29.20130787 50.4163542 32.65096502 49.50408936 36.10223389 C48.36036911 40.40804495 47.17834351 44.70356057 46 49 C44.35 49 42.7 49 41 49 C38.7408436 44.05688857 37.1678301 39.28586263 35.9375 34 C35.61445649 32.64555249 35.29024607 31.29138275 34.96484375 29.9375 C34.80870605 29.28136719 34.65256836 28.62523437 34.49169922 27.94921875 C34.00879022 26.03484663 33.44442092 24.141617 32.87890625 22.25 C32 19 32 19 32 15 C31.34 15 30.68 15 30 15 C29.86078125 16.33611328 29.86078125 16.33611328 29.71875 17.69921875 C28.88412034 23.53427928 27.11439478 29.15563474 25.5 34.8125 C25.01853516 36.52856445 25.01853516 36.52856445 24.52734375 38.27929688 C22.14318665 46.7136267 22.14318665 46.7136267 21 49 C19.35 49 17.7 49 16 49 C15.6146106 47.57905029 15.6146106 47.57905029 15.22143555 46.12939453 C14.25548704 42.5692976 13.28778107 39.00968026 12.31958008 35.45019531 C11.90309495 33.9180963 11.4870681 32.38587263 11.0715332 30.85351562 C9.89858494 26.52871001 8.71265017 22.20781862 7.51507568 17.88977051 C7.05112913 16.18758858 6.61304916 14.47840721 6.17822266 12.76855469 C5.94022949 11.87297852 5.70223633 10.97740234 5.45703125 10.0546875 C5.26729736 9.30429199 5.07756348 8.55389648 4.88208008 7.78076172 C3.71861431 5.43193268 2.39044759 4.93490072 0 4 C0 2.68 0 1.36 0 0 Z "
     fill="#0F0F0F"
     transform="translate(61,474)"
     id="path7" />
  <path
     d="m 0,0 c 4.0147551,3.2459722 7.5885952,6.5600209 11,10.4375 4.614577,5.240955 9.521784,10.145849 14.507812,15.032959 3.049158,3.007571 5.983195,6.050958 8.767334,9.306885 3.491854,4.012559 7.176361,7.771485 10.970948,11.496093 1.344526,1.331905 2.688924,2.66394 4.033203,3.996094 2.0941,2.069108 4.18979,4.13656 6.287842,6.20166 2.043126,2.013112 4.080141,4.032247 6.116455,6.052246 l 1.921982,1.881196 C 65.108635,65.898906 66.559967,67.444897 68,69 L 69.160288,70.252696 70,71 c 1.403564,1.427002 1.403564,1.427002 3.050781,3.425781 C 77.178117,79.280024 81.647252,83.722112 86.1875,88.1875 90.712203,92.63869 95.083038,96.994454 99,102 l 2,1 1,-3 v 5 c -3.991068,0.73399 -7.988933,1.38524 -12,2 l -3.8125,0.625 C 81.026374,106.61301 79.045254,103.07879 76,99 74.835234,97.499589 73.670453,95.999189 72.505371,94.499023 71.218655,92.83445 69.942352,91.162312 68.667969,89.488281 65.998363,85.987433 63.286403,82.521194 60.5625,79.0625 L 59.170166,77.293457 C 57.780579,75.528602 56.39033,73.76427 55,72 44.933139,59.218853 34.909588,46.403618 25,33.5 20.92729,28.200083 16.844374,22.908202 12.75,17.625 L 10.996094,15.353516 C 7.8134826,11.252703 4.5569186,7.2749538 1.0751953,3.4233398 0,2 0,2 0,0 Z"
     fill="#f6f6f5"
     transform="translate(359,344)"
     id="path8"
     sodipodi:nodetypes="ccccccccccccccccccccccccccccccc" />
  <path
     d="M0 0 C1.23395508 0.03609375 2.46791016 0.0721875 3.73925781 0.109375 C5.26124576 0.18395094 6.78304338 0.26246016 8.3046875 0.34375 C9.22600464 0.39015625 10.14732178 0.4365625 11.09655762 0.484375 C18.79456125 0.88116333 26.48687522 1.35799112 34.1796875 1.84375 C36.52471541 1.98867292 38.86976736 2.13320735 41.21484375 2.27734375 C46.9117433 2.62833342 52.60832721 2.98411986 58.3046875 3.34375 C58.3046875 4.00375 58.3046875 4.66375 58.3046875 5.34375 C54.07579528 6.0537274 49.84654057 6.7615233 45.6171875 7.46875 C44.95022858 7.58045532 44.28326965 7.69216064 43.59609985 7.80725098 C35.66781551 9.13430738 27.73710858 10.44157643 19.796875 11.6953125 C-0.47487157 14.9060865 -20.66293478 18.47344052 -40.83325195 22.27246094 C-51.42865838 24.25882268 -61.98507253 26.09369232 -72.6953125 27.34375 C-70.1089727 24.67838053 -67.36117136 22.60984788 -64.3203125 20.46875 C-61.20043865 18.25081077 -58.37107101 16.19373619 -55.8828125 13.28125 C-53.6953125 11.34375 -53.6953125 11.34375 -50.6328125 11.46875 C-49.6634375 11.7575 -48.6940625 12.04625 -47.6953125 12.34375 C-35.44866092 15.92750699 -24.78175122 11.60972925 -13.96484375 6.1953125 C-10.70636416 4.50212703 -10.70636416 4.50212703 -8.34692383 2.24951172 C-5.19373584 -0.01674235 -3.83688842 -0.12513593 0 0 Z "
     fill="#090909"
     transform="translate(840.6953125,497.65625)"
     id="path9" />
  <path
     d="M0 0 C13.99127325 1.85386062 27.94194049 3.87679846 41.875 6.125 C43.74499919 6.4246264 45.61503628 6.72401637 47.48510742 7.02319336 C57.11617609 8.56553103 66.74529419 10.11999747 76.3747406 11.67242432 C81.15137083 12.44239336 85.92807319 13.21191409 90.70480347 13.98126221 C93.11038223 14.3688262 95.51592016 14.75664369 97.92141724 15.14471436 C113.83250614 17.71089258 129.75271141 20.20109687 145.68844604 22.60900879 C157.0384849 24.32892347 168.32970162 26.24547937 179.59887695 28.44042969 C185.39548822 29.56421898 191.12134273 30.43404231 197 31 C197 31.66 197 32.32 197 33 C187.05281345 36.31572885 178.01611869 34.535144 167.85546875 32.83984375 C166.46007709 32.61181496 165.06459238 32.38435496 163.66902161 32.15742493 C159.94494077 31.55030996 156.22216001 30.93554848 152.49957275 30.3193512 C148.6196281 29.67855756 144.73847707 29.04515911 140.85742188 28.41113281 C134.70041414 27.40447761 128.54402085 26.39415891 122.38818359 25.38037109 C112.76765331 23.79606541 103.14485555 22.22582076 93.52124023 20.66036987 C91.00167572 20.25027275 88.48226999 19.83921142 85.96289062 19.42797852 C72.44860529 17.22408273 58.92565926 15.07596527 45.40148926 12.9336853 C29.25302239 10.3745042 13.12077999 7.72827927 -3 5 C-1.68 4.01 -0.36 3.02 1 2 C0.67 1.34 0.34 0.68 0 0 Z "
     fill="#111111"
     transform="translate(176,498)"
     id="path10" />
  <path
     d="M0 0 C4.95637498 2.96609575 8.13039635 7.27320178 11.00390625 12.19921875 C13.32329375 21.49212891 12.42286707 29.72954385 8.00390625 38.19921875 C4.76162826 43.5258183 -0.11274572 46.05705757 -5.98828125 47.78515625 C-13.04076183 49.23955886 -18.44846825 48.21833646 -24.76171875 44.7578125 C-29.60044894 41.38254442 -32.17608152 36.73047332 -33.99609375 31.19921875 C-34.85108346 22.50019557 -34.82448465 13.7826327 -29.99609375 6.19921875 C-21.92205304 -3.19384841 -10.95296853 -5.42886266 0 0 Z M-20.99609375 6.19921875 C-25.85080476 13.58682246 -26.04535626 21.46055993 -24.48828125 29.9765625 C-23.04165812 35.50532332 -21.03446501 39.16084749 -16.99609375 43.19921875 C-13.88655996 44.75398565 -11.43342614 44.48566312 -7.99609375 44.19921875 C-3.0829057 41.74262473 -1.00507604 39.27454243 1.00390625 34.19921875 C3.53158781 26.34727177 3.33009523 15.81334434 -0.24609375 8.38671875 C-2.03803683 5.17338873 -3.84672998 3.13043238 -6.99609375 1.19921875 C-13.15232785 0.40486596 -16.97640938 1.13298933 -20.99609375 6.19921875 Z "
     fill="#0B0C0B"
     transform="translate(950.99609375,475.80078125)"
     id="path11" />
  <path
     d="M0 0 C4.90272184 -0.87635544 9.12090355 -1.11283197 14 0 C18.44248454 3.93852729 21.202879 8.66742601 24.1875 13.75 C25.00905701 15.06799204 25.83520002 16.38313707 26.66601562 17.6953125 C28.1858393 20.10565442 29.67523516 22.52992112 31.13745117 24.97558594 C33.08178866 28.23598171 33.08178866 28.23598171 36 32 C36 23.09 36 14.18 36 5 C34.68 4.34 33.36 3.68 32 3 C32 2.01 32 1.02 32 0 C36.95 0 41.9 0 47 0 C47 0.99 47 1.98 47 3 C45.68 3.33 44.36 3.66 43 4 C42.67 18.52 42.34 33.04 42 48 C40.02 48 38.04 48 36 48 C34.14467032 45.90322331 32.89059656 44.13254539 31.5 41.75 C30.65036607 40.38470298 29.79729897 39.02153842 28.94140625 37.66015625 C28.48008301 36.91781738 28.01875977 36.17547852 27.54345703 35.41064453 C24.65633279 30.90139671 21.53184627 26.55589598 18.4375 22.1875 C17.22651155 20.47361147 16.016779 18.75883452 14.80859375 17.04296875 C14.29095459 16.31102295 13.77331543 15.57907715 13.23999023 14.82495117 C12 13 12 13 11 11 C11 21.56 11 32.12 11 43 C12.65 43.66 14.3 44.32 16 45 C16 45.99 16 46.98 16 48 C10.72 48 5.44 48 0 48 C0 47.01 0 46.02 0 45 C2.475 44.505 2.475 44.505 5 44 C5 31.13 5 18.26 5 5 C2.525 4.01 2.525 4.01 0 3 C0 2.01 0 1.02 0 0 Z "
     fill="#0C0C0C"
     transform="translate(489,102)"
     id="path12" />
  <path
     d="M0 0 C0 4.29 0 8.58 0 13 C-1.65 13 -3.3 13 -5 13 C-5.66 10.03 -6.32 7.06 -7 4 C-8.77049689 3.94589313 -10.54146849 3.90715881 -12.3125 3.875 C-13.29863281 3.85179687 -14.28476562 3.82859375 -15.30078125 3.8046875 C-18.22406527 3.79317361 -18.22406527 3.79317361 -21 6 C-21.75128096 10.09801084 -21.75128096 10.09801084 -21 14 C-18.70048723 16.33145045 -15.92468059 17.58114087 -13 19 C-0.07702826 25.64813127 -0.07702826 25.64813127 2 30 C2.63958641 34.59893083 2.59480572 38.55994404 0.8125 42.875 C-3.51588241 47.94965524 -7.80032314 50.62771138 -14.51171875 51.22265625 C-20.99834995 51.43073508 -25.9736483 50.37102362 -32 48 C-32 43.38 -32 38.76 -32 34 C-30.35 34 -28.7 34 -27 34 C-26.34 37.3 -25.68 40.6 -25 44 C-20.08341117 45.22914721 -15.4128606 45.86615509 -10.5625 44.125 C-8.84106726 43.06925899 -8.84106726 43.06925899 -8 41 C-7.51604468 36.67162761 -7.51604468 36.67162761 -9.5859375 33.015625 C-12.96905818 30.19088346 -16.77724539 28.5688228 -20.77929688 26.8203125 C-25.58460028 24.58094781 -28.08933997 22.32533838 -31 18 C-32.03240763 13.67603392 -31.98645398 9.15542368 -30.11328125 5.0625 C-22.66149686 -4.84020351 -10.41552205 -2.68787666 0 0 Z "
     fill="#0D0D0D"
     transform="translate(527,856)"
     id="path13" />
  <path
     d="M0 0 C2.1875 0.8125 2.1875 0.8125 3.1875 1.8125 C4.51012031 16.89037153 -1.67607142 33.00141746 -10.8125 44.8125 C-14.03396713 47.95539476 -16.33241179 49.30048992 -20.8125 49.8125 C-24.00678409 45.55345454 -24.41399371 41.95956759 -23.8125 36.8125 C-21.92171182 24.37407974 -15.86561271 9.51501666 -5.875 1.4375 C-2.8125 -0.1875 -2.8125 -0.1875 0 0 Z "
     fill="#F7F7F7"
     transform="translate(836.8125,420.1875)"
     id="path14" />
  <path
     d="M0 0 C2.86564017 5.73128035 0.30808585 12.02995066 -1.55078125 17.70703125 C-1.90527344 18.75246094 -2.25976562 19.79789062 -2.625 20.875 C-2.95628906 21.91269531 -3.28757812 22.95039063 -3.62890625 24.01953125 C-6.7108746 33.24217617 -10.80440989 41.42002376 -19 47 C-21.875 47.8125 -21.875 47.8125 -24 48 C-27.2876805 43.06847925 -26.50305956 37.76289748 -26 32 C-23.40225569 19.78904619 -17.45267256 7.2087397 -7 0 C-4.30234372 -1.34882814 -2.84835666 -0.80338265 0 0 Z "
     fill="#F8F8F8"
     transform="translate(650,479)"
     id="path15" />
  <path
     d="M0 0 C2.68761974 1.64856157 3.55275731 3.22095119 4.80859375 6.109375 C5.56559153 12.59792741 4.25864638 17.5468286 0.80859375 23.109375 C-3.4914581 27.96313216 -8.31237775 30.14620875 -14.69140625 30.546875 C-18.47393601 30.48383284 -19.06859094 30.20916244 -22.19140625 27.671875 C-22.85140625 26.82625 -23.51140625 25.980625 -24.19140625 25.109375 C-24.52140625 24.779375 -24.85140625 24.449375 -25.19140625 24.109375 C-25.98618007 17.91215128 -26.01198653 12.50790736 -22.62890625 7.109375 C-16.989513 -0.13376179 -9.0470346 -3.67686968 0 0 Z "
     fill="#050505"
     transform="translate(450.19140625,488.890625)"
     id="path16" />
  <path
     d="M0 0 C7.09124647 10.63686971 3.95701006 31.36609098 1.6875 43.4375 C1.17066748 45.97249825 0.59465949 48.48095632 0 51 C-0.2165625 52.04542969 -0.433125 53.09085938 -0.65625 54.16796875 C-2.80145463 63.83415864 -6.0026169 75.78352075 -13 83 C-13.99 83 -14.98 83 -16 83 C-14.91031103 55.59432242 -8.96263506 25.94031379 0 0 Z "
     fill="#F2F2F2"
     transform="translate(223,641)"
     id="path17" />
  <path
     d="M0 0 C4.04906285 1.34968762 5.70635258 4.0903997 8.1875 7.375 C8.65091797 7.96539063 9.11433594 8.55578125 9.59179688 9.1640625 C13 13.62132962 13 13.62132962 13 17 C11.98421875 17.49628906 10.9684375 17.99257813 9.921875 18.50390625 C1.40676884 22.69506474 -6.87874884 27.0780296 -15 32 C-13.48593614 26.83101856 -11.1943662 22.3838146 -8.625 17.6875 C-5.49450819 11.88105353 -2.54736071 6.09151475 0 0 Z "
     fill="#F2F2F2"
     transform="translate(480,547)"
     id="path18" />
  <path
     d="M0 0 C0.68744251 6.87442515 -1.89321479 11.3455306 -6.05859375 16.59375 C-9.98488581 21.09607479 -13.70773706 25.16024915 -19 28 C-19.66 28 -20.32 28 -21 28 C-19.19239859 16.97363139 -14.05808727 7.76733154 -6 0 C-3.50907189 -1.24546405 -2.58919267 -0.7767578 0 0 Z "
     fill="#F3F3F3"
     transform="translate(379,564)"
     id="path19" />
  <path
     d="M0 0 C5.33333333 2.66666667 10.66666667 5.33333333 16 8 C13.79344925 8.50780894 11.58466395 9.00591365 9.375 9.5 C8.14523437 9.7784375 6.91546875 10.056875 5.6484375 10.34375 C2.32847772 10.94091621 -0.63908451 11.12409534 -4 11 C-2.68 7.37 -1.36 3.74 0 0 Z "
     fill="#101010"
     transform="translate(731,520)"
     id="path23" />
  <path
     d="M0 0 C0.33 0.66 0.66 1.32 1 2 C-0.72391843 5.5385694 -2.48430678 8.13875065 -6 10 C-8.75 9.6875 -8.75 9.6875 -11 9 C-9.55613418 5.28720216 -7.87763608 4.0513557 -4.375 2.25 C-3.55773437 1.82203125 -2.74046875 1.3940625 -1.8984375 0.953125 C-0.95871094 0.48132813 -0.95871094 0.48132813 0 0 Z "
     fill="#E3E4E3"
     transform="translate(494,574)"
     id="path24" />
  <path
     d="M0 0 C3.3 0 6.6 0 10 0 C10 0.66 10 1.32 10 2 C5.545 2.495 5.545 2.495 1 3 C0.67 2.01 0.34 1.02 0 0 Z "
     fill="#484848"
     transform="translate(889,501)"
     id="path31" />
  <path
     d="M0 0 C1.53445094 3.06890187 0.54984289 5.70094266 0 9 C-0.33 8.34 -0.66 7.68 -1 7 C-1.99 7.33 -2.98 7.66 -4 8 C-2.87548273 5.0280615 -1.77706209 2.66559313 0 0 Z "
     fill="#D6D7D6"
     transform="translate(462,582)"
     id="path32" />
</svg>
