<?xml version="1.0" encoding="UTF-8" standalone="no"?>
<svg
   version="1.1"
   width="1024"
   height="1024"
   id="svg34"
   sodipodi:docname="logo.svg"
   inkscape:version="1.4.3 (0d15f750, 2025-12-25)"
   xmlns:inkscape="http://www.inkscape.org/namespaces/inkscape"
   xmlns:sodipodi="http://sodipodi.sourceforge.net/DTD/sodipodi-0.dtd"
   xmlns="http://www.w3.org/2000/svg"
   xmlns:svg="http://www.w3.org/2000/svg">
  <defs
     id="defs34" />
  <sodipodi:namedview
     id="namedview34"
     pagecolor="#ffffff"
     bordercolor="#000000"
     borderopacity="0.25"
     inkscape:showpageshadow="2"
     inkscape:pageopacity="0.0"
     inkscape:pagecheckerboard="0"
     inkscape:deskcolor="#d1d1d1"
     inkscape:zoom="0.41725408"
     inkscape:cx="311.56076"
     inkscape:cy="414.61548"
     inkscape:window-width="1512"
     inkscape:window-height="949"
     inkscape:window-x="0"
     inkscape:window-y="33"
     inkscape:window-maximized="0"
     inkscape:current-layer="layer2" />
  <g
     inkscape:groupmode="layer"
     id="layer1"
     inkscape:label="navigation" />
  <g
     inkscape:groupmode="layer"
     id="layer3"
     inkscape:label="text" />
  <g
     inkscape:groupmode="layer"
     id="layer2"
     inkscape:label="original"
     style="display:inline">
    <path
       id="path2"
       style="display:inline;fill:#000000;fill-opacity:1"
       inkscape:label="freistand"
       d="M 2.5625 -0.078125 L 0 0 C -4.9849019 0.09118723 -8.9512868 1.0027064 -13.4375 3.1875 C -20.868391 7.5049569 -20.868391 7.5049569 -26.757812 28.734375 C -27.359647 30.929523 -27.962517 33.123098 -28.591797 35.310547 C -32.583198 49.0314 -32.584906 49.030912 -39.4375 77.873047 L -40 80.25 C -43 79.25 -43 79.250001 -46.179688 79.082031 C -48.04582 79.072231 -48.04582 79.07223 -49.875 79.0625 C -54.465813 79.00889 -57.882863 79.164434 -62 81.25 C -79.04914 91.789468 -90.613032 108.53729 -95.980469 127.76172 C -97.241351 132.67861 -98.481905 137.41764 -100.77734 141.96094 C -105.71411 151.10539 -110.70856 159.88953 -121 163.25 C -120.9428 162.32285 -120.9428 162.32285 -120.88672 161.41406 C -120.81902 160.55078 -120.7532 159.71289 -120.6875 158.875 C -120.36297 154.33164 -119.18431 150.25851 -117.84375 145.93164 C -115.02741 136.99163 -111.84978 127.98443 -110.47266 118.69141 C -110.26779 112.78295 -111.31644 108.90292 -115 104.25 C -119.70834 100.85561 -124.38299 100.66583 -130 101.25 C -139.17882 105.83941 -145.48551 112.40696 -151.64453 120.45703 C -152.10539 121.06664 -152.5527 121.65832 -153 122.25 C -153.1875 119.5 -153.1875 119.5 -154 116.25 C -156 113.875 -156 113.875 -159 112.25 C -163.64179 111.39814 -167.66862 111.75411 -171.875 113.9375 C -176.51321 117.36978 -178.13218 121.07934 -179.73633 126.56641 C -179.93215 127.26625 -180.12244 127.94574 -180.3125 128.625 C -181.51583 132.78952 -182.66933 136.96342 -183.74805 141.16211 C -184.13567 142.6961 -184.13567 142.69561 -184.51562 144.19922 C -185.03314 146.2365 -185.54877 148.27426 -186.0625 150.3125 C -187.52413 156.35001 -189.03012 161.95386 -191.98047 167.44727 C -192.3272 168.06028 -192.66347 168.65502 -193 169.25 C -197.01458 176.4695 -201.25149 183.04362 -207.04297 188.95703 C -209.50345 190.58262 -211.10874 190.50467 -214 190.25 C -214.36313 183.64387 -213.44179 178.12971 -211.70703 171.75391 L -210.75 168.375 C -208.99068 161.88891 -207.14977 155.5091 -204.78516 149.21484 C -204.44125 148.33953 -204.10723 147.49019 -203.77344 146.64062 C -202.44759 142.54426 -202.02507 138.19987 -204 134.25 C -207.88364 131.39438 -211.18894 130.4159 -216 130.25 C -220.33121 131.51949 -223.06532 133.02324 -225.9375 136.4375 C -226.63875 137.39375 -227.31937 138.32187 -228 139.25 L -231.5 137.75 C -237.67529 135.42467 -243.03202 135.58116 -249.16406 138.16016 C -269.74068 147.79524 -279.59734 167.81979 -287.125 188.125 C -290.21392 196.81407 -294.13542 203.98821 -299.70117 211.33008 L -300.9375 212.9375 C -301.75204 214.03005 -302.57366 215.11736 -303.40234 216.19922 C -306.67722 220.23199 -309.9651 224.01963 -315.3125 224.625 C -317.91365 224.5372 -317.91365 224.5372 -319 223.25 C -319.56719 215.66487 -318.9463 208.51673 -317.22461 201.12891 C -316.95699 200.06483 -316.69725 199.03278 -316.4375 198 C -315.8757 195.74039 -315.31183 193.48129 -314.74609 191.22266 C -313.85117 187.72424 -312.99673 184.23722 -312.25391 180.70312 C -310.76848 173.4353 -309.49326 165.866 -306 159.25 C -302.58168 156.48237 -300.2096 155.74915 -295.91797 154.92578 C -292.11156 154.26924 -289.03189 153.24506 -285.50391 151.74219 L -283.375 150.8125 C -277.94812 148.67544 -274.75258 146.59042 -272 141.25 C -271.22746 137.77662 -271.38096 134.48808 -273 131.25 C -277.1558 129.1721 -281.62344 129.86925 -285.9375 131.0625 C -287.7357 131.75976 -289.54384 132.43367 -291.37109 133.05078 C -292.99577 133.58558 -294.61953 134.12318 -296.24219 134.66406 C -296.83984 134.86328 -297.41992 135.05664 -298 135.25 C -296.35501 130.0957 -294.6203 124.71347 -295 119.25 C -296.8125 116.6875 -296.8125 116.6875 -300 115.25 C -304.05631 114.81767 -308.28346 114.39173 -312 116.25 C -319.50696 121.96182 -322.4526 128.06774 -325.1875 136.9375 C -325.90252 139.47746 -326.67984 141.89074 -327.69141 144.32812 C -330.99873 147.62978 -330.99873 147.62976 -335.70117 148.73438 C -341.50497 150.03472 -348.18229 152.77879 -352.68359 156.72656 C -355.21377 160.19281 -355.922 164.04013 -356 168.25 C -355.0625 170.6875 -355.0625 170.6875 -353 172.25 C -347.32447 172.93498 -343.0168 171.85072 -337.6875 169.90625 C -337.11375 169.68312 -336.55687 169.46656 -336 169.25 C -336.9332 172.36493 -337.81794 175.46667 -338.55273 178.63477 C -340.16884 185.96574 -341.64055 193.36111 -344.12109 200.45703 C -348.64082 210.13769 -356.91241 220.98217 -367 225.25 C -369.39152 220.35826 -372.29257 216.69021 -376 212.6875 C -379.79393 208.70272 -384.44946 204.54226 -385.39062 198.91406 C -385.34283 198.22078 -385.29642 197.54789 -385.25 196.875 L -385 193.25 L -381 191.25 C -381 193.92857 -381 193.92857 -378 197.25 C -376.1875 198.25 -376.1875 198.25 -374 198.25 C -368.55245 195.58418 -365.44561 191.68703 -363 186.25 C -362.47216 182.32892 -362.63524 179.47468 -365 176.25 C -367.99528 173.41237 -369.73371 172.39224 -373.85156 171.92969 C -385.1303 171.73378 -394.51596 175.69737 -403.12109 183.06641 C -409.66441 190.04692 -414.18397 197.99795 -414.30469 207.65234 C -414.33589 217.39786 -416.47945 223.79234 -421.46484 232.14453 C -422.72159 234.17695 -423.97371 236.20615 -425.17578 238.27148 C -427.00886 241.47211 -428.86354 244.65406 -430.80078 247.79297 C -436.75592 257.26167 -441.64939 265.57927 -453 268.25 C -451.49055 253.38083 -448.13514 238.97747 -443.1875 224.875 C -441.56362 220.44806 -440.65232 216.98117 -441 212.25 C -442 210.25 -442 210.25 -443.9375 208.625 C -449.34691 206.19629 -454.70184 206.55621 -460.3125 208.25 C -468.10519 214.04921 -468.10519 214.04921 -473.64062 235.30078 C -476.35938 245.92106 -478.90159 255.84127 -484.82422 265.16797 C -485.56398 266.21586 -486.28199 267.23293 -487 268.25 C -491.73917 274.97118 -496.40867 281.20025 -503 286.25 C -510.20728 290.92524 -516.28376 294.536 -525 293.25 C -527.87303 289.21911 -527.87303 289.21911 -529 284.25 L -527 284.25 C -512.09239 277.94293 -499.17505 266.85815 -491.21875 252.75781 C -487.78991 245.70235 -485.21985 237.83183 -487.69141 230.08203 C -489.85635 225.10899 -491.82309 223.301 -497 221.25 C -504.53398 220.25916 -511.80018 220.68474 -518.71484 223.94531 C -537.43328 234.63242 -548.82322 252.77921 -554.625 273 C -556.77147 280.58117 -558.9207 287.10411 -563.24609 293.74219 C -563.84242 294.59484 -564.42121 295.42242 -565 296.25 C -566.72315 298.91202 -568.45794 301.542 -570.30859 304.11719 C -573.93729 308.69287 -577.12162 311.29006 -583 312.25 C -583.93694 302.04773 -580.91415 293.92866 -576.89648 284.71875 C -576.48957 283.79554 -576.09416 282.89997 -575.69922 282.00391 C -574.88546 280.14728 -574.06905 278.2918 -573.25 276.4375 C -570.25422 269.92566 -568.31087 264.46366 -568 257.25 C -569.52663 254.19674 -571.36984 252.42274 -574 250.25 C -577.55945 249.80507 -580.02547 249.88475 -583.38672 251.14453 C -584.70643 251.70279 -584.70643 251.70279 -586 252.25 C -588.66276 253.3151 -591.32552 254.38021 -593.98828 255.44531 C -594.67227 255.71891 -595.33613 255.98445 -596 256.25 C -594.57232 251.96696 -593.9036 247.77246 -594 243.25 C -595.5 240.6875 -595.5 240.6875 -598 239.25 C -601.33133 238.41717 -603.79763 237.89636 -607.125 238.875 C -612.32329 242.68708 -616.33622 247.42473 -618.91406 253.35156 C -620.95521 258.90273 -622.49873 264.75297 -620.0625 270.4375 C -618.92598 272.25054 -618.92598 272.25054 -618.21875 274.40625 C -617.96278 277.73388 -618.88238 279.73734 -620.40039 282.66602 C -620.75301 283.31082 -621.09525 283.93666 -621.4375 284.5625 C -622.61113 286.80021 -623.79478 289.0289 -625 291.25 C -625.22432 288.51331 -625.4606 285.93116 -626 283.25 C -627.1875 281.25 -627.1875 281.25 -629 280.25 C -632.19056 279.89549 -634.55886 280.11346 -637.625 281.0625 C -645.23839 283.41258 -645.23839 283.41258 -653 285.25 C -650.33013 271.15194 -645.88438 257.05141 -641.18359 243.50391 C -640.78117 242.39758 -640.39059 241.32379 -640 240.25 C -638.52624 236.17124 -637.22482 231.98239 -635 228.25 C -632.94064 227.35666 -632.94064 227.35666 -631 227.25 C -632.6325 233.50277 -634.578 239.77937 -635 246.25 L -633 248.25 C -630.1875 248.5 -630.1875 248.5 -627 248.25 C -622.9937 247.27285 -620.69706 245.41214 -618.20312 242.12109 C -612.88315 233.84746 -611.52897 224.98479 -613 215.25 C -615.7015 210.44358 -617.68401 207.95871 -623 206.25 C -629.44851 205.51432 -635.38017 205.49878 -641.07031 208.86328 C -663.08384 224.68272 -671.48833 251.86983 -677.81836 277.16406 C -677.9862 277.85211 -678.14959 278.51969 -678.3125 279.1875 C -678.89209 281.53752 -679.45717 283.89122 -680 286.25 C -680.40217 288.74413 -680.82584 291.04745 -681.64062 293.4375 C -684.89325 296.58239 -684.89325 296.58239 -689.1875 298.375 C -694.29837 300.46737 -698.6243 302.43183 -702.66406 306.25 C -704.78759 309.42909 -704.74242 312.28036 -704.57422 316.01562 C -703.89695 318.65102 -703.16167 319.62495 -701 321.25 C -697.28464 322.14442 -694.89845 322.57568 -691.27344 321.26172 C -690.50047 320.91773 -689.75023 320.58387 -689 320.25 C -692.57113 331.61459 -695.09524 343.19516 -697.61719 354.82812 C -698.24284 357.73779 -698.86687 360.6477 -699.51367 363.55273 C -703.47605 381.24482 -710.95639 409.7986 -701.66016 426.68359 C -699.13633 429.84918 -697.34864 431.94508 -693.30469 432.85938 C -687.86774 433.00752 -683.56428 432.36201 -679 429.25 C -659.6851 415.137 -651.58279 388.80599 -647.375 366.26758 C -647.24767 365.58143 -647.12359 364.91596 -647 364.25 C -645.44423 356.52451 -644.8731 349.07444 -644.76953 341.20898 C -644.75913 339.5882 -644.7605 339.58869 -644.75 338 C -644.6685 329.22842 -645.41662 321.25441 -648.07031 312.86719 L -649.125 310.125 C -649.48891 309.16609 -649.84211 308.23539 -650.19531 307.30469 L -651 305.25 C -649 305.25 -649.00048 305.25 -646.9375 304.51562 C -646.08501 304.17031 -645.2571 303.83516 -644.42969 303.5 C -643.50664 303.12812 -642.61074 302.76719 -641.71484 302.40625 C -640.7493 302.01312 -639.81215 301.63156 -638.875 301.25 C -636.18397 300.16331 -633.49352 299.07649 -630.80469 297.98438 C -630.19126 297.73469 -629.59539 297.49234 -629 297.25 C -630.72739 300.55112 -632.00603 303.27736 -632.8125 306.9375 C -633 310.25 -633 310.25 -631 313.25 L -627 313.25 C -617.09333 306.29988 -610.6618 290.59751 -606.67969 279.60547 C -606.44859 278.80461 -606.2243 278.0273 -606 277.25 L -598 278.25 C -604.1393 290.69618 -611.04726 303.22541 -611.48047 317.36328 C -611.48747 318.17468 -611.494 318.96246 -611.5 319.75 C -611.5607 326.73617 -610.70388 332.47496 -605.625 337.6875 C -600.0131 340.10642 -595.01081 340.11064 -589 339.25 C -575.54577 335.24737 -575.54577 335.24737 -559.65625 312.625 C -558.14849 310.46293 -556.59377 308.34911 -555 306.25 C -554.05776 310.13673 -552.17431 312.29157 -549.3125 314.9375 C -543.14034 320.04396 -536.79011 320.91772 -529 320.25 C -512.22437 316.65522 -499.2039 306.15042 -488.75 293 C -486.01439 289.48747 -483.24604 286.29316 -480 283.25 C -478.25323 288.67419 -476.97833 293.06387 -472 296.25 C -465.35865 297.2493 -458.80719 297.15856 -452.95312 293.62891 L -451 292.25 C -439.77196 284.45275 -432.35109 274.29013 -425.43359 262.70703 C -424.94617 261.87164 -424.47309 261.06082 -424 260.25 C -424.34198 265.94975 -424.47254 270.43325 -421 275.25 C -417.46266 278.17215 -415.39779 279.12778 -410.82812 279.52734 C -398.45164 279.65335 -386.5663 276.62349 -377 268.375 C -368.42206 259.98803 -362.8912 251.26163 -362.07812 239.12109 C -362.05162 238.48492 -362.0258 237.86746 -362 237.25 C -360 237.25 -360 237.25 -358.44922 236.11328 C -357.85023 235.58602 -357.26887 235.07426 -356.6875 234.5625 C -354.46213 232.62717 -352.36564 230.62108 -350.26953 228.54297 C -349.49789 227.76336 -348.74895 227.00668 -348 226.25 C -347.83761 228.04906 -347.67106 229.84783 -347.48438 231.64453 C -347.40467 232.40289 -347.3273 233.13895 -347.25 233.875 C -346.62815 241.03924 -344.88543 245.50884 -339.5 250.625 C -335.10998 252.66322 -331.68038 252.75118 -326.88672 252.5625 C -316.84136 251.47505 -307.89092 243.94686 -301.65625 236.35938 C -301.09312 235.64219 -300.54656 234.94609 -300 234.25 C -296.71438 230.1569 -293.48013 226.05368 -290.5625 221.6875 C -289.77344 220.45656 -289.77344 220.45656 -289 219.25 C -286.892 223.61525 -284.86592 227.4047 -281.375 230.8125 C -275.38246 233.36488 -268.98523 233.15823 -262.8125 231.125 C -253.19785 226.85617 -245.94686 219.07282 -241.77344 209.41016 C -241.38285 208.31928 -241.38285 208.31928 -241 207.25 L -239 207.25 C -239 210.18103 -239 210.18103 -236 215.25 C -232.32035 218.59514 -228.53483 218.83023 -223.74609 218.65234 C -210.62067 216.72927 -202.76 206.91122 -195.21484 196.90234 C -194.8018 196.34055 -194.4009 195.79527 -194 195.25 C -193.75 198.0625 -193.75 198.0625 -193 201.25 C -191.5 203.125 -191.5 203.125 -189 204.25 C -183.14166 204.83153 -178.35247 204.2851 -172.97266 201.91797 C -169.27207 198.59668 -169.27231 198.5957 -167.23828 190.87109 C -166.6961 188.62963 -166.13194 186.39522 -165.54883 184.16406 C -165.09796 182.44242 -165.0982 182.44145 -164.65625 180.75391 C -161.07291 166.65166 -157.11461 153.44042 -150.01562 140.62891 C -147.01028 135.42386 -145.13784 130.98391 -139 129.25 C -142.34251 140.07206 -145.63087 150.95838 -147.68359 162.11133 C -148.96776 170.78934 -149.27788 179.89866 -144 187.25 C -140.31315 190.59118 -140.31315 190.59118 -130.71875 190.55078 C -121.43095 189.52325 -114.06268 182.71693 -108.11328 175.99805 C -107.56468 175.36089 -107.03246 174.74343 -106.5 174.125 C -103.77774 170.97331 -101.40076 168.12375 -99.65625 164.32031 C -99.324844 163.2748 -99.324844 163.2748 -99 162.25 L -97 162.25 C -95.966155 167.07461 -94.1339 170.0954 -90.308594 173.10156 C -85.37664 175.55502 -80.30977 175.17209 -75 174.25 C -63.715221 170.11612 -57.381569 162.3654 -51.285156 152.41016 C -50.848203 151.6757 -50.424102 150.96285 -50 150.25 C -47.618456 153.51045 -45.257177 156.43126 -42.175781 159.05078 C -38.069833 161.31384 -33.53713 160.84442 -29 160.25 L -27 159.25 C -21.54581 156.56178 -16.953836 153.77063 -12.800781 149.29297 L -11 147.25 C -7.7731656 143.74468 -4.7190806 140.16508 -2 136.25 C 4.9847588 125.25606 15.795552 109.58393 13 96.25 C 10.6875 95.5625 10.6875 95.5625 8 95.25 C 5.4192372 97.140234 5.4197255 97.13974 2.4003906 103.08594 C -0.4197695 108.69335 -3.4345484 114.14531 -6.8398438 119.41992 C -7.2768799 120.08497 -7.7008179 120.7295 -8.125 121.375 C -11.216905 126.18337 -14.234682 130.00149 -19 133.25 C -21.321716 133.2162 -21.321716 133.2162 -23 132.25 C -23.01196 131.44117 -23.023556 130.65613 -23.035156 129.87109 C -23.048956 128.26338 -23.04896 128.26338 -23.0625 126.6875 C -20.009054 100.20678 -20.009054 100.20629 -11.953125 74.558594 L -11 71.25 C -7.7628048 59.97297 -4.4683742 48.717185 -0.84179688 37.558594 L -0.08203125 35.230469 C 1.1645242 31.405896 2.4125053 27.580822 3.6816406 23.763672 C 4.1594567 22.328357 4.6341595 20.893854 5.1074219 19.457031 L 5.7773438 17.421875 C 7.3546998 12.682584 8.4126885 8.213755 9 3.25 C 6.8220601 1.3342195 5.4726413 0.31362479 2.5625 -0.078125 z M -50.861328 97.355469 C -50.417969 97.356445 -49.890625 97.390625 -49.1875 97.4375 C -47 98.25 -47 98.25 -46 99.25 C -44.67738 114.32787 -50.863571 130.43892 -60 142.25 C -63.221467 145.3929 -65.519912 146.73799 -70 147.25 C -73.194284 142.99095 -73.601494 139.39707 -73 134.25 C -71.109212 121.81158 -65.053113 106.95252 -55.0625 98.875 C -52.765625 97.65625 -52.191406 97.352539 -50.861328 97.355469 z M -239.55664 155.44336 C -238.49989 155.51154 -237.42418 155.84831 -236 156.25 C -233.13436 161.98128 -235.69191 168.27995 -237.55078 173.95703 L -238.625 177.125 L -239.62891 180.26953 C -242.71087 189.49218 -246.80441 197.67002 -255 203.25 C -257.875 204.0625 -257.875 204.0625 -260 204.25 C -263.28768 199.31848 -262.50306 194.0129 -262 188.25 C -259.40226 176.03905 -253.45267 163.45874 -243 156.25 C -241.65117 155.57559 -240.61339 155.37518 -239.55664 155.44336 z M -442.36719 164.68164 C -448.68207 164.46648 -454.20796 167.81765 -458.4375 173.25 C -461.82058 178.64853 -461.79477 184.05278 -461 190.25 L -460 191.25 L -458 193.8125 C -454.87718 196.34979 -454.28253 196.62446 -450.5 196.6875 C -444.12097 196.28683 -439.30005 194.10376 -435 189.25 C -431.54995 183.68745 -430.243 178.73855 -431 172.25 C -432.25584 169.36158 -433.12097 167.78919 -435.80859 166.14062 C -438.07035 165.22141 -440.26223 164.75336 -442.36719 164.68164 z M -406 224.25 C -401.95094 225.59969 -400.29365 228.3404 -397.8125 231.625 L -396.4082 233.41406 C -393 237.87133 -393 237.87133 -393 241.25 L -396.07812 242.75391 C -404.59323 246.94507 -412.87875 251.32803 -421 256.25 C -419.48594 251.08102 -417.19437 246.63382 -414.625 241.9375 C -411.49451 236.13105 -408.54736 230.34151 -406 224.25 z M -510.36133 240.48242 C -509.38455 240.47415 -508.45642 240.81307 -507 241.25 C -506.31256 248.12443 -508.89321 252.59553 -513.05859 257.84375 C -516.98489 262.34608 -520.70774 266.41025 -526 269.25 L -528 269.25 C -526.1924 258.22363 -521.05809 249.01733 -513 241.25 C -511.91022 240.70511 -511.12104 240.48886 -510.36133 240.48242 z M -392 251.25 L -391 253.25 C -392.72392 256.78857 -394.48431 259.38875 -398 261.25 C -400.75 260.9375 -400.75 260.9375 -403 260.25 C -401.55613 256.5372 -399.87764 255.30136 -396.375 253.5 L -393.89844 252.20312 L -392 251.25 z M -663 318.25 C -655.90875 328.88687 -659.04299 349.61609 -661.3125 361.6875 C -661.82933 364.2225 -662.40534 366.73096 -663 369.25 L -663.65625 372.41797 C -665.80145 382.08416 -669.00262 394.03352 -676 401.25 L -679 401.25 C -677.91031 373.84432 -671.96264 344.19031 -663 318.25 z "
       transform="translate(886,322.75)" />
    <path
       id="path3"
       style="display:inline;fill:#000000;fill-opacity:1"
       d="M 0 0 L -0.48046875 2.2539062 L -1.1875 5.5625 C -1.9651089 9.2059445 -2.7446351 12.849524 -3.5527344 16.486328 C -6.069039 27.749786 -8.4277167 39.020615 -10.5 50.375 C -12.434028 60.990383 -14.48001 71.576118 -16.617188 82.152344 C -17.502544 86.527622 -18.382103 90.903256 -19.253906 95.28125 C -19.551437 96.776049 -19.84868 98.270881 -20.146484 99.765625 C -20.597875 102.03096 -21.048866 104.29712 -21.5 106.5625 C -23.01716 114.19736 -24.541279 121.83067 -26.138672 129.44922 C -29.390286 144.94159 -32.473351 160.46221 -35.5 176 C -38.15292 189.61919 -40.814968 203.23359 -43.667969 216.8125 C -45.269204 224.43038 -46.810908 232.05034 -48.216797 239.70703 L -48.8125 243 C -49.41669 246.3005 -50.021661 249.60098 -50.621094 252.90234 L -51 255 C -52.888421 253.60338 -54.757217 252.20189 -56.564453 250.70117 L -58.066406 249.39844 L -59.769531 247.92773 C -65.454609 243.00494 -71.187048 238.1533 -77.023438 233.41016 C -79.30117 231.56585 -81.577111 229.71943 -83.851562 227.87109 C -85.23435 226.74736 -86.617162 225.62367 -88 224.5 C -92.609677 220.75669 -97.21692 217.01062 -101.8125 213.25 C -103.54156 211.8332 -105.27072 210.41653 -107 209 C -111.68228 205.17953 -116.36627 201.36215 -121.00781 197.49219 C -124.81551 194.30775 -128.61028 191.11047 -132.48828 188.01172 C -136.72453 184.66294 -140.88823 181.2581 -144.97266 177.72656 C -150.26218 173.14657 -155.60024 168.66957 -161.125 164.375 C -164.02247 162.13392 -166.92187 159.90303 -169.73047 157.55078 L -171.44141 156.08984 C -172.52497 155.16586 -173.60707 154.24015 -174.6875 153.3125 C -177.77263 150.62814 -178.88147 149 -183 149 L -180.87109 151.98047 C -179.91381 153.32013 -178.95679 154.65999 -178 156 C -170.39978 166.67832 -162.63001 177.18388 -154.53906 187.49609 C -151.58218 191.2571 -148.63635 195.02585 -145.69727 198.80078 L -143.9375 201.0625 C -137.2398 209.66891 -130.61138 218.32718 -124 227 C -117.89502 235.01132 -111.79622 243.02565 -105.5625 250.9375 C -101.95949 255.50516 -98.372351 260.0839 -94.802734 264.67773 C -88.862525 272.3264 -82.903749 279.96032 -76.914062 287.57031 L -75 290 C -81.196613 289.75214 -87.038253 290.47503 -93.164062 291.40234 C -95.735078 291.80254 -98.306064 292.19767 -100.87891 292.58594 C -103.55043 292.98807 -106.22196 293.39278 -108.89258 293.80078 C -119.25611 295.38444 -129.61893 296.97226 -140 298.4375 C -149.58532 299.78844 -159.16266 301.19102 -168.74023 302.5957 C -179.24608 304.13665 -189.75099 305.68976 -200.26367 307.18359 C -210.23455 308.59618 -220.20223 310.0321 -230.16797 311.48047 L -232.875 311.875 C -242.17764 313.2272 -251.48099 314.57328 -260.75977 316.08203 L -262.875 316.42969 C -265.54225 316.86643 -268.20873 317.30724 -270.875 317.75 C -277.83485 318.94011 -284.7717 320.00979 -291.79688 320.7207 C -301.38831 321.67438 -310.87606 322.96073 -320.39258 324.48633 C -330.23216 326.06418 -340.07192 327.64772 -349.95508 328.92969 L -352.16016 329.21094 C -354.89786 329.56205 -357.63583 329.91055 -360.375 330.25 L -364.22656 330.70703 L -367.71094 331.14062 C -370.75146 331.50099 -370.75146 331.50098 -373 332 L -374 334 C -367.57017 335.19656 -361.13385 336.32281 -354.67383 337.34375 C -348.1272 338.37269 -341.58534 339.42081 -335.04688 340.49805 C -332.622 340.89756 -330.19715 341.30163 -327.77344 341.70898 C -322.15458 342.65413 -316.53475 343.58478 -310.91211 344.50391 C -303.81918 345.66339 -296.72215 346.80451 -289.62305 347.92969 C -289.61505 347.93069 -289.60616 347.93259 -289.59766 347.93359 C -276.07358 350.07606 -262.55133 352.22384 -249.03711 354.42773 C -246.51773 354.83896 -243.99808 355.25006 -241.47852 355.66016 C -231.8549 357.22561 -222.23186 358.79656 -212.61133 360.38086 C -206.45549 361.39465 -200.29959 362.40545 -194.14258 363.41211 C -190.26152 364.04614 -186.37994 364.67952 -182.5 365.32031 C -178.77741 365.93651 -175.05416 366.55109 -171.33008 367.1582 C -169.93451 367.38513 -168.53992 367.61181 -167.14453 367.83984 C -156.98388 369.53514 -147.94719 371.31573 -138 368 L -138 366 C -144.2536 365.05443 -150.50443 364.08816 -156.74609 363.06641 L -158.79297 362.73047 C -159.60492 362.59712 -160.41657 362.46345 -161.22852 362.33008 C -170.56304 360.59075 -179.91825 359.03292 -189.3125 357.60938 C -205.24824 355.20146 -221.16703 352.71071 -237.07812 350.14453 C -239.48363 349.75646 -241.88934 349.36803 -244.29492 348.98047 C -249.07165 348.21112 -253.84837 347.44184 -258.625 346.67188 C -268.25445 345.11944 -277.88456 343.56578 -287.51562 342.02344 C -289.3857 341.72426 -291.255 341.42463 -293.125 341.125 C -296.94321 340.5089 -300.76265 339.90959 -304.58398 339.32617 C -315.3913 337.56381 -326.19673 335.78927 -337 334 C -331.01621 333.39778 -325.06257 332.89138 -319.04883 332.75977 L -316.58594 332.71875 C -313.61543 332.66035 -310.64449 332.60479 -307.67383 332.55469 L -304.375 332.5 C -280.62874 332.08137 -256.88166 331.84446 -233.13281 331.62695 C -225.13078 331.55405 -217.12889 331.47703 -209.12695 331.39453 C -204.57206 331.34753 -200.01585 331.30143 -195.46094 331.25586 L -192.07422 331.22266 C -178.62944 331.0881 -165.18577 330.97793 -151.74023 330.99023 C -145.80846 330.99623 -139.87704 330.98824 -133.94531 330.96484 C -129.39302 330.94444 -124.84125 330.93191 -120.28906 330.97461 C -117.50134 331.00091 -114.71552 331.00803 -111.92773 330.99023 L -108.10938 330.96484 C -103.94568 331.04514 -100.01009 331.21734 -96 330 C -94.075721 328.08444 -93.00206 326.35854 -91.855469 323.90625 C -89.194661 319.97197 -89.194905 319.97253 -85.152344 317.32031 C -76.73195 312.15499 -68.733084 310.19515 -58.824219 312.50781 C -51.271989 315.42153 -47.46562 320.30055 -43.882812 327.20703 L -43 329 C -34.148936 330.7234 -34.148936 330.7234 -17 320 L -17 318 C -19.011309 317.12829 -19.010836 317.12746 -20.289062 315.69531 C -23.238073 312.36908 -26.227687 309.08717 -29.267578 305.84375 C -30.662499 304.3588 -32.052449 302.86916 -33.4375 301.375 C -37.891742 296.32588 -42.284965 291.2394 -47.710938 287.20508 C -53.213588 284.30648 -53.214016 284.30635 -65.328125 286.33789 L -69 287 C -70.085734 285.9525 -70.086222 285.95323 -71.224609 284.45703 L -72.773438 282.45703 L -74.505859 280.22266 C -79.108022 274.28369 -83.715795 268.34961 -88.357422 262.44141 L -89.6875 260.75 C -91.457644 258.49946 -93.228564 256.24953 -95 254 C -102.76559 244.13857 -110.48875 234.24423 -118.18945 224.33203 C -120.59672 221.23308 -123.00225 218.13362 -125.41016 215.03516 L -127.1875 212.75 C -130.97326 207.87891 -134.76858 203.0163 -138.58594 198.16992 C -142.79368 192.83034 -146.95576 187.46519 -151 182 C -146.23771 187.59569 -141.24428 192.85618 -136 198 C -132.75316 201.18464 -129.4614 204.3261 -126.46875 207.75391 C -121.32591 213.82823 -121.32591 213.82823 -106 229 C -103.98126 230.99843 -101.96267 232.9982 -99.947266 235 L -98 236.9375 C -94.084812 240.82813 -90.26596 244.72929 -86.6875 248.9375 C -85.199218 250.7773 -86.373047 249.46289 -85.173828 250.68555 L -83.878906 252.11133 C -82.636052 253.32042 -82.074591 253.92517 -80.705078 255.50586 L -78.886719 257.27344 L -76.867188 259.25781 C -70.980064 264.97489 -65.201316 270.73903 -59.75 276.875 C -56.939284 280.07852 -54.846967 282.22393 -51 284 C -47.750109 269.83184 -44.864653 255.59765 -42.027344 241.3418 C -41.503299 238.70793 -40.97882 236.073 -40.453125 233.43945 C -37.135919 216.82169 -33.852755 200.19789 -30.625 183.5625 C -28.19395 171.02662 -25.69566 158.50944 -23.083984 146.00977 C -21.452118 138.20201 -19.866553 130.38611 -18.3125 122.5625 C -17.300602 117.46417 -16.294526 112.36631 -15.199219 107.28516 C -13.556891 99.862561 -12.127424 92.412874 -10.75 84.9375 C -8.8028198 74.306472 -6.8157566 63.683204 -4.8027344 53.064453 C -4.4818734 51.371995 -4.1604261 49.680792 -3.8398438 47.988281 C -2.8937614 42.992337 -1.9470513 37.995761 -1 33 C -0.89621144 57.811578 -0.78966035 82.624003 -0.67773438 107.43555 C -0.62300917 119.55773 -0.5680219 131.67858 -0.51757812 143.80078 C -0.28352297 200.20537 0.01773069 256.60277 1 313 C 3.2914417 312.49793 4.7117117 312.25366 6.4960938 310.68359 C 12.498252 303.96429 18.464001 299.80507 27 297 C 29.44824 296.39584 31.666073 295.72431 33.976562 294.71094 C 36.760577 292.35689 36.760576 292.35689 39.125 285.8125 C 48.646783 268.42103 48.646783 268.42103 64.3125 255.625 C 67.874665 252.74206 71.401736 249.82774 74.892578 246.85938 C 78.433042 243.84452 81.970743 240.83055 85.589844 237.91016 C 90.271669 234.1996 94.887207 230.43247 99.4375 226.5625 C 102.5352 223.92632 105.63616 221.29843 108.78125 218.71875 C 113.91782 214.54907 118.98825 210.31816 124 206 C 128.27012 202.32004 132.56738 198.68584 136.9375 195.125 C 140.05145 192.59607 143.14298 190.0497 146.1875 187.4375 L 149 185 L 147.05859 186.90625 L 144.4375 189.5 C 142.02579 191.87868 139.65999 194.24387 137.43164 196.79492 C 133.46027 201.42145 129.30496 205.77583 124.97266 210.06641 C 119.59419 215.3599 114.16469 220.57522 109.21875 226.28125 C 107.31963 228.49358 105.41558 230.59834 103.375 232.6875 C 99.592007 236.37094 95.874366 240.05149 92.4375 244.0625 C 89.82989 247.12334 87.065011 249.94122 84.1875 252.75 C 81.462141 255.35809 79.484137 257.51346 78 261 C 83.443979 261.75611 85.876338 263.90188 89.75 267.6875 L 92 270 C 94 269 94 269 95.59375 267.17188 L 97.5 264.75 C 103.12682 257.60709 108.69342 250.4148 114.14453 243.13672 C 118.04753 237.90134 121.99294 232.70704 126.00977 227.55859 C 131.0678 221.0827 136.09102 214.5898 141 208 C 144.66144 203.08182 148.37716 198.21406 152.16016 193.38867 C 157.49831 186.58393 162.71451 179.71987 167.75 172.6875 C 171.63158 167.25188 175.57271 161.88675 179.6875 156.625 C 182.14745 153.50879 184.38769 150.63847 186 147 C 175.93782 154.02013 166.36346 161.57578 157.09375 169.60547 C 153.58401 172.6462 150.04162 175.63317 146.4375 178.5625 C 142.98268 181.36796 139.5593 184.20479 136.16602 187.08398 C 132.52274 190.18063 128.88094 193.27567 125.1875 196.3125 C 118.04961 202.12241 111.01235 208.03992 104 214 C 98.765268 218.44922 93.544417 222.91494 88.230469 227.26953 C 83.754819 230.90641 79.316524 234.57296 74.955078 238.3457 C 67.486631 244.80955 59.817733 250.96442 52 257 C 52 254.78915 51.999756 254.78915 50.832031 249.3418 C 47.34842 233.22784 44.094953 217.06573 41.123047 200.84961 C 39.585186 192.43533 38.039051 184.02892 36.277344 175.6582 C 33.969049 164.77733 31.77133 153.87778 29.640625 142.96094 L 29.125 140.3125 C 26.336067 126.00313 23.591977 111.68569 20.912109 97.355469 C 19.219525 88.295859 17.462024 79.251065 15.648438 70.214844 C 14.286663 63.439464 12.930658 56.662737 11.601562 49.880859 C 10.653715 45.0363 9.7028483 40.192802 8.7480469 35.349609 C 8.2688126 32.920715 7.7903044 30.491676 7.3125 28.0625 C 6.5858515 24.327137 5.8587629 20.592579 5.1210938 16.859375 L 4.4257812 13.347656 L 3.7753906 9.9707031 L 3.1582031 6.8789062 C 2.5159686 3.6028689 2.3895421 2.389542 0 0 z M 327.2168 334.63672 C 325.06869 334.72064 323.71255 335.20656 321.34766 336.90625 C 318.98822 339.15887 318.98895 339.15838 315.73047 340.85156 C 304.91356 346.26598 294.24665 350.58376 282 347 L 279.0625 346.125 C 276 346 276 346 273.8125 347.9375 C 271.32424 350.84999 268.49487 352.90706 265.375 355.125 C 262.33414 357.2661 259.58634 359.33463 257 362 C 267.71024 360.74994 278.26592 358.91605 288.86133 356.92969 C 309.03165 353.13067 329.22044 349.56234 349.49219 346.35156 C 357.43242 345.09783 365.36273 343.78995 373.29102 342.46289 L 375.3125 342.125 C 379.54185 341.41777 383.77111 340.70998 388 340 L 388 338 C 382.30364 337.64037 376.60706 337.28458 370.91016 336.93359 C 368.56508 336.78946 366.22003 336.64492 363.875 336.5 C 356.18219 336.01424 348.48902 335.53741 340.79102 335.14062 L 338 335 C 336.47836 334.91871 334.95558 334.8402 333.43359 334.76562 L 329.69531 334.65625 C 328.73609 334.62497 327.93283 334.60874 327.2168 334.63672 z M 220 357 L 216 368 C 219.36092 368.1241 222.32848 367.94092 225.64844 367.34375 L 229.375 366.5 C 231.58466 366.00591 233.79345 365.50781 236 365 L 220 357 z M 99.365234 411.10938 C 98.718338 411.14005 98.25 411.375 97 412 C 97 414 97 414 98.132812 415.64062 C 99.185557 416.97087 100.2331 418.30625 101.25781 419.6582 C 107.26582 427.63314 113.36179 435.52413 119.6875 443.25 C 123.1425 447.46292 126.56122 451.68916 129.85547 456.0293 C 134.90595 462.7037 140.24227 469.07393 145.72656 475.39453 L 148 478 C 143.90373 474.98804 140.47233 471.64589 137.07812 467.85156 C 133.48586 463.78663 129.94186 459.73439 126 456 C 121.69802 452.53716 117.79453 448.86936 113.93359 444.91992 C 112.39751 443.34079 110.85707 441.76613 109.3125 440.19531 C 106.83053 437.67481 104.35115 435.15122 101.875 432.625 C 99.394987 430.07392 96.914413 427.52527 94.416016 424.99219 L 92.054688 422.60156 L 89.787109 420.24805 L 87.664062 418.11133 C 85.807831 416.21231 85.807342 416.2128 84 415 C 80.97934 415.28514 80.97934 415.28514 74.671875 418.93164 L 72.75 420.0625 C 70.496973 421.37006 68.246642 422.68145 66 424 L 66 426 L 68.027344 427.70703 C 69.537961 428.79995 71.048606 429.89426 72.552734 430.99609 L 74.269531 432.25781 C 77.546116 434.65591 80.783637 437.10094 84.009766 439.56641 L 86.125 441.1875 C 93.601149 446.9088 101.03944 452.67789 108.46484 458.46484 C 112.97375 461.98018 117.48643 465.49065 122 469 C 125.76274 471.92485 129.52702 474.84798 133.2832 477.78125 C 141.13995 483.92111 149.0058 490.03967 157 496 C 165.29541 502.18003 173.45361 508.53167 181.60156 514.9043 C 182.07703 515.27651 182.53852 515.63874 183 516 C 183.34 515.31999 183.67 514.65999 184 514 C 181.82889 511.06936 179.59224 508.19396 177.33398 505.33008 C 173.5498 500.53514 169.78106 495.73038 166.06445 490.88281 C 160.99086 484.25862 155.83395 477.70968 150.56641 471.23828 C 144.25633 463.49428 137.96994 455.74039 131.81641 447.87109 C 129.85257 445.35939 127.88239 442.85299 125.89062 440.36328 C 123.06991 436.85995 120.25995 433.35298 117.53125 429.77734 C 114.37328 425.63254 111.19927 421.50308 107.94922 417.42969 L 106.125 415.25 C 104.41025 413.19919 103.44354 412.16403 100.92969 411.23438 C 100.20605 411.14648 99.753372 411.09097 99.365234 411.10938 z M 46 432 C 41.515917 432 40.412649 433.55238 39.203125 437.78516 L 38.605469 441.20312 L 37.908203 445.06445 C 37.54386 447.1802 37.180288 449.29476 36.802734 451.4082 C 36.402154 453.62626 36.001053 455.84424 35.601562 458.0625 C 34.386617 464.88511 33.116922 471.69325 31.794922 478.49609 C 31.298362 481.03927 30.804266 483.58322 30.310547 486.12695 C 29.288504 491.39422 28.262295 496.66004 27.232422 501.92578 C 26.564891 505.33799 25.898499 508.75157 25.232422 512.16406 L 24.8125 514.3125 C 22.847567 524.37984 20.910201 534.45142 19 544.5293 L 18.285156 548.30469 C 17.081018 554.66376 15.876656 561.02275 14.677734 567.38281 C 14.225007 569.78501 13.771896 572.18779 13.318359 574.58984 C 13.090373 575.79595 12.869718 576.96608 12.648438 578.13672 C 11.367997 584.91642 10.073813 591.69103 8.6933594 598.45117 C 7.6587054 603.46574 7.657729 603.46623 5 617 L 1 642 L 0 443 C -12.715012 448.77955 -23.415583 452.30376 -37.210938 452.92188 C -38.15922 452.94845 -39.079609 452.97422 -40 453 C -40 455.81197 -39.641187 458.36979 -39.150391 461.13086 L -38.765625 463.24219 C -38.337905 465.62804 -37.908166 468.01364 -37.474609 470.39844 L -37 473 C -35.969679 478.6454 -34.93334 484.29011 -33.892578 489.93359 C -30.843401 506.45941 -27.807555 522.98584 -24.855469 539.5293 C -21.650113 557.49524 -18.330458 575.43943 -14.980469 593.37891 C -13.375449 601.97246 -11.783288 610.56822 -10.201172 619.16602 C -9.7595969 621.56666 -9.317857 623.96679 -8.875 626.36719 C -7.655156 632.9749 -6.4306746 639.58348 -5.2441406 646.19727 C -5.0036826 647.54071 -4.7641025 648.88316 -4.5234375 650.22656 C -4.0779395 652.69267 -3.632615 655.15882 -3.1875 657.625 L -2.5976562 660.98438 C -2.4093112 662.02297 -2.2257738 663.03102 -2.0429688 664.03906 C -1.4490258 667.37841 -0.64484 670.02649 1 673 C 4.36081 656.57169 4.3608102 656.57169 10.925781 621.70508 C 12.554374 613.05498 14.185365 604.40549 15.816406 595.75586 C 16.460999 592.33764 17.104369 588.91839 17.748047 585.5 C 19.772907 574.7454 21.804206 563.99391 23.875 553.24805 C 25.532644 544.653 27.183917 536.05632 28.798828 527.45312 L 29.394531 524.27344 C 29.793076 522.14771 30.191351 520.02222 30.589844 517.89648 L 31.195312 514.66797 L 31.8125 511.375 C 34.090852 499.22072 36.362491 487.06639 38.8125 474.94531 L 39.390625 472.09766 C 40.278191 467.7205 41.164022 463.34281 42.076172 458.9707 C 43.950106 450.00047 45.553297 441.18025 46 432 z "
       transform="translate(511,163)"
       inkscape:label="navigator" />
    <path
       d="m 0,0 c 5.94,0 11.88,0 18,0 -0.33,1.32 -0.66,2.64 -1,4 -1.32,0 -2.64,0 -4,0 2.64,9.24 5.28,18.48 8,28 2.97,-10.23 5.94,-20.46 9,-31 1.65,-0.33 3.3,-0.66 5,-1 2.651524,6.722633 4.698094,13.555769 6.6875,20.5 0.320332,1.108594 0.640664,2.217188 0.970703,3.359375 C 43.441624,26.572117 44.222148,29.285657 45,32 c 1.728162,-5.014899 3.200182,-10.080522 4.625,-15.1875 0.229453,-0.806309 0.458906,-1.612617 0.695312,-2.443359 0.216563,-0.775371 0.433125,-1.550743 0.65625,-2.34961 0.196744,-0.700202 0.393487,-1.400405 0.596192,-2.1218259 C 52.10982,7.8364105 52.10982,7.8364105 52,5 50.68,4.67 49.36,4.34 48,4 c 0,-1.32 0,-2.64 0,-4 4.95,0 9.9,0 15,0 -0.33,1.32 -0.66,2.64 -1,4 -0.634138,0.2720728 -1.268276,0.5441455 -1.921631,0.8244629 -2.395859,1.0729798 -2.395859,1.0729798 -3.311035,4.1655273 -0.337009,1.2601388 -0.674019,2.5202788 -1.02124,3.8186038 -0.18699,0.681355 -0.373979,1.36271 -0.566635,2.064712 -0.59574,2.184307 -1.169112,4.373784 -1.741959,6.564194 -0.388505,1.43985 -0.778465,2.879309 -1.169922,4.318359 -0.934045,3.445449 -1.851224,6.895106 -2.763489,10.346375 C 48.360369,40.408045 47.178344,44.703561 46,49 44.35,49 42.7,49 41,49 38.740844,44.056889 37.16783,39.285863 35.9375,34 35.614456,32.645552 35.290246,31.291383 34.964844,29.9375 34.808706,29.281367 34.652568,28.625234 34.491699,27.949219 34.00879,26.034847 33.444421,24.141617 32.878906,22.25 32,19 32,19 32,15 c -0.66,0 -1.32,0 -2,0 -0.139219,1.336113 -0.139219,1.336113 -0.28125,2.699219 C 28.88412,23.534279 27.114395,29.155635 25.5,34.8125 25.018535,36.528564 25.018535,36.528564 24.527344,38.279297 22.143187,46.713627 22.143187,46.713627 21,49 19.35,49 17.7,49 16,49 15.614611,47.57905 15.614611,47.57905 15.221436,46.129395 14.255487,42.569298 13.287781,39.00968 12.31958,35.450195 11.903095,33.918096 11.487068,32.385873 11.071533,30.853516 9.8985849,26.52871 8.7126502,22.207819 7.5150757,17.889771 7.0511291,16.187589 6.6130492,14.478407 6.1782227,12.768555 5.9402295,11.872979 5.7022363,10.977402 5.4570312,10.054688 5.2672974,9.304292 5.0775635,8.5538965 4.8820801,7.7807617 3.7186143,5.4319327 2.3904476,4.9349007 0,4 0,2.68 0,1.36 0,0 Z"
       fill="#0f0f0f"
       transform="translate(61,474)"
       id="path7"
       inkscape:label="W"
       style="display:inline;fill:#000000;fill-opacity:1" />
    <path
       d="m 0,0 c 0,4.29 0,8.58 0,13 -1.65,0 -3.3,0 -5,0 C -5.66,10.03 -6.32,7.06 -7,4 -8.7704969,3.945893 -10.541468,3.907159 -12.3125,3.875 -13.298633,3.851797 -14.284766,3.828594 -15.300781,3.804688 -18.224065,3.7931736 -18.224065,3.7931736 -21,6 c -0.751281,4.098011 -0.751281,4.098011 0,8 2.299513,2.33145 5.075319,3.581141 8,5 12.92297174,6.648131 12.92297174,6.648131 15,11 0.6395864,4.598931 0.5948057,8.559944 -1.1875,12.875 -4.3283824,5.074655 -8.6128231,7.752711 -15.324219,8.347656 C -20.99835,51.430735 -25.973648,50.371024 -32,48 c 0,-4.62 0,-9.24 0,-14 1.65,0 3.3,0 5,0 0.66,3.3 1.32,6.6 2,10 4.916589,1.229147 9.587139,1.866155 14.4375,0.125 C -8.8410673,43.069259 -8.8410673,43.069259 -8,41 -7.5160447,36.671628 -7.5160447,36.671628 -9.5859375,33.015625 -12.969058,30.190883 -16.777245,28.568823 -20.779297,26.820312 -25.5846,24.580948 -28.08934,22.325338 -31,18 -32.032408,13.676034 -31.986454,9.1554237 -30.113281,5.0625 -22.661497,-4.8402035 -10.415522,-2.6878767 0,0 Z"
       fill="#0d0d0d"
       transform="translate(527,856)"
       id="path13"
       inkscape:label="S"
       style="fill:#000000;fill-opacity:1" />
    <path
       d="m 0,0 c 4.956375,2.9660958 8.1303964,7.2732018 11.003906,12.199219 2.319388,9.29291 1.418961,17.530325 -2.9999997,26 -3.242278,5.326599 -8.11665202,7.857839 -13.9921875,9.585937 -7.0524808,1.454403 -12.4601868,0.43318 -18.7734378,-3.027344 -4.83873,-3.375268 -7.414363,-8.027339 -9.234375,-13.558593 -0.854989,-8.699023 -0.828391,-17.416586 4,-25.0000003 C -21.922053,-3.1938484 -10.952969,-5.4288627 0,0 Z m -20.996094,6.1992187 c -4.854711,7.3876033 -5.049262,15.2613413 -3.492187,23.7773433 1.446623,5.528761 3.453816,9.184285 7.492187,13.222657 3.109534,1.554767 5.562668,1.286444 9.0000003,1 4.913188,-2.456594 6.9910177,-4.924677 8.9999999,-10 C 3.5315878,26.347272 3.3300952,15.813344 -0.24609375,8.3867188 -2.0380368,5.1733887 -3.84673,3.1304324 -6.9960937,1.1992187 c -6.1562343,-0.79435274 -9.9803153,-0.066229 -14.0000003,5 z"
       fill="#0b0c0b"
       transform="translate(950.99609,475.80078)"
       id="path11"
       inkscape:label="O"
       style="display:inline;fill:#000000;fill-opacity:1" />
    <path
       d="m 0,0 c 4.9027218,-0.87635544 9.1209036,-1.112832 14,0 4.442485,3.9385273 7.202879,8.667426 10.1875,13.75 0.821557,1.317992 1.6477,2.633137 2.478516,3.945312 1.519823,2.410342 3.009219,4.834609 4.471435,7.280274 C 33.081789,28.235982 33.081789,28.235982 36,32 36,23.09 36,14.18 36,5 34.68,4.34 33.36,3.68 32,3 c 0,-0.99 0,-1.98 0,-3 4.95,0 9.9,0 15,0 0,0.99 0,1.98 0,3 -1.32,0.33 -2.64,0.66 -4,1 -0.33,14.52 -0.66,29.04 -1,44 -1.98,0 -3.96,0 -6,0 C 34.14467,45.903223 32.890597,44.132545 31.5,41.75 30.650366,40.384703 29.797299,39.021538 28.941406,37.660156 28.480083,36.917817 28.01876,36.175479 27.543457,35.410645 24.656333,30.901397 21.531846,26.555896 18.4375,22.1875 17.226512,20.473611 16.016779,18.758835 14.808594,17.042969 14.290955,16.311023 13.773315,15.579077 13.23999,14.824951 12,13 12,13 11,11 c 0,10.56 0,21.12 0,32 1.65,0.66 3.3,1.32 5,2 0,0.99 0,1.98 0,3 C 10.72,48 5.44,48 0,48 0,47.01 0,46.02 0,45 2.475,44.505 2.475,44.505 5,44 5,31.13 5,18.26 5,5 2.525,4.01 2.525,4.01 0,3 0,2.01 0,1.02 0,0 Z"
       fill="#0c0c0c"
       transform="translate(489,102)"
       id="path12"
       inkscape:label="N" />
  </g>
</svg>
